<svg width="103" height="32" viewBox="0 0 103 32" fill="none" xmlns="http://www.w3.org/2000/svg">
<g clip-path="url(#clip0)">
<path d="M54.0374 8.04048C54.0374 9.19374 53.1085 10.1224 51.9556 10.1224C50.8027 10.1224 49.8744 9.19374 49.8744 8.04048C49.8744 6.88723 50.771 5.9586 51.9556 5.9586C53.1411 5.9906 54.0374 6.91955 54.0374 8.04048V8.04048ZM45.4554 12.2369V12.7495C45.4554 12.7495 44.4631 11.4676 42.3496 11.4676C38.8596 11.4676 36.1374 14.1264 36.1374 17.8099C36.1374 21.4617 38.8277 24.1522 42.3496 24.1522C44.4951 24.1522 45.4554 22.8389 45.4554 22.8389V23.3832C45.4554 23.6395 45.648 23.8312 45.9039 23.8312H48.4973V11.787H45.9039C45.648 11.7879 45.4554 12.0126 45.4554 12.2369V12.2369ZM45.4554 19.9561C44.9756 20.661 44.0147 21.2697 42.8621 21.2697C40.8129 21.2697 39.2435 19.9884 39.2435 17.8099C39.2435 15.6317 40.8129 14.3504 42.8621 14.3504C43.983 14.3504 45.0076 14.9911 45.4554 15.6637V19.9561ZM50.4188 11.7879H53.4926V23.8322H50.4188V11.7879V11.7879ZM96.3373 11.4673C94.2238 11.4673 93.2309 12.7492 93.2309 12.7492V5.9906H90.157V23.8322H92.751C93.0073 23.8322 93.1989 23.6079 93.1989 23.3835V22.8392C93.1989 22.8392 94.1918 24.1525 96.3047 24.1525C99.7953 24.1525 102.517 21.4626 102.517 17.8108C102.517 14.1591 99.7953 11.4673 96.3373 11.4673V11.4673ZM95.8248 21.2373C94.6397 21.2373 93.7113 20.6293 93.2309 19.9241V15.6317C93.7113 14.9911 94.7359 14.3184 95.8248 14.3184C97.8741 14.3184 99.4431 15.5997 99.4431 17.7779C99.4431 19.9561 97.8744 21.2373 95.8248 21.2373ZM88.5563 16.6893V23.8642H85.4819V17.0413C85.4819 15.0557 84.8415 14.2544 83.1134 14.2544C82.1851 14.2544 81.2241 14.7351 80.6147 15.44V23.8325H77.5416V11.7883H79.9743C80.2306 11.7883 80.4228 12.0126 80.4228 12.2369V12.7495C81.3195 11.8202 82.504 11.4676 83.6886 11.4676C85.0337 11.4676 86.1546 11.8526 87.0512 12.6212C88.1395 13.5181 88.5563 14.6711 88.5563 16.6893V16.6893ZM70.0795 11.4673C67.9667 11.4673 66.9737 12.7492 66.9737 12.7492V5.9906H63.8999V23.8322H66.4933C66.7495 23.8322 66.9417 23.6079 66.9417 23.3835V22.8392C66.9417 22.8392 67.9347 24.1525 70.0475 24.1525C73.5382 24.1525 76.2598 21.4626 76.2598 17.8108C76.2918 14.1588 73.5702 11.4673 70.0795 11.4673V11.4673ZM69.5671 21.2373C68.3825 21.2373 67.4542 20.6293 66.9737 19.9241V15.6317C67.4542 14.9911 68.4788 14.3184 69.5671 14.3184C71.6169 14.3184 73.1856 15.5997 73.1856 17.7779C73.1856 19.9561 71.6169 21.2373 69.5671 21.2373ZM61.242 11.4673C62.1703 11.4673 62.6507 11.6279 62.6507 11.6279V14.4784C62.6507 14.4784 60.0891 13.6135 58.4884 15.4397V23.8638H55.4139V11.7879H58.0079C58.2641 11.7879 58.4557 12.0122 58.4557 12.2366V12.7492C59.0328 12.0762 60.2816 11.4673 61.242 11.4673V11.4673ZM29.3173 22.7429C29.1574 22.3586 28.9971 21.9423 28.8372 21.5897C28.5806 21.0133 28.3244 20.4684 28.1008 19.9561L28.0688 19.9241C25.859 15.1191 23.4899 10.2507 20.9919 5.4463L20.8959 5.25365C20.6332 4.75525 20.3772 4.25336 20.1279 3.74809C19.8074 3.17114 19.4875 2.56315 18.975 1.9862C17.9504 0.704946 16.4773 0 14.9086 0C13.3072 0 11.8664 0.70495 10.8102 1.92189C10.3297 2.49819 9.97718 3.10683 9.65729 3.68377C9.40738 4.18873 9.15134 4.69061 8.88923 5.18934L8.79295 5.38197C6.32725 10.1864 3.92584 15.0551 1.71636 19.8598L1.68406 19.9234C1.46014 20.4367 1.20358 20.981 0.947351 21.557C0.787406 21.9096 0.627462 22.294 0.467517 22.7103C0.0510219 23.8952 -0.0772597 25.0165 0.0833246 26.17C0.435522 28.5726 2.03625 30.5898 4.24604 31.4874C5.07871 31.84 5.94337 32 6.8397 32C7.09593 32 7.41583 31.968 7.67238 31.9357C8.72929 31.8077 9.81787 31.4557 10.8748 30.8471C12.1876 30.1101 13.4365 29.0535 14.8452 27.5159C16.254 29.0535 17.5349 30.1101 18.8157 30.8471C19.8729 31.4557 20.9612 31.8077 22.0178 31.9357C22.274 31.9683 22.5946 32 22.8508 32C23.7474 32 24.6438 31.84 25.4441 31.4874C27.6859 30.5898 29.2546 28.5406 29.6072 26.17C29.8615 25.0491 29.7335 23.9285 29.3173 22.7429V22.7429ZM14.8763 24.4085C13.147 22.2303 12.0261 20.1804 11.6422 18.4512C11.4823 17.7142 11.4499 17.0736 11.5462 16.497C11.6099 15.9843 11.8025 15.5357 12.0587 15.1514C12.6671 14.2871 13.6917 13.7421 14.8766 13.7421C16.0618 13.7421 17.1184 14.2548 17.6948 15.1514C17.9511 15.5357 18.143 15.9846 18.2076 16.497C18.3033 17.0739 18.2713 17.7462 18.1113 18.4512C17.7259 20.1484 16.605 22.1986 14.8763 24.4085ZM27.652 25.9141C27.4281 27.5796 26.3072 29.0215 24.7385 29.6621C23.9701 29.9821 23.1371 30.0784 22.3051 29.9821C21.5047 29.8858 20.7037 29.6295 19.8717 29.1495C18.7188 28.5082 17.5662 27.5159 16.2211 26.042C18.3343 23.4478 19.6151 21.077 20.0956 18.9635C20.3198 17.9702 20.3521 17.0736 20.2555 16.2403C20.1279 15.4397 19.8394 14.7027 19.3912 14.0621C18.3979 12.6202 16.7326 11.7879 14.876 11.7879C13.0193 11.7879 11.354 12.6529 10.3614 14.0621C9.9132 14.7027 9.62466 15.4397 9.4967 16.2403C9.36874 17.0736 9.40041 18.0022 9.65664 18.9635C10.1368 21.077 11.4496 23.4795 13.5308 26.074C12.218 27.5476 11.0331 28.5409 9.88025 29.1815C9.04758 29.6621 8.24754 29.9184 7.44718 30.0141C6.58284 30.1104 5.74984 29.9821 5.01346 29.6941C3.44472 29.0535 2.32383 27.6116 2.09991 25.946C2.00394 25.1454 2.0676 24.3448 2.38813 23.4479C2.48378 23.1272 2.64436 22.8072 2.8043 22.4229C3.02855 21.9103 3.28414 21.3653 3.54069 20.821L3.573 20.7573C5.78216 15.9843 8.15157 11.1156 10.6173 6.37523L10.7132 6.1826C10.9698 5.70261 11.226 5.18998 11.4819 4.70935C11.7382 4.19672 12.0261 3.71609 12.3786 3.29946C13.051 2.53147 13.9473 2.11452 14.9403 2.11452C15.9332 2.11452 16.8295 2.53147 17.5019 3.29946C17.8544 3.71705 18.1423 4.19768 18.3986 4.70935C18.6551 5.18998 18.9114 5.70261 19.1669 6.1826L19.2632 6.37523C21.6913 11.1353 24.0293 15.9409 26.2758 20.7893V20.8214C26.5324 21.3346 26.7563 21.9106 27.0125 22.4239C27.1725 22.8075 27.3328 23.1275 27.4287 23.4482C27.6843 24.2802 27.7803 25.0814 27.652 25.9141V25.9141Z" fill="#FF5A5F"/>
</g>
<defs>
<clipPath id="clip0">
<rect width="102.531" height="32" fill="white"/>
</clipPath>
</defs>
</svg>
