<svg width="187" height="32" viewBox="0 0 187 32" fill="none" xmlns="http://www.w3.org/2000/svg">
<g clip-path="url(#clip0)">
<path d="M15.6522 31.9878V25.7671C22.1355 25.7671 27.1365 19.2645 24.6369 12.3835C24.1821 11.1063 23.4569 9.94639 22.5127 8.98585C21.5684 8.02531 20.4283 7.2876 19.1728 6.82491C17.7156 6.26752 16.1476 6.07665 14.6023 6.26855C13.0571 6.46045 11.5802 7.02944 10.2977 7.92705C9.01515 8.82467 7.96485 10.0243 7.23627 11.4238C6.50768 12.8234 6.12238 14.3813 6.11319 15.9649H0C0 5.59703 9.91093 -2.60268 20.7462 0.79148C23.0747 1.53552 25.1919 2.84103 26.9176 4.59683C28.6432 6.35263 29.9261 8.5067 30.6571 10.8756C33.9917 21.9038 25.9332 31.9878 15.6522 31.9878Z" fill="#0080FF"/>
<path d="M15.7447 25.7665H9.63155V19.6403H15.7447V25.7665ZM9.63155 30.5739H5.00062V25.7665H9.63155V30.5739ZM5.00062 25.7665H1.11548V21.8085H5.00062V25.7665ZM55.8497 9.27244C54.0903 8.04645 51.7748 7.38048 49.1804 7.38048H43.5322V25.7589H49.1823C51.7761 25.7589 53.9992 25.0992 55.8515 23.7799C56.8633 23.0312 57.6622 22.0233 58.167 20.8587C58.7249 19.6328 59.0002 18.1249 59.0002 16.5224C59.0002 14.9199 58.7231 13.412 58.167 12.2806C57.6091 10.8749 56.8688 9.93273 55.8497 9.27244V9.27244ZM46.8668 10.4984H48.6262C50.5715 10.4984 52.2379 10.8768 53.5342 11.7244C54.9235 12.572 55.58 14.1839 55.58 16.5318C55.58 18.8798 54.8361 20.5844 53.5342 21.5266C52.3309 22.2834 50.7557 22.7526 48.7173 22.7526H46.8668V10.4984ZM62.982 7.10615C62.7246 7.09916 62.4686 7.14591 62.2296 7.24353C61.9907 7.34115 61.7739 7.48757 61.5928 7.67374C61.3817 7.83966 61.2127 8.05448 61.0998 8.30032C60.9869 8.54616 60.9334 8.81588 60.9437 9.08702C60.9437 9.61188 61.1487 10.1152 61.5135 10.4864C61.8783 10.8575 62.3731 11.066 62.8891 11.066C63.405 11.066 63.8998 10.8575 64.2646 10.4864C64.6295 10.1152 64.8344 9.61188 64.8344 9.08702C64.8412 8.82518 64.7952 8.56471 64.6992 8.32164C64.6033 8.07858 64.4594 7.85808 64.2765 7.67374C63.9994 7.29535 63.5325 7.10615 62.9746 7.10615H62.982ZM61.3008 12.7612H64.5424V25.6738H61.3138V12.7612H61.3008ZM76.1328 13.8964C75.2029 13.0488 74.087 12.4831 72.8911 12.4831C72.0748 12.4648 71.2641 12.6241 70.5132 12.9504C69.7624 13.2767 69.0887 13.7624 68.5373 14.375C67.3804 15.6216 66.749 17.2792 66.7779 18.9933C66.7779 20.785 67.3359 22.3855 68.4517 23.6115C69.5676 24.8375 71.0443 25.4032 72.8056 25.4032C73.9389 25.4213 75.0462 25.0567 75.9542 24.3664V24.6483C75.9542 25.6851 75.6771 26.5403 75.121 27.1079C74.5649 27.6754 73.8192 27.9554 72.8056 27.9554C71.3177 27.9554 70.3971 27.3879 69.2868 25.7873L67.055 27.9554L67.148 28.05C67.6111 28.7103 68.3513 29.3744 69.2775 30.029C70.2037 30.6836 71.407 30.975 72.7963 30.975C74.7416 30.975 76.2239 30.4074 77.3342 29.1833C78.4445 27.9592 79.0936 26.4495 79.0936 24.4705V12.7612H75.9486V13.8964H76.1346H76.1328ZM75.3014 21.5304C74.7435 22.1907 73.9996 22.4764 73.0697 22.4764C72.1398 22.4764 71.3958 22.1945 70.8379 21.5304C70.2799 20.8663 70.0047 20.0168 70.0047 18.9857C70.0047 17.9546 70.3004 17.0957 70.8583 16.4354C71.4163 15.7751 72.1602 15.4894 73.0901 15.4894C74.02 15.4894 74.7639 15.7713 75.3219 16.4354C75.8798 17.0994 76.1551 17.9489 76.1551 18.98C76.1551 20.0111 75.878 20.872 75.3219 21.5247L75.3014 21.5304ZM82.0823 12.7593H85.3239V25.6719H82.0618V12.7612L82.0823 12.7593ZM83.6371 7.10615C83.3799 7.09966 83.1241 7.14642 82.8852 7.24357C82.6462 7.34073 82.4292 7.48626 82.2473 7.67134C82.0654 7.85641 81.9223 8.07716 81.8268 8.3202C81.7313 8.56323 81.6854 8.82348 81.6917 9.08513C81.6917 9.60999 81.8967 10.1134 82.2615 10.4845C82.6263 10.8556 83.1211 11.0641 83.6371 11.0641C84.153 11.0641 84.6478 10.8556 85.0127 10.4845C85.3775 10.1134 85.5825 9.60999 85.5825 9.08513C85.5888 8.82331 85.5428 8.56291 85.4472 8.31975C85.3516 8.07658 85.2084 7.85574 85.0262 7.67063C84.8441 7.48553 84.6269 7.34004 84.3877 7.243C84.1486 7.14596 83.8926 7.0994 83.6352 7.10615H83.6371ZM92.2461 9.27244H89.1012V12.7612H87.2414V15.6824H89.1012V21.0555C89.1012 22.7583 89.4732 23.9767 90.1204 24.637C90.7676 25.2973 91.9802 25.6738 93.548 25.6738C94.0748 25.6893 94.6019 25.6576 95.1233 25.5792H95.3093V22.6561L94.1934 22.7507C93.4494 22.7507 92.8915 22.6561 92.7055 22.3723C92.4284 22.0904 92.3336 21.5247 92.3336 20.6695V15.777H95.2981V12.8539H92.3429L92.2461 9.27244ZM110.214 7.38048H113.455V25.7589H110.217V7.39184L110.214 7.38048ZM145.784 21.152C145.311 21.7092 144.783 22.2163 144.209 22.6656C143.705 22.9767 143.125 23.1397 142.535 23.1366C142.101 23.1328 141.672 23.0379 141.275 22.8579C140.878 22.6779 140.522 22.4166 140.229 22.0904C139.58 21.3336 139.299 20.4879 139.299 19.3565C139.299 18.2251 139.576 17.3776 140.229 16.6227C140.511 16.28 140.866 16.0082 141.268 15.8283C141.669 15.6485 142.106 15.5655 142.545 15.5859C143.564 15.5859 144.674 16.2462 145.6 17.3776L147.73 15.2964C146.341 13.5047 144.581 12.6571 142.45 12.6571C140.69 12.6571 139.208 13.3174 137.912 14.6361C136.699 15.9302 136.031 17.6555 136.052 19.4436C136.052 21.3355 136.701 23.025 137.912 24.251C138.488 24.8882 139.19 25.3941 139.972 25.7352C140.755 26.0763 141.599 26.2449 142.45 26.23C144.765 26.23 146.618 25.1932 147.914 23.3088L145.784 21.1406V21.152ZM158.844 14.638C158.357 13.9849 157.718 13.4648 156.984 13.1244C156.144 12.7284 155.225 12.5342 154.299 12.5569C152.539 12.5569 151.057 13.2172 149.945 14.5358C148.892 15.9066 148.336 17.6043 148.37 19.3433C148.37 21.3223 148.928 22.9248 150.129 24.1507C151.33 25.3767 152.815 26.0427 154.76 26.0427C156.889 26.0427 158.651 25.1951 160.04 23.4034L160.133 23.3088L158.003 21.2277C157.817 21.5096 157.54 21.6988 157.26 21.9845C156.997 22.2663 156.68 22.4909 156.33 22.6447C155.848 22.9132 155.303 23.044 154.754 23.0231C153.948 23.035 153.161 22.7682 152.523 22.2664C151.965 21.7953 151.689 21.1312 151.593 20.2874H160.114V19.0614C160.135 18.2256 160.009 17.3927 159.742 16.6019C159.607 15.8711 159.286 15.189 158.812 14.6229L158.844 14.638ZM151.898 17.6613C152.039 17.0909 152.327 16.5688 152.731 16.1478C152.95 15.9258 153.212 15.7525 153.5 15.6389C153.788 15.5252 154.096 15.4737 154.405 15.4875C155.149 15.4875 155.794 15.6767 156.164 16.1478C156.536 16.5262 156.722 17.0938 156.813 17.6613H151.898V17.6613ZM171.163 13.7961C170.234 12.9485 168.848 12.5701 167.182 12.5701C166.163 12.5995 165.158 12.8241 164.221 13.2323C163.388 13.7034 162.547 14.3675 162.091 15.3134L164.137 17.2924C164.97 15.8791 165.896 15.4005 167.193 15.4005C167.799 15.3841 168.391 15.585 168.867 15.968C169.078 16.134 169.247 16.3488 169.36 16.5946C169.472 16.8405 169.526 17.1102 169.516 17.3813V18.0416C168.77 17.7856 167.987 17.6578 167.2 17.6632C165.626 17.6632 164.329 18.0416 163.309 18.7984C162.29 19.5552 161.822 20.6904 161.822 22.0034C161.822 23.2294 162.194 24.1715 163.025 24.9245C163.856 25.6775 164.885 25.9613 166.081 25.9613C167.276 25.9613 168.396 25.4902 169.508 24.637V25.6738H172.657V17.3794C172.657 15.8659 172.194 14.6456 171.169 13.798L171.163 13.7961ZM165.519 20.7717C165.891 20.4898 166.352 20.3933 167.007 20.3933C167.829 20.4215 168.641 20.5805 169.415 20.8644V22.0904C168.649 22.7766 167.658 23.1464 166.637 23.1272C166.079 23.1272 165.617 23.0326 165.335 22.7488C165.052 22.465 164.872 22.1812 164.872 21.8028C164.904 21.594 164.979 21.3943 165.091 21.216C165.202 21.0376 165.349 20.8845 165.521 20.766L165.519 20.7717ZM184.963 13.9853C184.033 12.9485 182.834 12.4717 181.258 12.4717C179.962 12.4717 178.943 12.8501 178.203 13.6069V12.8501H175.052V25.7627H178.294V18.6035C178.294 17.6576 178.48 16.8119 178.943 16.2481C179.17 15.9728 179.455 15.7535 179.777 15.6067C180.099 15.4599 180.45 15.3893 180.803 15.4005C181.121 15.3847 181.438 15.445 181.728 15.5764C182.019 15.7078 182.275 15.9068 182.477 16.1572C182.912 16.7597 183.14 17.491 183.126 18.2384V25.7778H186.353V18.227C186.26 16.436 185.796 15.0221 184.963 13.9853V13.9853ZM106.236 13.7961C105.306 12.9485 103.92 12.5701 102.254 12.5701C101.234 12.5984 100.228 12.8224 99.2892 13.2304C98.4561 13.7015 97.6154 14.3656 97.1598 15.3115L99.2056 17.2905C100.039 15.8772 100.965 15.3986 102.261 15.3986C102.867 15.3822 103.46 15.5831 103.935 15.9662C104.146 16.1321 104.315 16.3469 104.428 16.5927C104.541 16.8386 104.594 17.1083 104.584 17.3794V18.0397C103.838 17.7838 103.056 17.6559 102.269 17.6613C100.694 17.6613 99.3971 18.0397 98.3779 18.7965C97.3588 19.5533 96.8901 20.6885 96.8901 22.0015C96.8901 23.2275 97.2621 24.1697 98.0934 24.9227C98.9247 25.6756 99.9532 25.9594 101.149 25.9594C102.345 25.9594 103.465 25.4883 104.577 24.6351V25.6719H107.725V17.3794C107.725 15.8659 107.167 14.6456 106.237 13.798L106.236 13.7961ZM100.494 20.7717C100.866 20.4898 101.328 20.3933 101.982 20.3933C102.804 20.4215 103.617 20.5805 104.391 20.8644V22.0904C103.624 22.7766 102.633 23.1464 101.612 23.1272C101.054 23.1272 100.593 23.0326 100.31 22.7488C100.028 22.465 99.8472 22.1812 99.8472 21.8028C99.9856 21.4127 100.207 21.0586 100.496 20.766L100.494 20.7717ZM125.046 26.0446C123.213 26.0453 121.421 25.4932 119.897 24.4579C118.373 23.4226 117.185 21.9508 116.483 20.2286C115.781 18.5063 115.597 16.611 115.954 14.7823C116.311 12.9537 117.193 11.2738 118.489 9.95524C119.785 8.63666 121.436 7.73857 123.233 7.37457C125.03 7.01057 126.894 7.19701 128.587 7.91031C130.28 8.62361 131.728 9.83172 132.746 11.3818C133.764 12.932 134.308 14.7545 134.308 16.6189C134.299 19.1153 133.32 21.507 131.585 23.2726C129.85 25.0382 127.5 26.0346 125.046 26.0446V26.0446ZM125.046 10.4C123.854 10.3982 122.689 10.7558 121.698 11.4276C120.706 12.0995 119.933 13.0554 119.476 14.1744C119.018 15.2934 118.898 16.5253 119.129 17.7141C119.36 18.903 119.932 19.9955 120.774 20.8533C121.615 21.7112 122.688 22.2959 123.856 22.5334C125.024 22.771 126.235 22.6508 127.336 22.188C128.437 21.7252 129.379 20.9405 130.041 19.9334C130.704 18.9263 131.058 17.7418 131.059 16.53C131.06 15.7251 130.906 14.9279 130.604 14.184C130.302 13.44 129.859 12.7641 129.299 12.1949C128.74 11.6257 128.076 11.1745 127.344 10.8671C126.613 10.5598 125.829 10.4023 125.038 10.4038" fill="#0080FF"/>
</g>
<defs>
<clipPath id="clip0">
<rect width="186.353" height="32" fill="white"/>
</clipPath>
</defs>
</svg>
