<svg width="20" height="20" viewBox="0 0 20 20" fill="none" xmlns="http://www.w3.org/2000/svg">
<path d="M2.5 9.31817V10.6818C2.5 11.3722 1.94035 11.9318 1.25 11.9318C0.559648 11.9318 0 11.3722 0 10.6818V9.31817C0 8.62782 0.559648 8.06817 1.25 8.06817C1.94035 8.06817 2.5 8.62782 2.5 9.31817Z" fill="#F6BD30"/>
<path d="M17.5005 9.35372C17.5002 9.34187 17.5 9.33002 17.5 9.31817C17.5 8.62782 18.0596 8.06817 18.75 8.06817C19.4404 8.06817 20 8.62782 20 9.31817C20 9.33005 19.9998 9.34192 19.9995 9.35372H20V10.7174H19.9995C19.9807 11.3913 19.4285 11.9318 18.75 11.9318C18.0715 11.9318 17.5193 11.3913 17.5005 10.7174H17.5V9.35368H17.5005V9.35372Z" fill="#F6BD30"/>
<path d="M6.81836 13.4091V14.7727C6.81836 15.4631 6.25875 16.0227 5.56836 16.0227C4.87797 16.0227 4.31836 15.4631 4.31836 14.7727V13.4091C4.31836 12.7187 4.87801 12.1591 5.56836 12.1591C6.25871 12.1591 6.81836 12.7187 6.81836 13.4091V13.4091ZM6.81836 5.22726V9.6875H6.81805C6.80297 10.3647 6.24922 10.9091 5.56836 10.9091C4.8875 10.9091 4.33379 10.3647 4.31871 9.6875H4.31836V5.22726C4.31836 4.53691 4.87801 3.97726 5.56836 3.97726C6.25871 3.97726 6.81836 4.53691 6.81836 5.22726Z" fill="#F6BD30"/>
<path d="M13.1816 6.5909C13.1816 7.28125 13.7412 7.8409 14.4316 7.8409C15.122 7.8409 15.6816 7.28125 15.6816 6.5909V5.22726C15.6816 4.53691 15.122 3.97726 14.4316 3.97726C13.7413 3.97726 13.1816 4.53691 13.1816 5.22726V6.5909Z" fill="#F6BD30"/>
<path d="M8.75 2.61367C8.75 3.30398 9.30965 3.86367 10 3.86367C10.6904 3.86367 11.25 3.30398 11.25 2.61367V1.25C11.25 0.559648 10.6904 0 10 0C9.30965 0 8.75 0.559648 8.75 1.25V2.61367ZM8.75 17.3863C8.75 16.696 9.30965 16.1363 10 16.1363C10.6904 16.1363 11.25 16.696 11.25 17.3863V18.75C11.25 19.4404 10.6904 20 10 20C9.30965 20 8.75 19.4404 8.75 18.75V17.3863Z" fill="#F6BD30"/>
<path d="M13.1816 10.3409C13.1816 9.65055 13.7412 9.0909 14.4316 9.0909C15.122 9.0909 15.6816 9.65055 15.6816 10.3409V14.7727C15.6816 15.4631 15.122 16.0227 14.4316 16.0227C13.7413 16.0227 13.1816 15.4631 13.1816 14.7727V10.3409Z" fill="#F6BD30"/>
<path d="M11.25 6.36368V13.6363C11.25 14.3267 10.6904 14.8863 10 14.8863C9.30965 14.8863 8.75 14.3267 8.75 13.6363V6.36368C8.75 5.67329 9.30965 5.11368 10 5.11368C10.6904 5.11368 11.25 5.67329 11.25 6.36368Z" fill="#F6BD30"/>
</svg>
