<svg width="125" height="32" viewBox="0 0 125 32" fill="none" xmlns="http://www.w3.org/2000/svg">
<g clip-path="url(#clip0)">
<path d="M42.3188 20.6222V11.3778C42.3188 10.8089 42.7797 10.3467 43.3468 10.3467C43.914 10.3467 44.3748 10.8089 44.3748 11.3778V20.6222C44.3748 21.1911 43.914 21.6533 43.3468 21.6533C42.8151 21.6533 42.3188 21.1911 42.3188 20.6222ZM54.0877 21.0133L49.6212 13.8667V20.6222C49.6212 21.1911 49.1604 21.6533 48.5932 21.6533C48.026 21.6533 47.5652 21.1911 47.5652 20.6222V11.6622C47.5652 10.9156 48.1678 10.2756 48.9477 10.2756H49.0186C49.4794 10.2756 49.9403 10.5244 50.1884 10.9156L54.6195 17.9556V11.3067C54.6195 10.7378 55.0803 10.2756 55.6475 10.2756C56.2146 10.2756 56.6755 10.7378 56.6755 11.3067V20.2667C56.6755 21.0133 56.0728 21.6533 55.293 21.6533C54.7967 21.6533 54.3359 21.44 54.0877 21.0133ZM63.8361 12.2667V20.7289C63.8361 21.2622 63.4107 21.6889 62.8789 21.6889H62.7372C62.2054 21.6889 61.78 21.2622 61.78 20.7289V12.2667H59.405C58.8733 12.2667 58.4479 11.84 58.4479 11.3067C58.4479 10.7733 58.8733 10.3467 59.405 10.3467H66.2466C66.7783 10.3467 67.2037 10.7733 67.2037 11.3067C67.2037 11.84 66.7783 12.2667 66.2466 12.2667H63.8361ZM68.8343 20.7289V11.2356C68.8343 10.7378 69.2597 10.3111 69.7559 10.3111H75.9594C76.4557 10.3111 76.8811 10.7378 76.8811 11.2356C76.8811 11.7333 76.4557 12.16 75.9594 12.16H70.8903V14.7911H75.2505C75.7467 14.7911 76.1721 15.2178 76.1721 15.7156C76.1721 16.2133 75.7467 16.64 75.2505 16.64H70.8903V19.7333H75.9594C76.4557 19.7333 76.8811 20.16 76.8811 20.6578C76.8811 21.1556 76.4557 21.5822 75.9594 21.5822H69.7559C69.2597 21.6533 68.8343 21.2622 68.8343 20.7289V20.7289ZM85.566 21.0489L83.9353 17.3867H81.4185V20.6578C81.4185 21.2267 80.9577 21.6889 80.3905 21.6889H80.355C79.7879 21.6889 79.327 21.2267 79.327 20.6578V11.3778C79.327 10.8089 79.7879 10.3467 80.355 10.3467H84.1126C86.8067 10.3467 88.0474 12.0533 88.0474 13.8667C88.0474 15.3956 87.232 16.5689 85.9914 17.0311L87.4093 20.2311C87.6929 20.9067 87.232 21.6533 86.4876 21.6533C86.0977 21.6533 85.7078 21.44 85.566 21.0489V21.0489ZM84.148 12.1244H81.4539V15.5022H84.1835C85.3533 15.5022 86.0268 14.8978 86.0268 13.8311C85.9914 12.9422 85.3178 12.1244 84.148 12.1244V12.1244ZM97.8311 20.5156C96.9804 21.3689 95.8106 21.8667 94.6053 21.8667C93.4001 21.8667 92.2657 21.4756 91.415 20.5867C90.1743 19.3422 89.997 17.8489 89.997 16C89.997 14.1511 90.1743 12.6222 91.415 11.4133C92.2657 10.56 93.4001 10.1333 94.6053 10.1333C95.8106 10.1333 96.9804 10.5956 97.8311 11.4489C98.1147 11.7689 98.3629 12.0889 98.5401 12.48C98.8591 13.1556 98.3629 13.9022 97.6184 13.9022C97.1931 13.9022 96.8386 13.6533 96.6613 13.2622C96.5904 13.0489 96.4487 12.8711 96.3069 12.6933C95.9524 12.2311 95.3143 11.9822 94.6053 11.9822C93.9673 11.9822 93.3292 12.2667 92.8684 12.7289C92.0885 13.5467 92.0885 14.9333 92.0885 16C92.0885 17.0311 92.0885 18.4533 92.8684 19.2711C93.3292 19.7333 93.9673 20.0178 94.6053 20.0178C95.3143 20.0178 95.9524 19.7689 96.3069 19.3067C96.4487 19.1289 96.5904 18.9156 96.6613 18.7022C96.8031 18.3111 97.1931 18.0622 97.6184 18.0622C98.3629 18.0622 98.8591 18.8089 98.5401 19.4844C98.3629 19.8756 98.1147 20.2311 97.8311 20.5156ZM108.856 20.5867C108.005 21.44 106.8 21.8667 105.594 21.8667C104.389 21.8667 103.219 21.44 102.333 20.5867C101.092 19.3422 100.915 17.8489 100.915 16C100.915 14.1511 101.128 12.6222 102.333 11.4133C103.184 10.56 104.389 10.1333 105.594 10.1333C106.8 10.1333 107.969 10.56 108.856 11.4133C110.096 12.6578 110.274 14.1511 110.274 16C110.309 17.8489 110.096 19.3778 108.856 20.5867ZM107.402 12.7644C106.941 12.3022 106.268 12.0178 105.63 12.0178C104.992 12.0178 104.283 12.3022 103.857 12.7644C103.078 13.5822 103.042 14.9689 103.042 16.0356C103.042 17.0667 103.078 18.4533 103.857 19.2711C104.318 19.7333 104.992 20.0178 105.63 20.0178C106.268 20.0178 106.977 19.7333 107.402 19.2711C108.182 18.4533 108.218 17.0667 108.218 16.0356C108.218 14.9689 108.182 13.5467 107.402 12.7644V12.7644ZM122.22 20.6578V13.5822L119.561 20.8C119.419 21.2267 118.994 21.5111 118.533 21.5111C118.072 21.5111 117.682 21.2267 117.505 20.8L114.846 13.4756V20.6578C114.846 21.2267 114.386 21.6533 113.854 21.6533C113.287 21.6533 112.861 21.1911 112.861 20.6578V11.8756C112.861 11.0222 113.57 10.3111 114.421 10.3111H114.563C115.201 10.3111 115.804 10.7022 116.016 11.3422L118.604 18.3822L121.227 11.3422C121.44 10.7378 122.042 10.3111 122.681 10.3111C123.531 10.3111 124.24 11.0222 124.24 11.8756V20.6578C124.24 21.2267 123.779 21.6533 123.248 21.6533C122.645 21.6533 122.22 21.2267 122.22 20.6578V20.6578ZM27.9622 0H4.03449C1.80123 0 0.0288086 1.77778 0.0288086 3.98222V27.9822C0.0288086 30.2222 1.80123 32 4.03449 32H27.9622C30.16 32 31.9324 30.2222 31.9324 28.0178V4.01778C31.9324 1.77778 30.16 0 27.9622 0ZM20.2344 5.86667C20.2344 5.26222 20.6953 4.8 21.2979 4.8C21.9005 4.8 22.3613 5.26222 22.3613 5.86667V20.1244C22.3613 20.7289 21.9005 21.1911 21.2979 21.1911C20.6953 21.1911 20.2344 20.7289 20.2344 20.1244V5.86667ZM14.9172 5.33333C14.9172 4.72889 15.378 4.26667 15.9806 4.26667C16.5832 4.26667 17.0441 4.72889 17.0441 5.33333V20.8C17.0441 21.4044 16.5832 21.8667 15.9806 21.8667C15.378 21.8667 14.9172 21.4044 14.9172 20.8V5.33333ZM9.5999 5.86667C9.5999 5.26222 10.0607 4.8 10.6633 4.8C11.266 4.8 11.7268 5.26222 11.7268 5.86667V20.1244C11.7268 20.7289 11.266 21.1911 10.6633 21.1911C10.0607 21.1911 9.5999 20.7289 9.5999 20.1244V5.86667ZM4.28263 8C4.28263 7.39556 4.74346 6.93333 5.34608 6.93333C5.9487 6.93333 6.40953 7.39556 6.40953 8V17.6C6.40953 18.2044 5.9487 18.6667 5.34608 18.6667C4.74346 18.6667 4.28263 18.2044 4.28263 17.6V8ZM27.3241 24.2844C27.1469 24.4267 23.2121 27.7333 15.9806 27.7333C8.74913 27.7333 4.81435 24.4267 4.63711 24.2844C4.17628 23.8933 4.14083 23.2178 4.53076 22.7911C4.9207 22.3289 5.59422 22.2933 6.0196 22.6844C6.0905 22.6844 9.5999 25.6 15.9806 25.6C22.4322 25.6 25.9062 22.6844 25.9062 22.6489C26.367 22.2578 27.0405 22.3289 27.395 22.7556C27.8204 23.2178 27.7495 23.8933 27.3241 24.2844ZM27.6786 17.6C27.6786 18.2044 27.2178 18.6667 26.6152 18.6667C26.0125 18.6667 25.5517 18.2044 25.5517 17.6V8C25.5517 7.39556 26.0125 6.93333 26.6152 6.93333C27.2178 6.93333 27.6786 7.39556 27.6786 8V17.6Z" fill="#58526F"/>
</g>
<defs>
<clipPath id="clip0">
<rect width="124.235" height="32" fill="white"/>
</clipPath>
</defs>
</svg>
