<svg width="110" height="30" viewBox="0 0 110 30" fill="none" xmlns="http://www.w3.org/2000/svg">
<g clip-path="url(#clip0)">
<path d="M15.1253 27.8207C13.4706 28.1113 11.7868 28.1984 10.0449 28.4305L4.73204 12.8698V29.0983C3.07731 29.2724 1.56771 29.5047 0 29.7369V0.00878906H4.41289L10.4513 16.8763V0.00878906H15.1253V27.8207ZM24.2703 10.8956C26.0703 10.8956 28.8283 10.8084 30.483 10.8084V15.4534C28.4217 15.4534 26.0122 15.4534 24.2703 15.5405V22.4501C26.9993 22.2759 29.7283 22.0435 32.4861 21.9564V26.4269L19.6251 27.4433V0.00878906H32.4861V4.65382H24.2703V10.8956ZM49.7597 4.65393H44.9406V26.021C43.3729 26.021 41.8052 26.021 40.2958 26.0789V4.65393H35.4766V0.00878906H49.76L49.7597 4.65393ZM57.3079 10.5763H63.6658V15.2212H57.3079V25.7597H52.7496V0.00878906H65.727V4.65382H57.3079V10.5763ZM73.2751 21.6952C75.9171 21.7531 78.5878 21.9567 81.1717 22.1016V26.6886C77.0203 26.4272 72.8688 26.1662 68.6302 26.0789V0.00878906H73.2751V21.6952ZM85.0909 27.008C86.5715 27.0952 88.1392 27.1823 89.6488 27.3563V0.00878906H85.0909V27.008ZM110 0.00878906L104.107 14.1471L110 29.7369C108.258 29.5047 106.516 29.1853 104.774 28.895L101.436 20.3019L98.0393 28.1984C96.3552 27.9079 94.7294 27.8207 93.0459 27.5885L99.0263 13.9728L93.6263 0.00878906H98.6195L101.668 7.81825L104.919 0.00878906H110Z" fill="#D81F26"/>
</g>
<defs>
<clipPath id="clip0">
<rect width="110" height="29.744" fill="white"/>
</clipPath>
</defs>
</svg>
