<svg width="120" height="29" viewBox="0 0 120 29" fill="none" xmlns="http://www.w3.org/2000/svg">
<g clip-path="url(#clip0)">
<path d="M23.5597 11.8018C22.7512 11.8018 22.1129 12.4968 22.1129 13.3621C22.1129 14.2273 22.7654 14.9224 23.5597 14.9224C24.3682 14.9224 25.0065 14.2273 25.0065 13.3621C25.0065 12.4968 24.354 11.8018 23.5597 11.8018ZM18.3824 11.8018C17.5739 11.8018 16.9355 12.4968 16.9355 13.3621C16.9355 14.2273 17.588 14.9224 18.3824 14.9224C19.1909 14.9224 19.8292 14.2273 19.8292 13.3621C19.8434 12.4968 19.1909 11.8018 18.3824 11.8018Z" fill="#7289DA"/>
<path d="M30.4542 0H11.4469C9.84404 0 8.53906 1.30498 8.53906 2.90784V21.9152C8.53906 23.518 9.84404 24.823 11.4469 24.823H27.5322L26.7804 22.2272L28.596 23.901L30.3124 25.4755L33.3762 28.128V2.90784C33.3621 1.30498 32.0571 0 30.4542 0ZM24.979 18.369C24.979 18.369 24.4683 17.7591 24.0428 17.2342C25.901 16.7094 26.6102 15.5605 26.6102 15.5605C26.0286 15.9435 25.4754 16.213 24.979 16.3974C24.2697 16.6952 23.5889 16.8796 22.9222 17.0073C21.5605 17.2626 20.3123 17.1917 19.2484 16.9931C18.4399 16.8371 17.7448 16.6243 17.1633 16.3832C16.837 16.2555 16.4824 16.0995 16.1278 15.9009C16.0853 15.8725 16.0427 15.8583 16.0001 15.83C15.9718 15.8158 15.9576 15.8016 15.9434 15.8016C15.6881 15.6598 15.5462 15.5605 15.5462 15.5605C15.5462 15.5605 16.2271 16.6811 18.0285 17.2201C17.603 17.7591 17.0782 18.3832 17.0782 18.3832C13.9434 18.2839 12.7519 16.2413 12.7519 16.2413C12.7519 11.7165 14.7945 8.04265 14.7945 8.04265C16.837 6.5249 18.7661 6.56745 18.7661 6.56745L18.908 6.73767C16.3548 7.46108 15.1916 8.58166 15.1916 8.58166C15.1916 8.58166 15.5037 8.41145 16.0285 8.18449C17.5463 7.51782 18.752 7.34761 19.2484 7.29087C19.3335 7.27668 19.4044 7.2625 19.4895 7.2625C20.3548 7.14902 21.3335 7.12065 22.3548 7.23413C23.7024 7.39016 25.1492 7.78733 26.6244 8.58166C26.6244 8.58166 25.5038 7.51782 23.0924 6.79441L23.291 6.56745C23.291 6.56745 25.2343 6.5249 27.2627 8.04265C27.2627 8.04265 29.3053 11.7165 29.3053 16.2413C29.3053 16.2271 28.1138 18.2697 24.979 18.369ZM46.3977 6.07099H41.6884V11.3618L44.8232 14.1846V9.04975H46.497C47.5608 9.04975 48.0856 9.5604 48.0856 10.3831V14.3122C48.0856 15.1349 47.5892 15.6881 46.497 15.6881H41.6742V18.6811H46.3835C48.9083 18.6953 51.2772 17.4328 51.2772 14.5392V10.3122C51.2914 7.36179 48.9225 6.07099 46.3977 6.07099ZM71.0788 14.5392V10.1987C71.0788 8.6384 73.8874 8.28379 74.7384 9.84409L77.3342 8.79443C76.3129 6.55327 74.4548 5.90078 72.9086 5.90078C70.3838 5.90078 67.8873 7.36179 67.8873 10.1987V14.5392C67.8873 17.4045 70.3838 18.8371 72.8519 18.8371C74.4406 18.8371 76.3413 18.057 77.391 16.0144L74.6108 14.7378C73.9299 16.4825 71.0788 16.0569 71.0788 14.5392ZM62.4972 10.7945C61.5184 10.5817 60.8659 10.2271 60.8234 9.61714C60.8801 8.15613 63.1355 8.09939 64.4546 9.50366L66.5398 7.9008C65.2348 6.31213 63.7596 5.8866 62.2418 5.8866C59.9298 5.8866 57.6886 7.19158 57.6886 9.65969C57.6886 12.0569 59.5326 13.3477 61.561 13.6597C62.5965 13.8016 63.7454 14.2129 63.717 14.9222C63.6319 16.2697 60.8518 16.1988 59.5893 14.6668L57.5751 16.5534C58.7524 18.0711 60.3553 18.8371 61.8589 18.8371C64.1709 18.8371 66.7383 17.5038 66.8376 15.064C66.9795 11.986 64.7383 11.2058 62.4972 10.7945ZM52.9935 18.6669H56.1708V6.07099H52.9935V18.6669ZM106.569 6.07099H101.859V11.3618L104.994 14.1846V9.04975H106.668C107.732 9.04975 108.257 9.5604 108.257 10.3831V14.3122C108.257 15.1349 107.76 15.6881 106.668 15.6881H101.845V18.6811H106.569C109.093 18.6953 111.462 17.4328 111.462 14.5392V10.3122C111.462 7.36179 109.093 6.07099 106.569 6.07099ZM83.4619 5.90078C80.852 5.90078 78.2562 7.31924 78.2562 10.2271V14.525C78.2562 17.4045 80.8662 18.8513 83.4903 18.8513C86.1003 18.8513 88.6961 17.4045 88.6961 14.525V10.2271C88.6961 7.33342 86.0719 5.90078 83.4619 5.90078ZM85.5045 14.525C85.5045 15.4328 84.4832 15.9009 83.4761 15.9009C82.4548 15.9009 81.4336 15.4612 81.4336 14.525V10.2271C81.4336 9.30508 82.4265 8.80862 83.4194 8.80862C84.4549 8.80862 85.5045 9.24834 85.5045 10.2271V14.525ZM100.1 10.2271C100.03 7.27668 98.0153 6.08518 95.4195 6.08518H90.384V18.6811H93.6039V14.681H94.1713L97.0933 18.6811H101.065L97.6323 14.3548C99.1501 13.8725 100.1 12.5533 100.1 10.2271ZM95.4763 11.9292H93.6039V9.04975H95.4763C97.4763 9.04975 97.4763 11.9292 95.4763 11.9292Z" fill="#7289DA"/>
</g>
<defs>
<clipPath id="clip0">
<rect width="120" height="28.128" fill="white"/>
</clipPath>
</defs>
</svg>
