<svg width="92" height="28" viewBox="0 0 92 28" fill="none" xmlns="http://www.w3.org/2000/svg">
<path d="M11.9409 25.252C9.86894 25.252 8.05827 24.832 6.50894 23.992C4.97827 23.1333 3.79294 21.9293 2.95294 20.38C2.1316 18.8307 1.72094 17.0387 1.72094 15.004C1.72094 12.988 2.1316 11.2147 2.95294 9.684C3.79294 8.13467 4.97827 6.94 6.50894 6.1C8.05827 5.24133 9.86894 4.812 11.9409 4.812C13.2476 4.812 14.5076 5.008 15.7209 5.4C16.9529 5.792 17.9423 6.324 18.6889 6.996L17.0929 10.72C15.4689 9.544 13.7889 8.956 12.0529 8.956C10.4476 8.956 9.2156 9.46933 8.35694 10.496C7.49827 11.504 7.06894 13.0067 7.06894 15.004C7.06894 17.02 7.49827 18.5413 8.35694 19.568C9.2156 20.5947 10.4476 21.108 12.0529 21.108C13.7889 21.108 15.4689 20.52 17.0929 19.344L18.6889 23.068C17.9423 23.74 16.9529 24.272 15.7209 24.664C14.5076 25.056 13.2476 25.252 11.9409 25.252ZM28.0355 25.224C26.4488 25.224 25.0675 24.9253 23.8915 24.328C22.7155 23.7307 21.8101 22.872 21.1755 21.752C20.5408 20.632 20.2235 19.316 20.2235 17.804C20.2235 16.292 20.5408 14.976 21.1755 13.856C21.8101 12.736 22.7155 11.8773 23.8915 11.28C25.0675 10.6827 26.4488 10.384 28.0355 10.384C29.6035 10.384 30.9661 10.692 32.1235 11.308C33.2995 11.9053 34.2048 12.764 34.8395 13.884C35.4741 14.9853 35.7915 16.292 35.7915 17.804C35.7915 19.316 35.4741 20.632 34.8395 21.752C34.2048 22.8533 33.2995 23.712 32.1235 24.328C30.9661 24.9253 29.6035 25.224 28.0355 25.224ZM28.0355 21.444C29.8648 21.444 30.7795 20.2307 30.7795 17.804C30.7795 16.572 30.5461 15.6667 30.0795 15.088C29.6315 14.4907 28.9501 14.192 28.0355 14.192C27.1021 14.192 26.4021 14.4907 25.9355 15.088C25.4688 15.6667 25.2355 16.572 25.2355 17.804C25.2355 19.0547 25.4688 19.9787 25.9355 20.576C26.4021 21.1547 27.1021 21.444 28.0355 21.444ZM53.1561 10.776V25H48.1721V23.068C47.7614 23.74 47.1641 24.272 46.3801 24.664C45.5961 25.0373 44.7374 25.224 43.8041 25.224C42.5907 25.224 41.5081 24.9253 40.5561 24.328C39.6041 23.7307 38.8574 22.8813 38.3161 21.78C37.7934 20.66 37.5321 19.372 37.5321 17.916C37.5321 16.4413 37.8027 15.1347 38.3441 13.996C38.8854 12.8573 39.6321 11.9707 40.5841 11.336C41.5361 10.7013 42.6094 10.384 43.8041 10.384C44.7374 10.384 45.5867 10.5893 46.3521 11C47.1361 11.392 47.7427 11.924 48.1721 12.596V10.776H53.1561ZM45.3721 21.444C46.2681 21.444 46.9587 21.136 47.4441 20.52C47.9294 19.904 48.1721 19.0173 48.1721 17.86C48.1721 16.684 47.9294 15.788 47.4441 15.172C46.9587 14.5373 46.2681 14.22 45.3721 14.22C44.4947 14.22 43.8041 14.5467 43.3001 15.2C42.7961 15.8347 42.5441 16.74 42.5441 17.916C42.5441 19.0547 42.7867 19.932 43.2721 20.548C43.7574 21.1453 44.4574 21.444 45.3721 21.444ZM63.2243 25.224C60.8163 25.224 58.9309 24.5707 57.5683 23.264C56.2056 21.9573 55.5243 20.1747 55.5243 17.916C55.5243 16.4227 55.8509 15.1067 56.5042 13.968C57.1763 12.8293 58.1096 11.952 59.3043 11.336C60.4989 10.7013 61.8803 10.384 63.4483 10.384C64.4936 10.384 65.5203 10.5427 66.5283 10.86C67.5363 11.1587 68.3389 11.5693 68.9363 12.092L67.6483 15.592C67.1443 15.1813 66.5563 14.8547 65.8843 14.612C65.2123 14.3693 64.5683 14.248 63.9523 14.248C62.9069 14.248 62.1043 14.5467 61.5443 15.144C60.9843 15.7413 60.7043 16.628 60.7043 17.804C60.7043 18.9987 60.9843 19.904 61.5443 20.52C62.1043 21.1173 62.9163 21.416 63.9803 21.416C64.5963 21.416 65.2309 21.2947 65.8843 21.052C66.5563 20.8093 67.1443 20.4827 67.6483 20.072L68.9363 23.516C68.3203 24.0573 67.4989 24.4773 66.4723 24.776C65.4643 25.0747 64.3816 25.224 63.2243 25.224ZM80.0984 10.384C81.7784 10.384 83.0291 10.8973 83.8504 11.924C84.6904 12.932 85.1104 14.4627 85.1104 16.516V25H80.0424V16.74C80.0424 15.8627 79.8931 15.2373 79.5944 14.864C79.2957 14.472 78.8291 14.276 78.1944 14.276C77.4291 14.276 76.8131 14.5373 76.3464 15.06C75.8797 15.564 75.6464 16.236 75.6464 17.076V25H70.5784V4.392H75.6464V12.512C76.7477 11.0933 78.2317 10.384 80.0984 10.384Z" fill="#1E1835"/>
<circle cx="90" cy="23" r="2" fill="#FF5938"/>
</svg>
