<svg width="110" height="35" viewBox="0 0 110 35" fill="none" xmlns="http://www.w3.org/2000/svg">
<path d="M57.9721 8.62575C57.9721 9.86302 56.9755 10.8593 55.7386 10.8593C54.5018 10.8593 53.5058 9.86302 53.5058 8.62575C53.5058 7.38847 54.4678 6.3922 55.7386 6.3922C57.0105 6.42653 57.9721 7.42315 57.9721 8.62575ZM48.765 13.1279V13.6778C48.765 13.6778 47.7004 12.3025 45.4329 12.3025C41.6887 12.3025 38.7681 15.1551 38.7681 19.1069C38.7681 23.0247 41.6543 25.9112 45.4329 25.9112C47.7347 25.9112 48.765 24.5022 48.765 24.5022V25.0862C48.765 25.3612 48.9716 25.5668 49.2461 25.5668H52.0284V12.6452H49.2461C48.9716 12.6462 48.765 12.8872 48.765 13.1279ZM48.765 21.4094C48.2502 22.1657 47.2192 22.8187 45.9827 22.8187C43.7842 22.8187 42.1005 21.4441 42.1005 19.1069C42.1005 16.77 43.7842 15.3954 45.9827 15.3954C47.1852 15.3954 48.2845 16.0827 48.765 16.8043V21.4094ZM54.0899 12.6462H57.3877V25.5679H54.0899V12.6462ZM103.354 12.3022C101.086 12.3022 100.021 13.6775 100.021 13.6775V6.42653H96.7231V25.5679H99.5061C99.781 25.5679 99.9865 25.3272 99.9865 25.0865V24.5026C99.9865 24.5026 101.052 25.9115 103.319 25.9115C107.064 25.9115 109.983 23.0257 109.983 19.1079C109.983 15.1901 107.064 12.3022 103.354 12.3022ZM102.804 22.784C101.532 22.784 100.536 22.1317 100.021 21.3751V16.77C100.536 16.0827 101.636 15.361 102.804 15.361C105.002 15.361 106.686 16.7356 106.686 19.0725C106.686 21.4094 105.003 22.784 102.804 22.784ZM95.0058 17.9046V25.6022H91.7073V18.2822C91.7073 16.152 91.0203 15.2924 89.1663 15.2924C88.1704 15.2924 87.1394 15.808 86.4856 16.5643V25.5682H83.1886V12.6465H85.7986C86.0735 12.6465 86.2797 12.8872 86.2797 13.1279V13.6778C87.2417 12.6809 88.5125 12.3025 89.7834 12.3025C91.2265 12.3025 92.4291 12.7155 93.391 13.5402C94.5586 14.5024 95.0058 15.7394 95.0058 17.9046ZM75.1829 12.3022C72.9161 12.3022 71.8509 13.6775 71.8509 13.6775V6.42653H68.5531V25.5679H71.3354C71.6103 25.5679 71.8165 25.3272 71.8165 25.0865V24.5026C71.8165 24.5026 72.8818 25.9115 75.1486 25.9115C78.8935 25.9115 81.8134 23.0257 81.8134 19.1079C81.8477 15.1897 78.9279 12.3022 75.1829 12.3022ZM74.6331 22.784C73.3623 22.784 72.3664 22.1317 71.8509 21.3751V16.77C72.3664 16.0827 73.4656 15.361 74.6331 15.361C76.8323 15.361 78.5153 16.7356 78.5153 19.0725C78.5153 21.4094 76.8323 22.784 74.6331 22.784ZM65.7015 12.3022C66.6975 12.3022 67.213 12.4745 67.213 12.4745V15.5327C67.213 15.5327 64.4647 14.6047 62.7473 16.564V25.6018H59.4489V12.6462H62.2319C62.5068 12.6462 62.7123 12.8869 62.7123 13.1275V13.6775C63.3314 12.9555 64.6713 12.3022 65.7015 12.3022ZM31.4512 24.3993C31.2796 23.9869 31.1077 23.5403 30.9361 23.162C30.6608 22.5437 30.3859 21.959 30.146 21.4094L30.1117 21.3751C27.7409 16.22 25.1993 10.997 22.5193 5.84257L22.4163 5.6359C22.1344 5.10119 21.8597 4.56273 21.5923 4.02065C21.2484 3.40167 20.9052 2.74939 20.3554 2.13041C19.2562 0.755813 17.6758 -0.000488281 15.9928 -0.000488281C14.2747 -0.000488281 12.729 0.755817 11.5958 2.06141C11.0803 2.6797 10.7021 3.33267 10.3589 3.95165C10.0908 4.49339 9.8161 5.03184 9.53489 5.5669L9.4316 5.77356C6.78626 10.9279 4.20991 16.1513 1.83948 21.3061L1.80482 21.3744C1.56458 21.9251 1.28934 22.509 1.01444 23.127C0.842845 23.5053 0.671249 23.9176 0.499652 24.3642C0.0528149 25.6355 -0.0848122 26.8384 0.0874707 28.076C0.465326 30.6536 2.18266 32.8178 4.55344 33.7808C5.44677 34.1591 6.37443 34.3307 7.33605 34.3307C7.61095 34.3307 7.95415 34.2964 8.22939 34.2617C9.3633 34.1244 10.5312 33.7468 11.6651 33.0938C13.0736 32.3032 14.4134 31.1696 15.9248 29.52C17.4362 31.1696 18.8104 32.3032 20.1845 33.0938C21.3188 33.7468 22.4863 34.1244 23.6199 34.2617C23.8948 34.2967 24.2387 34.3307 24.5136 34.3307C25.4755 34.3307 26.4372 34.1591 27.2958 33.7808C29.7009 32.8178 31.3839 30.6193 31.7621 28.076C32.035 26.8735 31.8977 25.6712 31.4512 24.3993ZM15.9581 26.1862C14.1028 23.8493 12.9002 21.6501 12.4884 19.7948C12.3168 19.0042 12.2822 18.3169 12.3855 17.6983C12.4538 17.1483 12.6604 16.667 12.9352 16.2547C13.588 15.3274 14.6873 14.7428 15.9584 14.7428C17.23 14.7428 18.3635 15.2927 18.982 16.2547C19.2569 16.667 19.4628 17.1486 19.5321 17.6983C19.6347 18.3173 19.6004 19.0385 19.4288 19.7948C19.0153 21.6157 17.8127 23.8153 15.9581 26.1862ZM29.6645 27.8014C29.4243 29.5883 28.2218 31.1352 26.5387 31.8225C25.7144 32.1658 24.8207 32.2692 23.9281 32.1658C23.0694 32.0625 22.21 31.7875 21.3174 31.2726C20.0805 30.5846 18.844 29.52 17.4009 27.9387C19.668 25.1555 21.0422 22.612 21.5576 20.3445C21.7982 19.2789 21.8329 18.3169 21.7292 17.4229C21.5923 16.564 21.2827 15.7734 20.8019 15.0861C19.7363 13.5391 17.9496 12.6462 15.9578 12.6462C13.9659 12.6462 12.1792 13.5741 11.1143 15.0861C10.6335 15.7734 10.3239 16.564 10.1866 17.4229C10.0493 18.3169 10.0833 19.3132 10.3582 20.3445C10.8733 22.612 12.2818 25.1895 14.5146 27.9731C13.1062 29.554 11.835 30.6196 10.5981 31.3069C9.70477 31.8225 8.84645 32.0975 7.98778 32.2002C7.06047 32.3035 6.1668 32.1658 5.37677 31.8569C3.69375 31.1696 2.4912 29.6226 2.25097 27.8357C2.14801 26.9768 2.2163 26.1178 2.56018 25.1555C2.6628 24.8116 2.83508 24.4683 3.00668 24.0559C3.24725 23.506 3.52147 22.9213 3.79671 22.3374L3.83137 22.269C6.20146 17.1483 8.74349 11.9249 11.3888 6.83918L11.4918 6.63252C11.767 6.11756 12.0419 5.56758 12.3165 5.05194C12.5914 4.50196 12.9002 3.98632 13.2784 3.53933C13.9998 2.7154 14.9615 2.26807 16.0267 2.26807C17.092 2.26807 18.0536 2.7154 18.775 3.53933C19.1532 3.98735 19.4621 4.50299 19.737 5.05194C20.0122 5.56758 20.2871 6.11756 20.5613 6.63252L20.6646 6.83918C23.2696 11.946 25.7779 17.1017 28.1881 22.3034V22.3377C28.4634 22.8884 28.7036 23.5063 28.9785 24.057C29.1501 24.4686 29.322 24.8119 29.425 25.1559C29.6992 26.0485 29.8022 26.9081 29.6645 27.8014Z" fill="#FF5A5F"/>
</svg>
