<svg width="120" height="31" viewBox="0 0 120 31" fill="none" xmlns="http://www.w3.org/2000/svg">
<g clip-path="url(#clip0)">
<path d="M40.8757 19.8592V10.9568C40.8757 10.409 41.3208 9.96384 41.8686 9.96384C42.4165 9.96384 42.8616 10.409 42.8616 10.9568V19.8592C42.8616 20.407 42.4165 20.8522 41.8686 20.8522C41.355 20.8522 40.8757 20.407 40.8757 19.8592ZM52.2433 20.2358L47.9291 13.3536V19.8592C47.9291 20.407 47.484 20.8522 46.9361 20.8522C46.3883 20.8522 45.9432 20.407 45.9432 19.8592V11.2307C45.9432 10.5117 46.5253 9.89536 47.2785 9.89536H47.347C47.7921 9.89536 48.2373 10.135 48.4769 10.5117L52.7569 17.2912V10.8883C52.7569 10.3405 53.2021 9.89536 53.7499 9.89536C54.2977 9.89536 54.7429 10.3405 54.7429 10.8883V19.5168C54.7429 20.2358 54.1608 20.8522 53.4075 20.8522C52.9281 20.8522 52.483 20.6467 52.2433 20.2358ZM61.6593 11.8128V19.9619C61.6593 20.4755 61.2485 20.8864 60.7349 20.8864H60.5979C60.0843 20.8864 59.6734 20.4755 59.6734 19.9619V11.8128H57.3793C56.8657 11.8128 56.4549 11.4019 56.4549 10.8883C56.4549 10.3747 56.8657 9.96384 57.3793 9.96384H63.9877C64.5013 9.96384 64.9121 10.3747 64.9121 10.8883C64.9121 11.4019 64.5013 11.8128 63.9877 11.8128H61.6593ZM66.4872 19.9619V10.8198C66.4872 10.3405 66.8981 9.9296 67.3774 9.9296H73.3694C73.8488 9.9296 74.2597 10.3405 74.2597 10.8198C74.2597 11.2992 73.8488 11.7101 73.3694 11.7101H68.4731V14.2438H72.6846C73.164 14.2438 73.5749 14.6547 73.5749 15.1341C73.5749 15.6134 73.164 16.0243 72.6846 16.0243H68.4731V19.0032H73.3694C73.8488 19.0032 74.2597 19.4141 74.2597 19.8934C74.2597 20.3728 73.8488 20.7837 73.3694 20.7837H67.3774C66.8981 20.8522 66.4872 20.4755 66.4872 19.9619ZM82.6485 20.2701L81.0734 16.7434H78.6424V19.8934C78.6424 20.4413 78.1973 20.8864 77.6494 20.8864H77.6152C77.0674 20.8864 76.6222 20.4413 76.6222 19.8934V10.9568C76.6222 10.409 77.0674 9.96384 77.6152 9.96384H81.2446C83.8469 9.96384 85.0453 11.6074 85.0453 13.3536C85.0453 14.8259 84.2577 15.9558 83.0593 16.401L84.4289 19.4826C84.7029 20.1331 84.2577 20.8522 83.5387 20.8522C83.1621 20.8522 82.7854 20.6467 82.6485 20.2701ZM81.2789 11.6758H78.6766V14.9286H81.3131C82.443 14.9286 83.0936 14.3466 83.0936 13.3194C83.0593 12.4634 82.4088 11.6758 81.2789 11.6758ZM94.4955 19.7565C93.6737 20.5782 92.5438 21.0576 91.3797 21.0576C90.2155 21.0576 89.1198 20.681 88.2981 19.825C87.0997 18.6266 86.9285 17.1885 86.9285 15.408C86.9285 13.6275 87.0997 12.1552 88.2981 10.991C89.1198 10.1693 90.2155 9.7584 91.3797 9.7584C92.5438 9.7584 93.6737 10.2035 94.4955 11.0253C94.7694 11.3334 95.0091 11.6416 95.1803 12.0182C95.4885 12.6688 95.0091 13.3878 94.2901 13.3878C93.8792 13.3878 93.5368 13.1482 93.3656 12.7715C93.2971 12.5661 93.1601 12.3949 93.0232 12.2237C92.6808 11.7786 92.0645 11.5389 91.3797 11.5389C90.7633 11.5389 90.147 11.8128 89.7019 12.2579C88.9486 13.0454 88.9486 14.3808 88.9486 15.408C88.9486 16.401 88.9486 17.7706 89.7019 18.5581C90.147 19.0032 90.7633 19.2771 91.3797 19.2771C92.0645 19.2771 92.6808 19.0374 93.0232 18.5923C93.1601 18.4211 93.2971 18.2157 93.3656 18.0102C93.5025 17.6336 93.8792 17.3939 94.2901 17.3939C95.0091 17.3939 95.4885 18.113 95.1803 18.7635C95.0091 19.1402 94.7694 19.4826 94.4955 19.7565ZM105.144 19.825C104.322 20.6467 103.158 21.0576 101.994 21.0576C100.83 21.0576 99.7 20.6467 98.844 19.825C97.6456 18.6266 97.4744 17.1885 97.4744 15.408C97.4744 13.6275 97.6798 12.1552 98.844 10.991C99.6657 10.1693 100.83 9.7584 101.994 9.7584C103.158 9.7584 104.288 10.1693 105.144 10.991C106.343 12.1894 106.514 13.6275 106.514 15.408C106.548 17.1885 106.343 18.6608 105.144 19.825ZM103.74 12.2922C103.295 11.847 102.645 11.5731 102.028 11.5731C101.412 11.5731 100.727 11.847 100.316 12.2922C99.563 13.0797 99.5288 14.415 99.5288 15.4422C99.5288 16.4352 99.563 17.7706 100.316 18.5581C100.761 19.0032 101.412 19.2771 102.028 19.2771C102.645 19.2771 103.329 19.0032 103.74 18.5581C104.494 17.7706 104.528 16.4352 104.528 15.4422C104.528 14.415 104.494 13.0454 103.74 12.2922ZM118.053 19.8934V13.0797L115.485 20.0304C115.348 20.4413 114.937 20.7152 114.492 20.7152C114.047 20.7152 113.67 20.4413 113.499 20.0304L110.931 12.977V19.8934C110.931 20.4413 110.486 20.8522 109.972 20.8522C109.424 20.8522 109.013 20.407 109.013 19.8934V11.4362C109.013 10.6144 109.698 9.9296 110.52 9.9296H110.657C111.273 9.9296 111.855 10.3062 112.061 10.9226L114.56 17.7021L117.094 10.9226C117.299 10.3405 117.881 9.9296 118.498 9.9296C119.32 9.9296 120.004 10.6144 120.004 11.4362V19.8934C120.004 20.4413 119.559 20.8522 119.046 20.8522C118.464 20.8522 118.053 20.4413 118.053 19.8934ZM27.0085 0H3.89646C1.73934 0 0.0273438 1.712 0.0273438 3.83488V26.9469C0.0273438 29.104 1.73934 30.816 3.89646 30.816H27.0085C29.1313 30.816 30.8433 29.104 30.8433 26.9811V3.86912C30.8433 1.712 29.1313 0 27.0085 0ZM19.5441 5.6496C19.5441 5.06752 19.9893 4.6224 20.5713 4.6224C21.1534 4.6224 21.5985 5.06752 21.5985 5.6496V19.3798C21.5985 19.9619 21.1534 20.407 20.5713 20.407C19.9893 20.407 19.5441 19.9619 19.5441 19.3798V5.6496ZM14.4081 5.136C14.4081 4.55392 14.8533 4.1088 15.4353 4.1088C16.0174 4.1088 16.4625 4.55392 16.4625 5.136V20.0304C16.4625 20.6125 16.0174 21.0576 15.4353 21.0576C14.8533 21.0576 14.4081 20.6125 14.4081 20.0304V5.136ZM9.27214 5.6496C9.27214 5.06752 9.71726 4.6224 10.2993 4.6224C10.8814 4.6224 11.3265 5.06752 11.3265 5.6496V19.3798C11.3265 19.9619 10.8814 20.407 10.2993 20.407C9.71726 20.407 9.27214 19.9619 9.27214 19.3798V5.6496ZM4.13614 7.704C4.13614 7.12192 4.58126 6.6768 5.16334 6.6768C5.74542 6.6768 6.19054 7.12192 6.19054 7.704V16.9488C6.19054 17.5309 5.74542 17.976 5.16334 17.976C4.58126 17.976 4.13614 17.5309 4.13614 16.9488V7.704ZM26.3921 23.3859C26.2209 23.5229 22.4203 26.7072 15.4353 26.7072C8.45038 26.7072 4.64974 23.5229 4.47854 23.3859C4.03342 23.0093 3.99918 22.3587 4.37582 21.9478C4.75246 21.5027 5.40302 21.4685 5.8139 21.8451C5.88238 21.8451 9.27214 24.6528 15.4353 24.6528C21.667 24.6528 25.0225 21.8451 25.0225 21.8109C25.4677 21.4342 26.1182 21.5027 26.4606 21.9136C26.8715 22.3587 26.803 23.0093 26.3921 23.3859ZM26.7345 16.9488C26.7345 17.5309 26.2894 17.976 25.7073 17.976C25.1253 17.976 24.6801 17.5309 24.6801 16.9488V7.704C24.6801 7.12192 25.1253 6.6768 25.7073 6.6768C26.2894 6.6768 26.7345 7.12192 26.7345 7.704V16.9488Z" fill="black"/>
</g>
<defs>
<clipPath id="clip0">
<rect width="120" height="30.816" fill="white"/>
</clipPath>
</defs>
</svg>
