<svg width="120" height="39" viewBox="0 0 120 39" fill="none" xmlns="http://www.w3.org/2000/svg">
<path d="M24.7838 7.65641C23.5044 6.19824 21.1919 5.57309 18.2335 5.57309H9.64729C9.35443 5.57294 9.07114 5.67731 8.84838 5.86743C8.62562 6.05755 8.47802 6.32092 8.43216 6.61016L4.85858 29.2858C4.84201 29.391 4.84844 29.4986 4.87743 29.601C4.90642 29.7035 4.95728 29.7985 5.02651 29.8794C5.09574 29.9603 5.18168 30.0253 5.27842 30.0698C5.37517 30.1143 5.48041 30.1373 5.5869 30.1372H10.8877L12.219 21.6932L12.1777 21.9576C12.2227 21.6689 12.3693 21.4058 12.5911 21.2157C12.8129 21.0255 13.0953 20.9208 13.3875 20.9205H15.9064C20.8548 20.9205 24.7295 18.9106 25.8613 13.0962C25.895 12.9243 25.924 12.7569 25.9492 12.5934C26.2855 10.4443 25.9469 8.9816 24.7845 7.65717" fill="#003087"/>
<path d="M89.6748 18.4466C89.3507 20.5742 87.726 20.5742 86.1547 20.5742H85.2605L85.888 16.6017C85.9262 16.3617 86.1325 16.1852 86.3756 16.1852H86.786C87.8559 16.1852 88.8662 16.1852 89.3874 16.7943C89.6984 17.1588 89.7924 17.6999 89.6748 18.4466ZM88.9908 12.8951H83.0634C82.8671 12.8952 82.6772 12.9653 82.5279 13.0928C82.3786 13.2202 82.2796 13.3967 82.2487 13.5906L79.8536 28.789C79.8426 28.8594 79.8469 28.9314 79.8663 29.0001C79.8858 29.0687 79.9198 29.1323 79.9661 29.1865C80.0124 29.2408 80.0699 29.2843 80.1347 29.3142C80.1994 29.3442 80.2699 29.3597 80.3412 29.3599H83.3828C83.6664 29.3599 83.9079 29.1535 83.9522 28.8738L84.6323 24.5635C84.695 24.1638 85.0404 23.8681 85.4455 23.8681H87.3209C91.2261 23.8681 93.4791 21.9796 94.0676 18.2341C94.3328 16.5971 94.0783 15.3101 93.3117 14.4091C92.4688 13.4187 90.9747 12.8944 88.9915 12.8944" fill="#009CDE"/>
<path d="M47.3976 18.4463C47.0736 20.5739 45.4488 20.5739 43.8768 20.5739H42.9826L43.61 16.6014C43.6482 16.3615 43.8546 16.1849 44.0976 16.1849H44.508C45.5779 16.1849 46.5883 16.1849 47.1095 16.794C47.4213 17.1586 47.5153 17.6996 47.3976 18.4463ZM46.7136 12.8949H40.7862C40.3811 12.8949 40.0357 13.1899 39.9723 13.5903L37.5764 28.7887C37.5652 28.8592 37.5695 28.9313 37.5889 28.9999C37.6082 29.0686 37.6423 29.1323 37.6886 29.1865C37.7349 29.2408 37.7925 29.2844 37.8573 29.3142C37.9221 29.3441 37.9926 29.3596 38.064 29.3596H40.8947C41.2997 29.3596 41.6444 29.0646 41.7078 28.6641L42.3552 24.564C42.4178 24.1636 42.7633 23.8686 43.1683 23.8686H45.0437C48.949 23.8686 51.202 21.9794 51.7904 18.2338C52.0556 16.5968 51.8011 15.3099 51.0346 14.4088C50.1916 13.4184 48.6976 12.8941 46.7144 12.8941L46.7136 12.8949ZM60.4752 23.9029C60.2001 25.5247 58.9139 26.6137 57.2715 26.6137C56.4484 26.6137 55.7889 26.3485 55.3655 25.8472C54.9452 25.3504 54.7878 24.642 54.9207 23.854C55.176 22.2461 56.4844 21.1227 58.1015 21.1227C58.9078 21.1227 59.5612 21.3901 59.9937 21.8961C60.4286 22.4058 60.5998 23.1181 60.4752 23.9029ZM64.4309 18.3775H61.5925C61.4745 18.3774 61.3604 18.4194 61.2707 18.4961C61.181 18.5728 61.1216 18.679 61.1034 18.7955L60.9796 19.5888L60.7809 19.3015C60.1665 18.4096 58.7962 18.1108 57.4282 18.1108C54.2925 18.1108 51.6139 20.4876 51.0927 23.8196C50.8214 25.4834 51.2065 27.0722 52.1496 28.1811C53.0155 29.1999 54.2513 29.624 55.7239 29.624C58.252 29.624 59.6537 28.0008 59.6537 28.0008L59.5268 28.7895C59.5156 28.86 59.5199 28.9321 59.5393 29.0009C59.5587 29.0696 59.5928 29.1333 59.6393 29.1876C59.6857 29.2419 59.7433 29.2854 59.8082 29.3152C59.8731 29.3451 59.9437 29.3605 60.0151 29.3604H62.5707C62.9758 29.3604 63.3212 29.0661 63.3847 28.6649L64.9192 18.9492C64.9303 18.8786 64.9259 18.8064 64.9064 18.7377C64.8869 18.669 64.8527 18.6053 64.8062 18.551C64.7597 18.4968 64.702 18.4532 64.6371 18.4234C64.5722 18.3936 64.5016 18.3782 64.4301 18.3783" fill="#003087"/>
<path d="M102.755 23.903C102.479 25.5247 101.193 26.6137 99.5509 26.6137C98.7278 26.6137 98.0683 26.3485 97.6449 25.8472C97.2245 25.3504 97.0671 24.642 97.2001 23.854C97.4553 22.2461 98.763 21.1227 100.381 21.1227C101.187 21.1227 101.841 21.3901 102.273 21.8961C102.708 22.4058 102.879 23.1181 102.755 23.903ZM106.71 18.3775H103.872C103.754 18.3774 103.64 18.4194 103.55 18.4961C103.46 18.5728 103.401 18.679 103.383 18.7956L103.259 19.5888L103.06 19.3015C102.446 18.4096 101.076 18.1108 99.7075 18.1108C96.5726 18.1108 93.894 20.4876 93.372 23.8197C93.1007 25.4834 93.4866 27.0722 94.4297 28.1811C95.2956 29.1999 96.5314 29.624 98.0041 29.624C100.533 29.624 101.935 28.0008 101.935 28.0008L101.808 28.7895C101.796 28.8599 101.8 28.932 101.82 29.0008C101.839 29.0695 101.873 29.1332 101.919 29.1875C101.965 29.2419 102.023 29.2854 102.088 29.3153C102.153 29.3451 102.223 29.3605 102.295 29.3604H104.849C105.254 29.3604 105.6 29.0661 105.664 28.6649L107.199 18.9492C107.21 18.8786 107.205 18.8064 107.186 18.7377C107.166 18.669 107.132 18.6053 107.086 18.551C107.039 18.4968 106.981 18.4532 106.917 18.4234C106.852 18.3936 106.781 18.3782 106.71 18.3783" fill="#009CDE"/>
<path d="M79.5479 18.3785H76.6942C76.4214 18.3785 76.1669 18.5138 76.014 18.74L72.0782 24.536L70.4099 18.9662C70.359 18.7963 70.2547 18.6474 70.1125 18.5414C69.9704 18.4354 69.7978 18.378 69.6205 18.3778H66.8165C66.7379 18.3778 66.6604 18.3966 66.5905 18.4326C66.5205 18.4685 66.4602 18.5207 66.4145 18.5846C66.3688 18.6486 66.3389 18.7225 66.3275 18.8003C66.3161 18.8781 66.3234 18.9575 66.3488 19.0319L69.4898 28.2532L66.5352 32.4221C66.483 32.4961 66.4522 32.5831 66.446 32.6734C66.4398 32.7638 66.4585 32.8541 66.5002 32.9345C66.5418 33.0149 66.6047 33.0824 66.6821 33.1295C66.7594 33.1766 66.8482 33.2016 66.9388 33.2017H69.7894C70.0584 33.2017 70.3113 33.0694 70.4657 32.8478L79.9529 19.1542C80.0044 19.0802 80.0347 18.9935 80.0404 18.9035C80.0461 18.8135 80.027 18.7236 79.9853 18.6437C79.9436 18.5638 79.8807 18.4968 79.8036 18.45C79.7265 18.4033 79.638 18.3786 79.5479 18.3785Z" fill="#003087"/>
<path d="M110.055 13.3129L107.621 28.7895C107.61 28.86 107.615 28.9321 107.634 29.0007C107.653 29.0694 107.688 29.1331 107.734 29.1873C107.78 29.2416 107.838 29.2851 107.903 29.315C107.968 29.3448 108.038 29.3603 108.11 29.3604H110.556C110.961 29.3604 111.306 29.0654 111.37 28.6649L113.769 13.4658C113.78 13.3952 113.776 13.3231 113.756 13.2544C113.737 13.1856 113.703 13.1219 113.656 13.0676C113.61 13.0134 113.552 12.9698 113.487 12.94C113.422 12.9102 113.352 12.8948 113.28 12.8949H110.543C110.425 12.8946 110.311 12.9365 110.221 13.013C110.132 13.0896 110.073 13.1957 110.055 13.3121" fill="#009CDE"/>
<path d="M24.7838 7.65641C23.5044 6.19824 21.1919 5.57309 18.2335 5.57309H9.64729C9.35443 5.57294 9.07114 5.67731 8.84838 5.86743C8.62562 6.05755 8.47802 6.32092 8.43216 6.61016L4.85858 29.2858C4.84201 29.391 4.84844 29.4986 4.87743 29.601C4.90642 29.7035 4.95728 29.7985 5.02651 29.8794C5.09574 29.9603 5.18168 30.0253 5.27842 30.0698C5.37517 30.1143 5.48041 30.1373 5.5869 30.1372H10.8877L12.219 21.6932L12.1777 21.9576C12.2227 21.6689 12.3693 21.4058 12.5911 21.2157C12.8129 21.0255 13.0953 20.9208 13.3875 20.9205H15.9064C20.8548 20.9205 24.7295 18.9106 25.8613 13.0962C25.895 12.9243 25.924 12.7569 25.9492 12.5934C26.2855 10.4443 25.9469 8.9816 24.7845 7.65717" fill="#003087"/>
<path d="M13.6478 12.6214C13.6879 12.3687 13.8169 12.1386 14.0114 11.9723C14.206 11.8061 14.4534 11.7146 14.7093 11.7143H21.4407C22.2378 11.7143 22.9814 11.7663 23.6608 11.8748C24.0323 11.9345 24.3998 12.0167 24.7613 12.1209C25.1719 12.2363 25.5692 12.3946 25.9467 12.5932C26.2845 10.4434 25.9451 8.98139 24.7827 7.6562C23.5026 6.1988 21.1908 5.57365 18.2324 5.57365H9.64547C9.35287 5.57386 9.06994 5.6784 8.84749 5.86848C8.62505 6.05857 8.47768 6.32174 8.43186 6.61073L4.85675 29.2841C4.84007 29.3893 4.84639 29.4968 4.87528 29.5994C4.90417 29.7019 4.95494 29.7969 5.0241 29.8779C5.09325 29.9589 5.17914 30.0239 5.27586 30.0685C5.37257 30.1131 5.4778 30.1362 5.5843 30.1362H10.8858L12.2171 21.6914L13.6478 12.6214Z" fill="#003087"/>
<path d="M25.9481 12.5925C25.9219 12.7606 25.8926 12.9283 25.8602 13.0954C24.7284 18.9089 20.8537 20.9196 15.9052 20.9196H13.3855C13.0934 20.9198 12.811 21.0245 12.5893 21.2146C12.3676 21.4048 12.2212 21.668 12.1765 21.9567L10.8865 30.1355L10.5197 32.4558C10.5051 32.5479 10.5106 32.6421 10.536 32.7318C10.5613 32.8216 10.6058 32.9048 10.6664 32.9757C10.727 33.0466 10.8022 33.1035 10.8869 33.1425C10.9716 33.1815 11.0638 33.2017 11.157 33.2017H15.6255C16.1544 33.2017 16.6038 32.8165 16.6871 32.2945L16.7306 32.0668L17.5728 26.7293L17.6263 26.4343C17.6663 26.1814 17.7953 25.9511 17.9901 25.7848C18.1848 25.6185 18.4325 25.5271 18.6886 25.5272H19.3573C23.6859 25.5272 27.0753 23.7694 28.0658 18.6827C28.4785 16.5581 28.2645 14.7828 27.1716 13.5363C26.8246 13.1499 26.41 12.83 25.9481 12.5925Z" fill="#009CDE"/>
<path d="M24.762 12.1208C24.5893 12.0696 24.4112 12.0237 24.2278 11.9832C24.0444 11.9427 23.8549 11.9068 23.6607 11.8762C22.9806 11.7654 22.2377 11.7135 21.4399 11.7135H14.7092C14.453 11.7132 14.2052 11.8045 14.0105 11.971C13.8158 12.1376 13.6871 12.3682 13.6477 12.6214L12.217 21.6929L12.1758 21.9565C12.2205 21.6679 12.3669 21.4047 12.5886 21.2145C12.8103 21.0243 13.0927 20.9197 13.3848 20.9195H15.9045C20.8529 20.9195 24.7276 18.9095 25.8594 13.0952C25.8931 12.9233 25.9214 12.7566 25.9473 12.5923C25.6484 12.4359 25.3371 12.3045 25.0165 12.1995C24.9332 12.172 24.8484 12.146 24.762 12.12" fill="#012169"/>
</svg>
