<svg width="120" height="34" viewBox="0 0 120 34" fill="none" xmlns="http://www.w3.org/2000/svg">
<g clip-path="url(#clip0)">
<path d="M6.8758 0.00195312C5.77838 0.00195312 4.35568 1.16568 3.5164 1.94033C1.67123 3.57817 0 6.58983 0 9.00713C0 12.442 2.9212 13.7385 3.66006 13.7385C3.90367 13.7385 4.11136 13.6129 4.11136 13.2823C4.11136 13.0232 3.94703 12.8076 3.78355 12.5861C3.10703 11.5519 2.88973 10.5648 2.88973 9.23355C2.88973 6.45794 4.16985 3.91379 5.23172 2.74958C5.42751 2.53889 5.86992 2.08376 6.00229 2.08376C6.1337 2.08376 6.16625 2.19078 6.16625 2.5216L6.04289 20.6887C6.04289 23.5287 5.22343 24.6569 5.22343 25.3256C5.22343 25.6194 5.35064 25.6957 5.59352 25.6957C6.74355 25.6957 7.88962 24.294 8.2143 23.7828C9.22115 22.0437 9.46812 20.6861 9.46812 16.7701V1.5043C9.46812 1.09108 9.3522 0.912465 8.95965 0.65769C8.38559 0.293125 7.72782 0.00195312 6.8758 0.00195312ZM39.7579 0.0526439C39.217 0.0526439 38.9857 0.335407 38.9602 1.21036L38.8402 4.83319L35.6717 4.7234C35.4796 4.71847 35.3927 4.77925 35.3086 4.94814C35.0396 5.45265 34.8979 5.84796 34.8979 6.50622C34.8979 7.0422 35.1409 7.09938 35.3576 7.09938L38.6542 7.19403L38.6441 14.1155C38.6441 15.5835 37.7178 17.4879 36.074 19.0718C36.074 19.0718 36.2154 18.5936 36.2074 18.0918C36.2074 16.6716 35.2934 15.3847 34.0749 14.4739L31.1008 12.2366C31.7242 11.5154 32.7805 10.085 32.7805 8.87716C32.7805 7.9407 32.1916 7.54731 31.094 7.54731C29.5448 7.54731 27.7481 8.96617 27.7481 11.0706C27.7481 11.8376 28.0894 12.5281 28.6082 13.0561C27.8919 14.4152 26.8785 16.2033 26.1259 17.4767C25.5575 18.4517 24.5959 19.9455 24.0271 19.9455C23.6076 19.9455 23.4137 19.2856 23.4137 16.7501C23.4137 14.6435 23.5634 12.3532 23.6385 10.1548C23.6385 9.65085 23.5558 9.18599 22.9016 8.73025C22.2998 8.34466 21.5567 7.80617 20.7911 7.80617C19.0893 7.80617 17.9299 9.37217 17.1346 10.9035C16.3115 12.4905 15.8664 13.8279 15.2386 15.7683L15.3079 9.09025C15.3293 8.61409 15.209 8.42923 14.828 8.26719C14.3337 8.05758 13.6061 7.8159 12.9607 7.8159C12.4214 7.8159 12.3558 8.04845 12.3558 8.61518L12.2833 16.6283L12.275 19.7189C12.275 22.5053 12.6239 22.9699 14.2774 22.9699C15.1928 22.9699 15.486 22.8624 15.5042 22.1014C15.5293 21.5981 15.77 20.3788 16.0956 19.156C17.0481 15.5466 18.1766 12.6918 20.1224 10.516C20.3253 10.3048 20.4822 10.3803 20.4502 10.6798C20.4502 10.6798 20.1426 15.5645 20.1426 17.5625C20.1426 21.1158 20.6894 22.97 22.4574 22.97C24.1927 22.97 25.897 20.7405 26.8273 19.2354L29.8117 14.2436C31.7455 15.8915 33.0949 17.1691 33.0949 18.7233C33.0949 19.6893 32.4854 20.6344 31.557 20.6344C30.3968 20.6344 29.6555 19.4109 28.8719 19.4109C28.2214 19.4109 27.3866 20.6666 27.3866 21.3796C27.3866 22.0528 28.8555 23.0051 31.4912 23.0051C35.382 23.0051 37.4692 20.3349 38.7218 17.3781C38.9616 20.8875 40.3599 22.9375 42.5408 22.9375C43.9713 22.9375 45.6247 21.1301 46.3767 18.9225C46.3767 18.9225 46.451 19.4955 47.0221 20.6697C47.8083 22.2031 49.0035 22.9071 50.4881 22.9071C52.3346 22.9071 53.9139 21.7877 54.8781 19.9094C55.0243 21.3327 56.2194 22.9001 58.1412 22.9001C59.3476 22.9001 60.4474 21.9758 61.1693 20.4533C61.1693 20.4533 62.1044 22.9679 64.8092 22.9679C66.3284 22.9679 68.1273 21.5605 68.5572 20.538L68.6045 22.025L64.5914 25.7258C63.4261 26.857 62.1866 28.4822 62.1866 30.2816C62.1866 32.5702 64.3473 33.8861 66.2488 33.8861C68.2254 33.8861 69.5369 32.6338 70.2553 31.5846C71.1595 30.2268 71.5413 27.6679 71.5413 25.1665L71.4517 21.4052C74.1565 18.4321 76.2733 14.3227 77.2157 11.4151L79.2688 11.361C79.6665 11.3342 79.6467 11.4909 79.5917 11.7227C79.2308 13.2475 78.9158 14.9743 78.9158 16.6941C78.9158 19.5353 79.5702 20.7717 80.5108 21.7822C81.3287 22.6288 82.1421 22.9143 82.9982 22.9143C84.6724 22.9143 85.7234 21.5317 86.0568 20.6601C86.843 22.1934 88.0012 22.9076 89.4854 22.9076C91.332 22.9076 92.9113 21.7882 93.8756 19.9098C94.0218 21.3331 95.2167 22.9006 97.1386 22.9006C98.5744 22.9006 99.4072 22.0721 100.062 20.5112C100.075 21.0133 100.095 21.5485 100.109 22.0504C100.127 22.3101 100.334 22.4744 100.52 22.5422C101.13 22.7731 101.666 22.8887 102.147 22.8887C103.402 22.8887 103.675 22.6309 103.675 21.8105C103.675 20.4573 103.715 18.3193 104.099 16.6027C104.507 14.8936 105.123 12.9588 105.973 11.6127C106.05 11.4736 106.237 11.5101 106.245 11.6786C106.367 14.559 106.56 19.4349 107.317 20.6971C107.69 21.2992 108.267 21.738 109.132 21.738C109.537 21.738 110.033 21.5652 110.16 21.4575C110.289 21.357 110.354 21.2455 110.346 21.0385C110.346 17.3563 111.495 13.7915 112.645 11.3948C112.676 11.3236 112.766 11.3181 112.763 11.4117L112.699 14.0648C112.699 18.4223 113.013 21.1752 115.189 22.4987C115.617 22.7381 116.1 22.8632 116.59 22.8618C117.704 22.8618 118.714 22.2398 119.213 21.2396C119.619 20.4623 120 18.9662 120 18.1187C120 17.7907 120.004 17.2567 119.466 17.2567C119.171 17.2567 118.994 17.4742 118.924 17.8026C118.752 18.5144 118.612 19.1249 118.346 19.8286C118.092 20.5005 117.712 20.8917 117.262 20.8917C116.734 20.8917 116.466 20.476 116.313 20.219C115.639 19.1908 115.585 16.8288 115.585 14.8572L115.747 9.78274C115.747 9.36292 115.572 8.86046 114.924 8.49001C114.489 8.23968 113.389 7.76845 112.715 7.76845C112.09 7.76845 111.788 8.12232 111.563 8.64184C111.14 9.57494 109.726 13.2349 109.347 16.2105C109.334 16.2889 109.236 16.3055 109.229 16.2055C109.032 14.1012 108.931 11.5658 108.933 9.8553C108.933 9.33818 108.807 8.59896 107.71 8.11992C107.177 7.89878 106.736 7.7634 106.197 7.7634C105.529 7.7634 105.386 8.09037 105.146 8.52364C104.39 9.92208 103.866 11.7457 103.082 14.0461L103.094 8.78238C103.094 8.53626 102.943 8.21361 102.51 8.12677C101.439 7.88052 100.942 7.76869 100.52 7.76869C100.212 7.76869 100.043 8.01385 100.043 8.27896L99.9858 17.2536C99.7785 18.3522 98.9385 20.9746 97.7468 20.9746C96.7686 20.9746 96.3122 19.9836 96.3122 15.8411L96.4897 9.10875C96.4897 8.68352 96.2105 8.5049 95.8037 8.32484C95.222 8.09373 94.7591 8.00196 94.1679 8.00196C93.4258 8.00196 93.1711 8.35716 93.3213 9.21037C92.5056 8.10671 91.6901 7.49674 90.2493 7.49674C87.3568 7.49674 85.1765 10.976 85.1765 16.0321C85.1482 17.4499 85.4908 18.859 85.4908 18.859C85.229 20.0357 84.6138 20.9949 83.7638 20.9949C82.6915 20.9949 82.0081 19.4788 82.0081 16.8515C82.0081 14.2163 83.0118 11.2441 83.0118 10.4386C83.0118 9.50202 82.3982 8.90947 81.3119 8.90947C80.7678 8.90947 78.7491 9.36737 77.7143 9.51764C77.7143 9.51764 77.8311 9.02479 77.8224 8.63728C77.8224 7.71379 77.3891 7.13505 76.3135 7.13505C74.999 7.13505 74.0338 8.07367 74.0338 9.675C74.0338 10.3934 74.4476 11.0582 74.9954 11.4153C74.2844 14.3808 73.1284 16.5862 71.4248 19.05L71.5684 9.07331C71.5684 8.74899 71.482 8.54755 70.8467 8.30094C70.5108 8.15584 69.9634 7.98827 69.2735 7.98827C68.2735 7.98827 68.3396 8.70238 68.3931 9.23704C67.9356 8.42575 66.9339 7.46274 65.3885 7.46274C61.1774 7.46274 59.8845 13.8844 60.5185 18.4449C60.5185 19.0009 59.9756 20.9746 58.7492 20.9746C57.7711 20.9746 57.3147 19.9836 57.3147 15.8411L57.4939 9.10875C57.4939 8.6834 57.2128 8.50478 56.8059 8.32484C56.2242 8.09373 55.7631 8.00196 55.1718 8.00196C54.4296 8.00196 54.1749 8.35716 54.3251 9.21025C53.5094 8.10659 52.6922 7.49662 51.2513 7.49662C48.3588 7.49662 46.1497 10.6786 46.1497 15.7345C46.1497 17.6644 44.488 20.6095 43.3227 20.6095C42.6754 20.6095 41.9861 19.4212 41.9861 16.385C41.9893 14.3155 42.2716 7.27019 42.2716 7.27019L46.339 7.20424C46.5331 7.20244 46.6456 6.99031 46.7175 6.85962C46.9043 6.48064 46.9946 6.22827 46.9946 5.77481C46.9946 5.36568 46.9127 5.21625 46.388 5.1867L42.3341 4.94334L42.5066 1.16676C42.5187 0.92832 42.3748 0.772885 42.1145 0.656488C41.3298 0.349581 40.3674 0.052764 39.7579 0.0526439ZM52.068 9.94815C53.1525 9.94815 54.2529 10.9372 54.2529 14.4463C54.2529 18.8646 52.6433 20.9202 51.4056 20.9202C50.2452 20.9202 49.3644 19.2823 49.3644 16.0653C49.3644 12.8135 50.2246 9.94815 52.068 9.94815ZM91.1228 9.94815C92.2073 9.94815 93.3077 10.9372 93.3077 14.4463C93.3077 18.8646 91.6981 20.9202 90.4604 20.9202C89.3 20.9202 88.4191 19.2823 88.4191 16.0653C88.4192 12.8135 89.2794 9.94815 91.1228 9.94815ZM66.352 9.96845C67.7673 9.96845 68.3933 11.4272 68.3933 14.2553C68.3933 18.5192 67.1258 20.947 65.5865 20.947C64.6038 20.947 63.4738 19.3334 63.5334 16.1597C63.5334 14.1305 64.195 9.96845 66.352 9.96845ZM68.7481 24.2322V25.9118C68.7481 31.4849 67.263 32.4361 66.0697 32.4361C65.6176 32.4361 64.5101 32.0946 64.5101 30.7159C64.5101 28.7885 66.5251 26.596 67.1513 25.9185L68.7481 24.2322Z" fill="#3F5D87"/>
</g>
<defs>
<clipPath id="clip0">
<rect width="120" height="33.888" fill="white"/>
</clipPath>
</defs>
</svg>
