<svg width="68" height="72" viewBox="0 0 68 72" fill="none" xmlns="http://www.w3.org/2000/svg">
<path opacity="0.5" d="M59.8168 37.7997C59.8168 55.0312 48.218 69 33.9102 69C19.6024 69 8.00369 55.0312 8.00369 37.7997C8.00369 31.5454 7.79939 23.5422 10.4304 18.6594C15.0481 10.0897 24.7957 8 33.9102 8C43.0248 8 53.5598 10.7121 58.1775 19.2819C60.8085 24.1647 59.8168 31.5454 59.8168 37.7997Z" fill="white"/>
<path d="M25.2474 41.4381C25.2474 42.2323 24.8209 42.8762 24.2947 42.8762C23.7686 42.8762 23.3421 42.2323 23.3421 41.4381C23.3421 40.6439 23.7686 40 24.2947 40C24.8209 40 25.2474 40.6439 25.2474 41.4381Z" fill="#160C4B"/>
<path d="M42.8721 41.4381C42.8721 42.2323 43.2986 42.8762 43.8247 42.8762C44.3509 42.8762 44.7774 42.2323 44.7774 41.4381C44.7774 40.6439 44.3509 40 43.8247 40C43.2986 40 42.8721 40.6439 42.8721 41.4381Z" fill="#160C4B"/>
<path d="M36.1239 50.7856C34.5361 52.0639 32.3925 51.4248 31.8368 50.7856C31.9956 51.5846 32.599 52.7031 34.0598 52.7031C35.5205 52.7031 36.0445 51.4248 36.1239 50.7856Z" fill="#160C4B"/>
<path fill-rule="evenodd" clip-rule="evenodd" d="M30.7524 56.6083C30.8184 56.3067 31.1149 56.116 31.4147 56.1824L37.0241 57.4252C37.3238 57.4916 37.5133 57.79 37.4473 58.0916C37.3813 58.3933 37.0848 58.584 36.7851 58.5176L31.1757 57.2748C30.8759 57.2083 30.6864 56.91 30.7524 56.6083Z" fill="#160C4B"/>
<path d="M33.9804 69.8802C22.9293 70.0081 14.8209 59.7604 12.1481 54.6205C11.7512 53.8572 11.4336 53.7417 11.1954 53.9015C10.8144 54.1572 11.0895 54.6738 11.1954 54.9401C12.5292 58.0719 14.3445 60.7191 15.0855 61.6512C12.4815 65.9974 11.6188 70.333 11.513 71.9575C15.8318 67.6752 20.1929 67.8829 21.8336 68.522C34.6948 75.2331 41.84 70.5194 45.8889 68.522C49.128 66.9242 54.1719 70.04 56.2889 71.7977C56.0349 67.8349 53.9072 63.4887 52.8752 61.811C54.5424 59.5739 55.892 56.8576 56.6065 55.4994C57.1781 54.4128 57.0034 53.9814 56.8447 53.9015C56.4636 53.7097 55.9978 54.301 55.8126 54.6205C54.6218 56.6179 47.7942 69.7204 33.9804 69.8802Z" fill="#160C4B"/>
<path fill-rule="evenodd" clip-rule="evenodd" d="M61.0986 13.5137C65.0843 18.5963 63.2351 28.3239 61.4063 32.9819C61.4232 32.9874 61.44 32.993 61.4569 32.9987L61.4195 33L56.9821 32.7044C56.9821 32.697 56.9816 32.687 56.9821 32.682C57.846 22.6347 56.8518 18.6113 55.8825 17.9298C44.2769 26.3232 33.9106 23.6553 30.7064 22.8307C29.8341 22.6062 29.4925 22.5183 29.8017 22.8276C30.7436 23.77 32.8869 24.9009 34.4151 25.7073L34.4163 25.7079C34.7624 25.8905 35.077 26.0565 35.3389 26.1999C22.7405 26.3456 17.6757 20.276 16.1866 18.4915C16.0348 18.3095 15.9201 18.1721 15.8384 18.0904C15.1118 17.3633 11.0235 14.8787 9.73956 19.616C8.49589 24.2045 9.28351 29.5864 9.69928 32.4273C9.73534 32.6737 9.7396 32.6788 9.7396 32.7591L5.64693 33L5.63626 32.9996C0.195383 20.4092 4.28508 13.3514 7.9741 10.7035C7.9741 4.52109 15.5174 -1.50081 25.067 0.667005C37.3011 4.15622 41.0234 3.00004 45.402 1.63995C47.1697 1.09088 49.0444 0.508563 51.6293 0.185268C63.4974 -1.29908 67.4918 6.50158 68 10.5429C66.0098 9.38674 62.5699 11.9882 61.0986 13.5137ZM30.8706 4.02136C27.7944 2.9508 19.8686 1.81713 15.7036 6.10895C14.7823 7.05833 13.6974 8.83888 13.6974 8.83888C13.6974 8.83888 11.8517 12.211 10.4072 10.7658C8.96276 9.32063 12.3332 4.98486 14.9814 3.70019C17.6296 2.41552 24.21 0.167347 30.8706 4.02136Z" fill="#160C4B"/>
<path d="M2 38.4959C2 35.4606 4.52462 33 7.63889 33H25.3611C28.4754 33 31 35.4606 31 38.4959V46.5041C31 49.5394 28.4754 52 25.3611 52H7.63889C4.52462 52 2 49.5394 2 46.5041V38.4959Z" fill="#754FFE" fill-opacity="0.2"/>
<path fill-rule="evenodd" clip-rule="evenodd" d="M25.3611 36.1405H7.63889C6.3042 36.1405 5.22222 37.195 5.22222 38.4959V46.5041C5.22222 47.805 6.3042 48.8595 7.63889 48.8595H25.3611C26.6958 48.8595 27.7778 47.805 27.7778 46.5041V38.4959C27.7778 37.195 26.6958 36.1405 25.3611 36.1405ZM7.63889 33C4.52462 33 2 35.4606 2 38.4959V46.5041C2 49.5394 4.52462 52 7.63889 52H25.3611C28.4754 52 31 49.5394 31 46.5041V38.4959C31 35.4606 28.4754 33 25.3611 33H7.63889Z" fill="#754FFE"/>
<path d="M0 37.8571C0 37.3838 0.424151 37 0.947368 37H2.05263C2.57585 37 3 37.3838 3 37.8571V40.1429C3 40.6162 2.57585 41 2.05263 41H0.947368C0.424151 41 0 40.6162 0 40.1429V37.8571Z" fill="#754FFE"/>
<path d="M65 38.4959C65 35.4606 62.5624 33 59.5556 33H42.4444C39.4376 33 37 35.4606 37 38.4959V46.5041C37 49.5394 39.4376 52 42.4444 52H59.5556C62.5624 52 65 49.5394 65 46.5041V38.4959Z" fill="#754FFE" fill-opacity="0.2"/>
<path fill-rule="evenodd" clip-rule="evenodd" d="M42.4444 36.1405H59.5556C60.8442 36.1405 61.8889 37.195 61.8889 38.4959V46.5041C61.8889 47.805 60.8442 48.8595 59.5556 48.8595H42.4444C41.1558 48.8595 40.1111 47.805 40.1111 46.5041V38.4959C40.1111 37.195 41.1558 36.1405 42.4444 36.1405ZM59.5556 33C62.5624 33 65 35.4606 65 38.4959V46.5041C65 49.5394 62.5624 52 59.5556 52H42.4444C39.4376 52 37 49.5394 37 46.5041V38.4959C37 35.4606 39.4376 33 42.4444 33H59.5556Z" fill="#754FFE"/>
<path d="M68 37.8571C68 37.3838 67.4345 37 66.7368 37H65.2632C64.5655 37 64 37.3838 64 37.8571V40.1429C64 40.6162 64.5655 41 65.2632 41H66.7368C67.4345 41 68 40.6162 68 40.1429V37.8571Z" fill="#754FFE"/>
<path d="M38 40.0714C38 39.4797 37.5428 39 36.9787 39H31.0213C30.4572 39 30 39.4797 30 40.0714V42.9286C30 43.5203 30.4572 44 31.0213 44H36.9787C37.5428 44 38 43.5203 38 42.9286V40.0714Z" fill="#754FFE"/>
</svg>
