<svg width="120" height="24" viewBox="0 0 120 24" fill="none" xmlns="http://www.w3.org/2000/svg">
<g clip-path="url(#clip0)">
<path d="M106.21 4.24052V16.2399L97.3721 4.23135L95.9238 4.22924V18.8382H97.5484V7.10463L106.209 18.8481L107.839 18.8495V4.24052H106.21ZM87.4732 3.90137C83.3653 3.90137 80.4941 7.04329 80.4941 11.5411C80.4941 16.046 83.3653 19.1872 87.4732 19.1872C91.5769 19.1872 94.4389 16.046 94.4389 11.5411C94.4389 7.04329 91.5776 3.90137 87.4732 3.90137ZM87.4732 17.6395C84.344 17.6395 82.1504 15.1315 82.1504 11.5411C82.1504 7.95357 84.344 5.44553 87.4732 5.44553C90.5982 5.44553 92.7777 7.95357 92.7777 11.5411C92.7784 15.1315 90.5982 17.6395 87.4732 17.6395ZM111.305 17.4202V12.0149H119.347V10.5843H111.305V5.65988H119.894V4.23065H109.666V18.8509H119.994V17.4202H111.305Z" fill="#6B6B6B"/>
<path d="M75.9165 18.8631L71.2466 12.5228L66.5781 18.8631H64.6546L70.2714 11.2029L65.1425 4.24072H67.0653L71.2466 9.91959L75.4229 4.24072H77.3443L72.2189 11.2029L77.8372 18.8631H75.9165ZM50.205 11.7557C49.9149 11.51 49.5928 11.3048 49.2475 11.1458C50.3086 10.5697 51.0046 9.48102 51.0046 8.21819C51.0046 7.28252 50.6598 4.24072 46.2515 4.24072H40.3138V10.5443H38.3353C37.9711 11.0259 37.617 11.5151 37.2734 12.0116H40.3138V18.8617L46.2515 18.8624C49.4681 18.8624 51.4664 17.2287 51.4664 14.5937C51.4664 13.443 51.0314 12.4636 50.205 11.7557ZM41.9553 5.76656H46.2515C47.4149 5.76656 49.3617 6.05635 49.3617 8.09057C49.3617 9.62839 48.2272 10.545 46.2515 10.545H41.9553V5.76656ZM46.2508 17.3372H41.9546V12.0137H46.2508C47.8803 12.0137 49.8285 12.4636 49.8285 14.562C49.8292 16.9755 47.5884 17.3372 46.2508 17.3372Z" fill="#177D3E"/>
<path d="M59.1877 3.90283C55.0812 3.90283 52.2101 7.04475 52.2101 11.5426C52.2101 16.0475 55.0805 19.1873 59.1877 19.1873C63.2914 19.1873 66.1534 16.0475 66.1534 11.5426C66.1534 7.04475 63.2914 3.90283 59.1877 3.90283ZM59.1877 17.6403C56.0585 17.6403 53.867 15.1322 53.867 11.5426C53.867 7.95504 56.0585 5.4477 59.1877 5.4477C62.312 5.4477 64.4922 7.95504 64.4922 11.5426C64.4922 15.1322 62.312 17.6403 59.1877 17.6403ZM39.5133 18.8615L33.8923 11.202L39.0212 4.24057H37.0998L32.9185 9.92086L28.7408 4.24057H26.8251L31.9504 11.202L26.3301 18.8615H28.2557L32.9213 12.5227L37.5898 18.8615H39.5133Z" fill="#177D3E"/>
<path d="M23.794 11.7604C23.794 18.2557 18.4683 23.5207 11.8989 23.5207C5.32952 23.5207 0.00390625 18.2557 0.00390625 11.7604C0.00390625 5.26568 5.32952 0 11.8989 0C18.4683 0 23.794 5.26498 23.794 11.7604Z" fill="#666666"/>
<path d="M23.794 11.7604C23.794 18.2557 18.4683 23.5207 11.8989 23.5207C5.32952 23.5207 0.00390625 18.2557 0.00390625 11.7604C0.00390625 5.26568 5.32952 0 11.8989 0C18.4683 0 23.794 5.26498 23.794 11.7604Z" fill="url(#paint0_radial)"/>
<path d="M23.794 11.7604C23.794 18.2557 18.4683 23.5207 11.8989 23.5207C5.32952 23.5207 0.00390625 18.2557 0.00390625 11.7604C0.00390625 5.26568 5.32952 0 11.8989 0C18.4683 0 23.794 5.26498 23.794 11.7604Z" fill="url(#paint1_radial)"/>
<path d="M23.794 11.7604C23.794 18.2557 18.4683 23.5207 11.8989 23.5207C5.32952 23.5207 0.00390625 18.2557 0.00390625 11.7604C0.00390625 5.26568 5.32952 0 11.8989 0C18.4683 0 23.794 5.26498 23.794 11.7604Z" fill="url(#paint2_radial)"/>
<path d="M8.88154 6.60889C7.56794 8.201 2.06604 14.6717 2.55397 19.0468C2.89383 19.477 3.26824 19.8803 3.6638 20.2596C3.60598 16.9104 7.53621 13.3264 10.6034 10.6209L8.88083 6.60889H8.88154Z" fill="#00A54D"/>
<path d="M8.8807 6.60889C7.5679 8.20093 2.06595 14.6714 2.55399 19.0467C2.89355 19.4772 3.26793 19.8801 3.66361 20.2591C3.60607 16.9106 7.53594 13.3257 10.6034 10.6207L8.8807 6.60889Z" fill="url(#paint3_linear)"/>
<path d="M5.65295 1.75787C4.97004 2.17102 4.33057 2.65117 3.74414 3.19112C5.63093 3.54962 7.52341 5.21081 8.56128 6.58691C9.4649 7.9997 9.95578 9.29465 10.5937 10.6312C11.0376 10.2519 11.4866 9.87855 11.9406 9.51129L11.9378 3.70628C10.5319 2.83263 8.20822 1.68306 5.67497 1.75787C5.66929 1.76139 5.65793 1.75434 5.65295 1.75787Z" fill="#02A74D"/>
<path d="M5.65295 1.75787C4.97004 2.17102 4.33057 2.65117 3.74414 3.19112C5.63093 3.54962 7.52341 5.21081 8.56128 6.58691C9.4649 7.9997 9.95578 9.29465 10.5937 10.6312C11.0376 10.2519 11.4866 9.87855 11.9406 9.51129L11.9378 3.70628C10.5319 2.83263 8.20822 1.68306 5.67497 1.75787C5.66929 1.76139 5.65793 1.75434 5.65295 1.75787Z" fill="url(#paint4_linear)"/>
<path d="M14.922 6.61399C16.2307 8.20751 21.7142 14.6838 21.2277 19.0618C20.8893 19.4919 20.5163 19.8959 20.1221 20.276C20.1792 16.924 16.2624 13.3364 13.2051 10.6288L14.922 6.61328V6.61399Z" fill="#00A54D"/>
<path d="M14.9216 6.61328C16.23 8.20667 21.7138 14.6834 21.2274 19.0617C20.887 19.4911 20.5175 19.8968 20.1214 20.2758C20.1788 16.9237 16.2619 13.3365 13.2046 10.6285L14.9216 6.61328Z" fill="url(#paint5_linear)"/>
<path d="M18.1398 1.75836C18.8204 2.17226 19.4579 2.65279 20.043 3.19283C18.1624 3.55163 16.2755 5.21424 15.2418 6.5915C14.3411 8.00549 13.8512 9.30154 13.2153 10.64C12.7849 10.2734 12.3473 9.90047 11.8729 9.51907L11.8757 3.70842C13.2769 2.83404 15.5929 1.68349 18.1178 1.75836C18.1228 1.76189 18.1348 1.75483 18.1398 1.75836Z" fill="#02A74D"/>
<path d="M18.1398 1.75836C18.8204 2.17226 19.4579 2.65279 20.043 3.19283C18.1624 3.55163 16.2755 5.21424 15.2418 6.5915C14.3411 8.00549 13.8512 9.30154 13.2153 10.64C12.7849 10.2734 12.3473 9.90047 11.8729 9.51907L11.8757 3.70842C13.2769 2.83404 15.5929 1.68349 18.1178 1.75836C18.1228 1.76189 18.1348 1.75483 18.1398 1.75836Z" fill="url(#paint6_linear)"/>
</g>
<defs>
<radialGradient id="paint0_radial" cx="0" cy="0" r="1" gradientUnits="userSpaceOnUse" gradientTransform="translate(11.6858 10.4999) rotate(90) scale(17.1363 15.2168)">
<stop stop-color="white"/>
<stop offset="1" stop-color="white" stop-opacity="0"/>
</radialGradient>
<radialGradient id="paint1_radial" cx="0" cy="0" r="1" gradientUnits="userSpaceOnUse" gradientTransform="translate(11.6858 10.4999) rotate(90) scale(17.1363 15.2168)">
<stop stop-color="white"/>
<stop offset="1" stop-color="white" stop-opacity="0"/>
</radialGradient>
<radialGradient id="paint2_radial" cx="0" cy="0" r="1" gradientUnits="userSpaceOnUse" gradientTransform="translate(11.6858 10.4999) rotate(90) scale(17.1363 15.2168)">
<stop stop-color="white"/>
<stop offset="1" stop-color="white" stop-opacity="0"/>
</radialGradient>
<linearGradient id="paint3_linear" x1="7.59722" y1="15.0574" x2="4.80939" y2="11.7438" gradientUnits="userSpaceOnUse">
<stop stop-color="#97CA43"/>
<stop offset="1" stop-color="#97CA43" stop-opacity="0"/>
</linearGradient>
<linearGradient id="paint4_linear" x1="7.47728" y1="7.19037" x2="10.0142" y2="1.48467" gradientUnits="userSpaceOnUse">
<stop stop-color="#97CA43"/>
<stop offset="1" stop-color="#97CA43" stop-opacity="0"/>
</linearGradient>
<linearGradient id="paint5_linear" x1="16.2428" y1="15.0218" x2="13.4469" y2="11.7253" gradientUnits="userSpaceOnUse">
<stop stop-color="#97CA43"/>
<stop offset="1" stop-color="#97CA43" stop-opacity="0"/>
</linearGradient>
<linearGradient id="paint6_linear" x1="16.339" y1="6.89991" x2="18.5244" y2="3.32235" gradientUnits="userSpaceOnUse">
<stop stop-color="#97CA43"/>
<stop offset="1" stop-color="#97CA43" stop-opacity="0"/>
</linearGradient>
<clipPath id="clip0">
<rect width="120" height="23.52" fill="white"/>
</clipPath>
</defs>
</svg>
