<svg width="140" height="24" viewBox="0 0 140 24" fill="none" xmlns="http://www.w3.org/2000/svg">
<g clip-path="url(#clip0)">
<path d="M11.7589 23.9909V19.3253C16.6295 19.3253 20.3866 14.4484 18.5088 9.2876C18.1671 8.32971 17.6223 7.45979 16.9129 6.73939C16.2036 6.01898 15.347 5.4657 14.4038 5.11868C13.3091 4.70064 12.1311 4.55749 10.9702 4.70141C9.80928 4.84534 8.69981 5.27208 7.73627 5.94529C6.77274 6.61851 5.9837 7.51825 5.43634 8.56789C4.88898 9.61752 4.59952 10.786 4.59261 11.9737H0C0 4.19778 7.44571 -1.95201 15.5858 0.59361C17.3351 1.15164 18.9257 2.13077 20.2222 3.44762C21.5186 4.76447 22.4824 6.38002 23.0315 8.15668C25.5367 16.4278 19.4826 23.9909 11.7589 23.9909Z" fill="#0080FF"/>
<path d="M11.8283 19.3244H7.23569V14.7298H11.8283V19.3244ZM7.23569 22.9299H3.75665V19.3244H7.23569V22.9299ZM3.75665 19.3244H0.837891V16.3559H3.75665V19.3244ZM41.9576 6.95384C40.6359 6.03435 38.8964 5.53488 36.9473 5.53488H32.704V19.3187H36.9487C38.8973 19.3187 40.5674 18.8239 41.959 17.8344C42.7191 17.2729 43.3193 16.517 43.6986 15.6436C44.1177 14.7241 44.3245 13.5932 44.3245 12.3913C44.3245 11.1894 44.1163 10.0585 43.6986 9.20999C43.2794 8.1557 42.7233 7.44906 41.9576 6.95384ZM35.2091 7.87333H36.5309C37.9924 7.87333 39.2443 8.15712 40.2181 8.79281C41.2618 9.42851 41.7551 10.6375 41.7551 12.3984C41.7551 14.1593 41.1962 15.4378 40.2181 16.1445C39.3141 16.712 38.1307 17.0639 36.5994 17.0639H35.2091V7.87333ZM47.3159 5.32913C47.1225 5.32388 46.9302 5.35895 46.7507 5.43216C46.5711 5.50538 46.4083 5.61519 46.2722 5.75482C46.1137 5.87925 45.9867 6.04038 45.9019 6.22475C45.817 6.40913 45.7768 6.61142 45.7846 6.81478C45.7846 7.20842 45.9386 7.58594 46.2127 7.86429C46.4867 8.14264 46.8585 8.29901 47.2461 8.29901C47.6337 8.29901 48.0054 8.14264 48.2795 7.86429C48.5536 7.58594 48.7075 7.20842 48.7075 6.81478C48.7126 6.6184 48.6781 6.42304 48.606 6.24074C48.5339 6.05845 48.4258 5.89307 48.2884 5.75482C48.0802 5.47102 47.7295 5.32913 47.3103 5.32913H47.3159ZM46.0529 9.57041H48.4882V19.2548H46.0626V9.57041H46.0529ZM57.1956 10.4218C56.497 9.78609 55.6586 9.36182 54.7602 9.36182C54.147 9.3481 53.5379 9.4676 52.9738 9.71232C52.4097 9.95703 51.9036 10.3213 51.4894 10.7808C50.6203 11.7157 50.1459 12.9589 50.1676 14.2445C50.1676 15.5882 50.5868 16.7887 51.4251 17.7082C52.2634 18.6276 53.3728 19.0519 54.696 19.0519C55.5474 19.0655 56.3793 18.792 57.0614 18.2743V18.4857C57.0614 19.2633 56.8533 19.9047 56.4355 20.3304C56.0177 20.7561 55.4574 20.9661 54.696 20.9661C53.5782 20.9661 52.8866 20.5404 52.0525 19.34L50.3758 20.9661L50.4457 21.037C50.7936 21.5323 51.3497 22.0303 52.0455 22.5213C52.7413 23.0122 53.6453 23.2308 54.689 23.2308C56.1505 23.2308 57.264 22.8051 58.0982 21.887C58.9323 20.9689 59.4199 19.8366 59.4199 18.3524V9.57041H57.0572V10.4218H57.197H57.1956ZM56.571 16.1473C56.1519 16.6425 55.593 16.8568 54.8944 16.8568C54.1958 16.8568 53.6369 16.6454 53.2177 16.1473C52.7986 15.6492 52.5918 15.0121 52.5918 14.2388C52.5918 13.4655 52.8139 12.8212 53.2331 12.326C53.6523 11.8308 54.2111 11.6166 54.9097 11.6166C55.6083 11.6166 56.1672 11.828 56.5864 12.326C57.0056 12.8241 57.2123 13.4612 57.2123 14.2345C57.2123 15.0079 57.0042 15.6535 56.5864 16.143L56.571 16.1473ZM61.6652 9.56899H64.1006V19.2534H61.6499V9.57041L61.6652 9.56899ZM62.8333 5.32913C62.6401 5.32426 62.4479 5.35932 62.2684 5.43219C62.0889 5.50506 61.9259 5.61421 61.7892 5.75301C61.6525 5.89182 61.5451 6.05739 61.4733 6.23966C61.4016 6.42194 61.367 6.61712 61.3718 6.81336C61.3718 7.207 61.5258 7.58453 61.7999 7.86287C62.074 8.14122 62.4457 8.2976 62.8333 8.2976C63.2209 8.2976 63.5926 8.14122 63.8667 7.86287C64.1408 7.58453 64.2948 7.207 64.2948 6.81336C64.2996 6.617 64.265 6.42169 64.1932 6.23932C64.1213 6.05695 64.0137 5.89131 63.8769 5.75249C63.7401 5.61366 63.5769 5.50454 63.3972 5.43176C63.2176 5.35898 63.0252 5.32406 62.8319 5.32913H62.8333ZM69.301 6.95384H66.9383V9.57041H65.5411V11.7613H66.9383V15.7911C66.9383 17.0682 67.2177 17.982 67.7039 18.4772C68.1902 18.9725 69.1012 19.2548 70.279 19.2548C70.6748 19.2665 71.0708 19.2427 71.4624 19.1839H71.6021V16.9916L70.7638 17.0625C70.2049 17.0625 69.7858 16.9916 69.6461 16.7787C69.4379 16.5673 69.3666 16.143 69.3666 15.5017V11.8322H71.5938V9.63994H69.3736L69.301 6.95384ZM82.7994 5.53488H85.2347V19.3187H82.8022V5.54339L82.7994 5.53488ZM109.522 15.8635C109.167 16.2814 108.77 16.6618 108.339 16.9987C107.96 17.232 107.525 17.3543 107.081 17.352C106.755 17.3491 106.433 17.2779 106.135 17.1429C105.837 17.0079 105.569 16.812 105.349 16.5673C104.861 15.9997 104.65 15.3654 104.65 14.5169C104.65 13.6684 104.858 13.0327 105.349 12.4665C105.56 12.2095 105.827 12.0056 106.129 11.8707C106.431 11.7359 106.759 11.6736 107.088 11.6889C107.854 11.6889 108.688 12.1841 109.384 13.0327L110.984 11.4718C109.94 10.1281 108.618 9.49236 107.017 9.49236C105.695 9.49236 104.582 9.98758 103.608 10.9766C102.697 11.9471 102.195 13.2412 102.211 14.5822C102.211 16.0011 102.698 17.2683 103.608 18.1878C104.041 18.6657 104.568 19.0451 105.156 19.3009C105.744 19.5567 106.378 19.6832 107.017 19.672C108.757 19.672 110.148 18.8944 111.122 17.4811L109.522 15.855V15.8635ZM119.333 10.978C118.967 10.4882 118.487 10.0981 117.936 9.84285C117.305 9.54581 116.614 9.40016 115.919 9.41716C114.597 9.41716 113.483 9.91238 112.648 10.9014C111.857 11.9294 111.439 13.2027 111.464 14.507C111.464 15.9912 111.884 17.1931 112.786 18.1126C113.689 19.032 114.804 19.5315 116.265 19.5315C117.865 19.5315 119.188 18.8958 120.232 17.5521L120.302 17.4811L118.702 15.9203C118.562 16.1317 118.354 16.2736 118.143 16.4878C117.946 16.6992 117.708 16.8677 117.444 16.9831C117.082 17.1844 116.674 17.2825 116.261 17.2669C115.655 17.2758 115.064 17.0757 114.584 16.6993C114.165 16.346 113.958 15.8479 113.886 15.215H120.288V14.2956C120.303 13.6687 120.209 13.044 120.008 12.4509C119.907 11.9029 119.666 11.3913 119.31 10.9667L119.333 10.978ZM114.115 13.2455C114.221 12.8177 114.437 12.4261 114.741 12.1103C114.905 11.9439 115.102 11.8139 115.318 11.7287C115.535 11.6434 115.766 11.6048 115.998 11.6151C116.557 11.6151 117.042 11.757 117.32 12.1103C117.6 12.3941 117.739 12.8198 117.808 13.2455H114.115ZM128.589 10.3466C127.89 9.71088 126.849 9.42709 125.597 9.42709C124.832 9.44912 124.077 9.61761 123.373 9.92373C122.747 10.2771 122.115 10.7751 121.773 11.4846L123.31 12.9688C123.936 11.9089 124.632 11.5499 125.606 11.5499C126.061 11.5376 126.506 11.6883 126.863 11.9755C127.022 12.1 127.149 12.2611 127.233 12.4455C127.318 12.6299 127.358 12.8322 127.351 13.0355V13.5307C126.79 13.3387 126.202 13.2428 125.611 13.2469C124.428 13.2469 123.454 13.5307 122.688 14.0983C121.923 14.6659 121.57 15.5173 121.57 16.502C121.57 17.4215 121.85 18.1282 122.474 18.6929C123.099 19.2577 123.872 19.4705 124.77 19.4705C125.668 19.4705 126.51 19.1172 127.345 18.4772V19.2548H129.711V13.0341C129.711 11.8989 129.363 10.9837 128.593 10.348L128.589 10.3466ZM124.348 15.5783C124.627 15.3669 124.974 15.2945 125.466 15.2945C126.083 15.3156 126.694 15.4349 127.275 15.6478V16.5673C126.699 17.082 125.955 17.3593 125.188 17.3449C124.769 17.3449 124.422 17.274 124.21 17.0611C123.997 16.8483 123.862 16.6354 123.862 16.3516C123.886 16.195 123.942 16.0452 124.026 15.9115C124.11 15.7777 124.22 15.6629 124.349 15.574L124.348 15.5783ZM138.956 10.4885C138.257 9.71088 137.356 9.3533 136.173 9.3533C135.198 9.3533 134.433 9.6371 133.877 10.2047V9.6371H131.51V19.3215H133.945V13.9522C133.945 13.2427 134.085 12.6084 134.433 12.1856C134.603 11.9791 134.818 11.8146 135.06 11.7045C135.302 11.5944 135.565 11.5415 135.83 11.5499C136.069 11.538 136.307 11.5832 136.525 11.6818C136.744 11.7804 136.936 11.9296 137.088 12.1174C137.415 12.5693 137.586 13.1178 137.575 13.6783V19.3329H140V13.6698C139.93 12.3265 139.582 11.2661 138.956 10.4885ZM79.8107 10.3466C79.1121 9.71088 78.0712 9.42709 76.8193 9.42709C76.0529 9.44832 75.2972 9.61633 74.5922 9.92231C73.9662 10.2756 73.3347 10.7737 72.9924 11.4832L74.5293 12.9674C75.1552 11.9074 75.8511 11.5484 76.8249 11.5484C77.2803 11.5362 77.7254 11.6869 78.0824 11.9741C78.241 12.0986 78.3679 12.2597 78.4528 12.4441C78.5376 12.6284 78.5778 12.8307 78.57 13.0341V13.5293C78.0097 13.3373 77.4218 13.2414 76.8305 13.2455C75.6475 13.2455 74.6732 13.5293 73.9075 14.0969C73.1419 14.6645 72.7898 15.5159 72.7898 16.5006C72.7898 17.4201 73.0692 18.1268 73.6938 18.6915C74.3183 19.2562 75.091 19.4691 75.9894 19.4691C76.8878 19.4691 77.7289 19.1158 78.5644 18.4758V19.2534H80.9299V13.0341C80.9299 11.8989 80.5107 10.9837 79.8121 10.348L79.8107 10.3466ZM75.4976 15.5783C75.777 15.3669 76.1235 15.2945 76.6153 15.2945C77.2329 15.3156 77.8434 15.4349 78.4247 15.6478V16.5673C77.8488 17.082 77.1043 17.3593 76.3373 17.3449C75.9181 17.3449 75.5716 17.274 75.3592 17.0611C75.1469 16.8483 75.0113 16.6354 75.0113 16.3516C75.1153 16.059 75.2819 15.7935 75.499 15.574L75.4976 15.5783ZM93.9421 19.5329C92.5652 19.5335 91.2191 19.1194 90.0741 18.3429C88.929 17.5665 88.0363 16.4626 87.5091 15.1709C86.9818 13.8792 86.8435 12.4578 87.1118 11.0863C87.3801 9.71477 88.0428 8.45488 89.0162 7.46594C89.9896 6.47701 91.2299 5.80344 92.5802 5.53044C93.9306 5.25744 95.3304 5.39727 96.6024 5.93224C97.8745 6.46722 98.9619 7.3733 99.7268 8.5359C100.492 9.6985 100.9 11.0654 100.9 12.4637C100.894 14.336 100.158 16.1298 98.855 17.454C97.5517 18.7782 95.7857 19.5255 93.9421 19.5329ZM93.9421 7.79954C93.0471 7.79814 92.1718 8.06634 91.427 8.57022C90.6821 9.0741 90.1012 9.79102 89.7576 10.6303C89.414 11.4696 89.3233 12.3934 89.4968 13.2851C89.6704 14.1768 90.1004 14.9961 90.7326 15.6395C91.3647 16.2829 92.1706 16.7214 93.0482 16.8996C93.9258 17.0778 94.8357 16.9876 95.6628 16.6405C96.49 16.2934 97.1972 15.7049 97.6949 14.9496C98.1927 14.1942 98.4587 13.3059 98.4592 12.397C98.4605 11.7934 98.3444 11.1954 98.1176 10.6375C97.8908 10.0795 97.5577 9.57258 97.1375 9.14569C96.7173 8.7188 96.2182 8.38038 95.6689 8.14986C95.1196 7.91934 94.5308 7.80126 93.9365 7.80238" fill="#0080FF"/>
</g>
<defs>
<clipPath id="clip0">
<rect width="140" height="24" fill="white"/>
</clipPath>
</defs>
</svg>
