<svg width="91" height="38" viewBox="0 0 91 38" fill="none" xmlns="http://www.w3.org/2000/svg">
<path d="M6.39524 14.8251C6.39524 13.8404 7.20411 13.4615 8.54405 13.4615C10.465 13.4615 12.8916 14.0424 14.8127 15.0778V9.14329C12.7148 8.31001 10.642 7.98171 8.54405 7.98171C3.4125 7.98171 0 10.6586 0 15.1284C0 22.0978 9.60548 20.9869 9.60548 23.992C9.60548 25.1534 8.59452 25.5323 7.17887 25.5323C5.08089 25.5323 2.40137 24.6736 0.277977 23.5121V29.5222C2.62887 30.5323 5.005 30.9615 7.17887 30.9615C12.4366 30.9615 16.0514 28.3606 16.0514 23.8404C16.0261 16.3152 6.39524 17.6534 6.39524 14.8251ZM23.483 2.93129L17.3152 4.24432L17.29 24.4716C17.29 28.2092 20.0959 30.9615 23.837 30.9615C25.9098 30.9615 27.4264 30.5827 28.2605 30.1282V25.002C27.4518 25.3303 23.4577 26.4918 23.4577 22.7544V13.7898H28.2605V8.41104H23.4577L23.483 2.93129ZM36.122 10.2797L35.7175 8.41104H30.2575V30.5069H36.577V15.5323C38.0682 13.5879 40.5961 13.9414 41.3798 14.2191V8.41104C40.5709 8.10795 37.6134 7.55238 36.122 10.2797ZM42.9216 8.41104H49.2664V30.5069H42.9216V8.41104ZM42.9216 6.49183L49.2664 5.1282V0.00195312L42.9216 1.34038V6.49165V6.49183ZM62.4614 7.98171C59.9841 7.98171 58.3916 9.14329 57.507 9.95153L57.1782 8.38583H51.6173V37.8301L57.9366 36.4918L57.962 29.3453C58.872 30.002 60.2116 30.9363 62.4361 30.9363C66.9609 30.9363 71.0811 27.2999 71.0811 19.2949C71.0559 11.9716 66.885 7.98171 62.4614 7.98171ZM60.9448 25.3807C59.4534 25.3807 58.5685 24.8505 57.962 24.1939L57.9366 14.8251C58.5939 14.0929 59.5039 13.5879 60.9448 13.5879C63.245 13.5879 64.8375 16.1635 64.8375 19.4716C64.8375 22.8555 63.2702 25.3807 60.9448 25.3807ZM91 19.5474C91 13.0827 87.8655 7.98171 81.8748 7.98171C75.8585 7.98171 72.2185 13.0829 72.2185 19.497C72.2185 27.0978 76.5159 30.9363 82.6835 30.9363C85.6916 30.9363 87.9666 30.2544 89.6855 29.2949V24.2443C87.9668 25.103 85.995 25.6333 83.4925 25.6333C81.0405 25.6333 78.8666 24.7747 78.5886 21.7949H90.9495C90.9495 21.4664 91 20.1534 91 19.5474ZM78.5127 17.1484C78.5127 14.2949 80.257 13.108 81.8495 13.108C83.3914 13.108 85.0345 14.2949 85.0345 17.1484H78.5127Z" fill="#6772E5"/>
</svg>
