<svg width="99" height="20" viewBox="0 0 99 20" fill="none" xmlns="http://www.w3.org/2000/svg">
<path d="M51.168 9.37826C50.3632 9.37826 49.783 9.64217 49.1947 9.91104V15.995C49.7582 16.0486 50.0812 16.0486 50.6158 16.0486C52.5475 16.0486 52.8123 15.164 52.8123 13.9288V11.0231C52.8123 10.1109 52.5096 9.37826 51.168 9.37826ZM38.3388 9.04623C36.9985 9.04623 36.6926 9.78202 36.6926 10.6933V11.2053H39.9832V10.6933C39.9832 9.78202 39.6773 9.04623 38.3388 9.04623ZM13.4862 15.3787C13.4862 16.0996 13.8263 16.4741 14.577 16.4741C15.3823 16.4741 15.8591 16.2115 16.4469 15.9417V14.4986H14.6862C13.8525 14.4986 13.4862 14.6538 13.4862 15.3787ZM63.6475 9.37826C62.305 9.37826 61.8399 10.1109 61.8399 11.0231V14.3519C61.8399 15.2664 62.305 16.0013 63.6475 16.0013C64.9865 16.0013 65.4552 15.2664 65.4552 14.3519V11.0231C65.4548 10.1109 64.986 9.37826 63.6475 9.37826ZM6.90692 19.1113H2.96046V9.55917H0.988579V6.26774H2.96091V4.29089C2.96091 1.60533 4.07384 0.00878906 7.23715 0.00878906H9.87083V3.30112H8.22467C6.99309 3.30112 6.91189 3.76127 6.91189 4.61977L6.90692 6.26729H9.88888L9.54016 9.55871H6.90692V19.1113ZM20.3943 19.1362H17.1051L16.963 18.3043C15.4612 19.1362 14.1209 19.271 13.2367 19.271C10.8245 19.271 9.54061 17.6596 9.54061 15.431C9.54061 12.8019 11.0388 11.8635 13.719 11.8635H16.4469V11.2951C16.4469 9.953 16.2931 9.55917 14.2292 9.55917H10.8547L11.1845 6.26774H14.8729C19.4014 6.26774 20.3943 7.69826 20.3943 11.3217V19.1362ZM31.5791 9.80052C29.5323 9.44954 28.9445 9.3724 27.9597 9.3724C26.1908 9.3724 25.6562 9.76262 25.6562 11.2649V14.1065C25.6562 15.6088 26.1908 16.0008 27.9597 16.0008C28.9445 16.0008 29.5323 15.9223 31.5791 15.57V18.7807C29.7863 19.1826 28.6184 19.2882 27.6313 19.2882C23.3943 19.2882 21.7102 17.0601 21.7102 13.8413V11.5356C21.7102 8.31405 23.3943 6.08187 27.6313 6.08187C28.6184 6.08187 29.7863 6.18789 31.5791 6.59165V9.80052ZM43.9292 13.8413H36.6922V14.1065C36.6922 15.6088 37.2272 16.0008 38.9957 16.0008C40.5854 16.0008 41.5558 15.9223 43.599 15.57V18.7807C41.6284 19.1826 40.6017 19.2882 38.6686 19.2882C34.4311 19.2882 32.7462 17.0601 32.7462 13.8413V11.2049C32.7462 8.38849 33.9963 6.08187 38.3384 6.08187C42.6805 6.08187 43.9292 8.36187 43.9292 11.2049V13.8413ZM56.7579 13.9022C56.7579 17.0131 55.8687 19.2823 50.4823 19.2823C48.537 19.2823 47.3961 19.1113 45.2492 18.7811V0.997662L49.1943 0.339467V6.56007C50.0469 6.24337 51.1504 6.08232 52.1546 6.08232C56.1002 6.08232 56.7575 7.8512 56.7575 10.6938V13.9022H56.7579ZM69.4044 13.9698C69.4044 16.6536 68.2964 19.2566 63.6606 19.2566C59.0226 19.2566 57.8938 16.6536 57.8938 13.9698V11.3786C57.8938 8.69345 59.0226 6.08999 63.6606 6.08999C68.2964 6.08999 69.4044 8.69345 69.4044 11.3786V13.9698ZM82.0423 13.9698C82.0423 16.6536 80.9329 19.2566 76.2981 19.2566C71.66 19.2566 70.5313 16.6536 70.5313 13.9698V11.3786C70.5313 8.69345 71.66 6.08999 76.2981 6.08999C80.9329 6.08999 82.0423 8.69345 82.0423 11.3786V13.9698ZM95.0117 19.1113H90.7355L87.1188 13.0739V19.1113H83.1723V0.99721L87.1188 0.339015V12.0002L90.7355 6.26774H95.0117L91.0635 12.5235L95.0117 19.1113ZM76.2845 9.37826C74.9442 9.37826 74.4791 10.1109 74.4791 11.0231V14.3519C74.4791 15.2664 74.9442 16.0013 76.2845 16.0013C77.623 16.0013 78.0967 15.2664 78.0967 14.3519V11.0231C78.0967 10.1109 77.623 9.37826 76.2845 9.37826ZM97.2642 16.8584C97.9287 16.8584 98.4579 17.4002 98.4579 18.0769C98.4579 18.764 97.9283 19.2999 97.2593 19.2999C96.5934 19.2999 96.0534 18.764 96.0534 18.0769C96.0534 17.4002 96.5934 16.8584 97.2593 16.8584H97.2642ZM97.2593 17.0479C96.7238 17.0479 96.2857 17.5085 96.2857 18.0769C96.2857 18.6557 96.7242 19.1104 97.2642 19.1104C97.8047 19.1159 98.2364 18.6557 98.2364 18.0823C98.2364 17.5089 97.8047 17.0479 97.2642 17.0479H97.2593ZM97.0323 18.7861H96.8158V17.4264C96.9295 17.4106 97.0378 17.3948 97.2002 17.3948C97.4059 17.3948 97.5403 17.4381 97.6229 17.4972C97.7027 17.5572 97.7456 17.6488 97.7456 17.7783C97.7456 17.9578 97.6274 18.0656 97.4817 18.1094V18.1198C97.6003 18.1419 97.6811 18.2492 97.7086 18.4491C97.7402 18.6607 97.7731 18.7414 97.7943 18.7856H97.5674C97.5354 18.7414 97.5024 18.6174 97.4753 18.4383C97.4438 18.2655 97.3562 18.2005 97.183 18.2005H97.0328V18.7861H97.0323ZM97.0323 18.0336H97.1893C97.3671 18.0336 97.5182 17.9682 97.5182 17.7999C97.5182 17.6808 97.4325 17.5622 97.1893 17.5622C97.1185 17.5622 97.0693 17.5676 97.0323 17.5725V18.0336Z" fill="#3B5998"/>
</svg>
