<svg width="91" height="30" viewBox="0 0 91 30" fill="none" xmlns="http://www.w3.org/2000/svg">
<g clip-path="url(#clip0)">
<path d="M1.21616 1.06268L8.7609 1.37094L13.4118 5.58377L36.7696 5.6865L36.6662 0.959961L52.3759 1.06268L52.2726 5.48101L57.1301 5.6865L57.2334 9.18007L61.3676 5.6865L71.1861 5.58377V1.26817L79.5577 1.06273L79.661 5.48105L85.5522 5.58377L90.0997 9.69384L90.203 24.2845L5.24692 24.49L0.802734 19.8663L1.21616 1.06268Z" fill="white"/>
<path d="M8.5896 27.6834L4.70976 25.3707L2.35488 23.0322L0 20.6937V0.00439453H9.89576L12.2416 2.33526L14.5874 4.66612H25.1976C35.6451 4.66612 35.8084 4.66488 35.8508 4.58633C35.8789 4.53411 35.8937 3.72829 35.8937 2.25547V0.00439453H53.5702L53.5809 2.32494L53.5916 4.64549L55.9154 4.66612L58.2391 4.68675L58.2501 5.91406C58.2562 6.5891 58.2744 7.14137 58.2907 7.14137C58.307 7.14137 58.8816 6.58444 59.5677 5.90374L60.815 4.66612H66.0387L68.3845 2.33526L70.7304 0.00439453H80.5846V2.25547C80.5846 3.72829 80.5994 4.53411 80.6275 4.58633C80.6694 4.66401 80.745 4.66612 83.5013 4.66612H86.332L88.666 6.98679L91 9.3075V24.8236L87.1098 27.4106L83.2196 29.9978L80.6175 29.9969L78.0153 29.9962L78.0032 28.7619C77.9966 28.0831 77.9778 27.5145 77.9616 27.4984C77.9455 27.4823 77.1311 28.0377 76.1519 28.7327L74.3718 29.9962H69.6712V28.7586C69.6712 27.7927 69.6598 27.5209 69.6191 27.5209C69.5904 27.5209 69.007 28.0779 68.3226 28.7586L67.0783 29.9962H58.7366L57.4724 28.7388C56.7771 28.0473 56.1937 27.4959 56.1759 27.5136C56.1582 27.5312 56.0413 28.0553 55.9162 28.6781C55.791 29.3009 55.6786 29.8523 55.6664 29.9033L55.6441 29.9962H48.3627L47.1183 28.7585C46.4339 28.0778 45.8505 27.5209 45.8218 27.5209C45.7812 27.5209 45.7697 27.7927 45.7697 28.7585V29.9962H42.1181C40.1097 29.9962 38.4665 29.9907 38.4665 29.9839C38.4665 29.919 37.9636 27.5023 37.9465 27.4853C37.9341 27.4729 37.3503 28.0328 36.6492 28.7294L35.3746 29.9962H21.8273L20.5819 29.5011C19.8968 29.2289 19.3179 29.0061 19.2952 29.0061C19.2702 29.0061 19.254 29.201 19.254 29.5011V29.9962H12.4694L8.5896 27.6834V27.6834ZM12.4694 20.4252V17.5993L10.1457 17.5787L7.82193 17.5581V12.4425L10.1457 12.4219L12.4694 12.4013V6.74946L10.1457 6.72883L7.82193 6.7082L7.80119 4.39797L7.78044 2.08773H2.09553L2.08507 10.8737L2.07458 19.6596L3.88972 21.4659L5.70487 23.2723L9.08718 23.2617L12.4694 23.2511V20.4252ZM34.0791 21.4657L35.894 19.6595L35.8835 13.2045L35.873 6.74946L33.0203 6.73885L30.1676 6.72825L30.1571 12.1432L30.1466 17.5581H28.1133L28.0926 12.1538L28.0718 6.74946L25.2192 6.73885L22.3665 6.72825L22.356 12.1432L22.3454 17.5581H20.3121L20.2914 12.1538L20.2706 6.74946L17.4178 6.73885L14.565 6.72825V23.2718H32.2642L34.0791 21.4657ZM43.6742 15.0003V6.74946L40.8214 6.73885L37.9685 6.72825V23.2723L40.8214 23.2617L43.6742 23.2511V15.0003ZM56.1436 20.4256V17.5794L53.8303 17.5687L51.5169 17.5581V12.4425L53.8303 12.4319L56.1436 12.4212V6.72953L53.8303 6.71884L51.5169 6.7082L51.4961 4.39797L51.4754 2.08773H45.7905L45.78 10.8746L45.7695 19.6615L47.5849 21.4666L49.4002 23.2718H56.1436V20.4256ZM70.7086 20.4251V17.5786H67.3519C64.3293 17.5786 63.9927 17.5721 63.97 17.5134C63.9371 17.4281 63.9371 12.5724 63.97 12.4871C63.9927 12.4283 64.3293 12.4218 67.3519 12.4218H70.7086V6.72875H61.8504L60.0551 8.51353L58.2599 10.2983V19.7022L60.0551 21.4869L61.8504 23.2717H70.7086V20.4251ZM78.52 17.8571L78.5306 12.4425H83.1781L83.1988 17.8468L83.2196 23.2511H88.9045L88.915 16.796L88.9255 10.341L87.1106 8.53485L85.2956 6.72875H81.9493C79.2004 6.72875 78.5947 6.71885 78.5567 6.67338C78.5243 6.63452 78.5074 5.94215 78.4998 4.35283L78.4891 2.08765H72.8042L72.7935 12.6281C72.7877 18.4253 72.7917 23.1918 72.8026 23.2201C72.8181 23.2607 73.4292 23.2717 75.6659 23.2717H78.5095L78.52 17.8571ZM43.6742 3.36653V2.08765H37.9893L37.9783 3.32486C37.9722 4.00527 37.9763 4.58555 37.9875 4.6143C38.0036 4.65597 38.5835 4.66447 40.8409 4.65601L43.6742 4.64541V3.36653Z" fill="#242021"/>
</g>
<defs>
<clipPath id="clip0">
<rect width="91" height="30" fill="white"/>
</clipPath>
</defs>
</svg>
