<svg width="505" height="404" viewBox="0 0 505 404" fill="none" xmlns="http://www.w3.org/2000/svg">
<path d="M381.132 225.728C381.132 227.937 379.341 229.728 377.132 229.728H40.2266C38.0174 229.728 36.2266 227.937 36.2266 225.728V22.7559C36.2266 20.5468 38.0174 18.7559 40.2266 18.7559H377.132C379.341 18.7559 381.132 20.5468 381.132 22.7559V225.728Z" fill="white" stroke="#D2D3E7" stroke-miterlimit="10"/>
<path d="M36.2266 46.0928H381.132" stroke="#D2D3E6" stroke-miterlimit="10"/>
<path d="M60.5971 33.2927C60.5971 36.9034 57.6709 39.8311 54.0621 39.8311C50.4533 39.8311 47.5283 36.9034 47.5283 33.2927C47.5283 29.682 50.4533 26.7544 54.0621 26.7544C57.6709 26.7544 60.5971 29.682 60.5971 33.2927Z" fill="#DDDEEE"/>
<path d="M76.4379 33.2927C76.4379 36.9034 73.5129 39.8311 69.9041 39.8311C66.2952 39.8311 63.3691 36.9034 63.3691 33.2927C63.3691 29.682 66.2952 26.7544 69.9041 26.7544C73.5129 26.7544 76.4379 29.682 76.4379 33.2927Z" fill="#DDDEEE"/>
<path d="M92.2789 33.2927C92.2789 36.9034 89.3527 39.8311 85.7439 39.8311C82.1351 39.8311 79.209 36.9034 79.209 33.2927C79.209 29.682 82.1351 26.7544 85.7439 26.7544C89.3527 26.7544 92.2789 29.682 92.2789 33.2927Z" fill="#DDDEEE"/>
<path d="M74.4701 103.984H56.0869V98.9116H74.4701V103.984Z" fill="#E1E2F3"/>
<path d="M212.693 103.984H87.8672V98.9116H212.693V103.984Z" fill="#E1E2F3"/>
<path d="M258.905 103.984H223.988V98.9116H258.905V103.984Z" fill="#E1E2F3"/>
<path d="M338.769 171.867H303.852V166.794H338.769V171.867Z" fill="#E1E2F3"/>
<path d="M326.856 103.984H266.496V98.9116H326.856V103.984Z" fill="#E1E2F3"/>
<path d="M92.8518 117.56H74.4697V112.487H92.8518V117.56Z" fill="#E1E2F3"/>
<path d="M186.811 117.56H105.788V112.487H186.811V117.56Z" fill="#E1E2F3"/>
<path d="M295.557 171.867H214.533V166.794H295.557V171.867Z" fill="#E1E2F3"/>
<path d="M162.685 158.291H87.8672V153.218H162.685V158.291Z" fill="#E1E2F3"/>
<path d="M141.156 131.136H105.788V126.063H141.156V131.136Z" fill="#E1E2F3"/>
<path d="M282.708 144.714H247.34V139.641H282.708V144.714Z" fill="#E1E2F3"/>
<path d="M270.841 131.136H151.443V126.063H270.841V131.136Z" fill="#E1E2F3"/>
<path d="M207.264 171.867H87.8662V166.794H207.264V171.867Z" fill="#E1E2F3"/>
<path d="M358.393 117.56H262.602V112.487H358.393V117.56Z" fill="#E1E2F3"/>
<path d="M255.012 117.56H195.5V112.487H255.012V117.56Z" fill="#E1E2F3"/>
<path d="M337.314 131.136H277.801V126.063H337.314V131.136Z" fill="#E1E2F3"/>
<path d="M92.8518 131.136H74.4697V126.063H92.8518V131.136Z" fill="#E1E2F3"/>
<path d="M74.4701 144.714H56.0869V139.641H74.4701V144.714Z" fill="#E1E2F3"/>
<path d="M139.15 144.714H87.8672V139.641H139.15V144.714Z" fill="#E1E2F3"/>
<path d="M157.071 185.445H105.788V180.372H157.071V185.445Z" fill="#E1E2F3"/>
<path d="M304.922 199.021H222.327V193.949H304.922V199.021Z" fill="#E1E2F3"/>
<path d="M246.157 185.445H165.89V180.372H246.157V185.445Z" fill="#E1E2F3"/>
<path d="M212.828 199.021H146.674V193.949H212.828V199.021Z" fill="#E1E2F3"/>
<path d="M358.394 185.445H255.585V180.372H358.394V185.445Z" fill="#E1E2F3"/>
<path d="M137.245 199.021H105.788V193.949H137.245V199.021Z" fill="#E1E2F3"/>
<path d="M258.905 158.291H170.164V153.218H258.905V158.291Z" fill="#E1E2F3"/>
<path d="M341.207 158.291H266.496V153.218H341.207V158.291Z" fill="#E1E2F3"/>
<path d="M238.793 144.714H150.193V139.641H238.793V144.714Z" fill="#E1E2F3"/>
<path d="M74.4701 158.291H56.0869V153.218H74.4701V158.291Z" fill="#E1E2F3"/>
<path d="M74.4701 171.867H56.0869V166.794H74.4701V171.867Z" fill="#E1E2F3"/>
<path d="M92.8518 185.445H74.4697V180.372H92.8518V185.445Z" fill="#E1E2F3"/>
<path d="M92.8518 199.021H74.4697V193.949H92.8518V199.021Z" fill="#E1E2F3"/>
<path d="M70.6204 75.8258V77.4098L66.6364 78.9338L70.6204 80.4698V82.0538L64.7164 79.7498V78.1298L70.6204 75.8258ZM72.6677 83.1938H70.9277L74.0837 73.3298H75.8357L72.6677 83.1938ZM76.1421 75.8258L82.0461 78.1298V79.7498L76.1421 82.0538V80.4698L80.1261 78.9338L76.1421 77.4098V75.8258Z" fill="#E1E2F3"/>
<path d="M12.6608 208.125H52.931C58.0766 208.125 62.2482 212.299 62.2482 217.446V233.896V239.649V257.67L52.7758 248.97H12.6608C7.51526 248.97 3.34473 244.796 3.34473 239.649V217.446C3.34473 212.299 7.51526 208.125 12.6608 208.125Z" fill="white"/>
<path d="M12.6608 208.125H52.931C58.0766 208.125 62.2482 212.299 62.2482 217.446V233.896V239.649V257.67L52.7758 248.97H12.6608C7.51526 248.97 3.34473 244.796 3.34473 239.649V217.446C3.34473 212.299 7.51526 208.125 12.6608 208.125Z" stroke="#D2D3E7" stroke-miterlimit="10"/>
<path d="M42.0107 229.288C42.0107 231.526 43.8237 233.341 46.0614 233.341C48.2979 233.341 50.1121 231.526 50.1121 229.288C50.1121 227.049 48.2979 225.235 46.0614 225.235C43.8237 225.235 42.0107 227.049 42.0107 229.288Z" fill="#D2D3E6"/>
<path d="M27.9199 229.288C27.9199 231.526 29.7329 233.341 31.9706 233.341C34.2071 233.341 36.0212 231.526 36.0212 229.288C36.0212 227.049 34.2071 225.235 31.9706 225.235C29.7329 225.235 27.9199 227.049 27.9199 229.288Z" fill="#D2D3E6"/>
<path d="M13.8311 229.288C13.8311 231.526 15.644 233.341 17.8817 233.341C20.1183 233.341 21.9324 231.526 21.9324 229.288C21.9324 227.049 20.1183 225.235 17.8817 225.235C15.644 225.235 13.8311 227.049 13.8311 229.288Z" fill="#D2D3E6"/>
<path d="M420.582 226.017H464.379C468.532 226.017 471.9 222.648 471.9 218.492V193.334C471.9 189.177 468.532 185.809 464.379 185.809H420.582C416.428 185.809 413.06 189.177 413.06 193.334V218.492C413.06 222.648 416.428 226.017 420.582 226.017Z" fill="white" stroke="#D2D3E7"/>
<path d="M432.247 197.455V198.679L424.777 202.027L432.247 205.357V206.617L423.391 202.603V201.451L432.247 197.455ZM434.13 208.183H432.798L437.424 193.711H438.774L434.13 208.183ZM439.317 197.455L448.173 201.451V202.603L439.317 206.617V205.357L446.787 202.027L439.317 198.679V197.455Z" fill="#D2D3E7"/>
<path d="M255.271 139.852C255.271 138.747 254.376 137.852 253.271 137.852H175.525C174.421 137.852 173.525 138.747 173.525 139.852V187.143C173.525 188.247 174.421 189.143 175.525 189.143H253.271C254.376 189.143 255.271 188.247 255.271 187.143V139.852Z" fill="white" stroke="#FF5938" stroke-miterlimit="10"/>
<path d="M181.876 142.722C181.876 143.882 180.938 144.821 179.779 144.821C178.62 144.821 177.682 143.882 177.682 142.722C177.682 141.564 178.62 140.624 179.779 140.624C180.938 140.624 181.876 141.564 181.876 142.722Z" fill="#FF5938"/>
<path d="M188.842 142.722C188.842 143.882 187.903 144.821 186.745 144.821C185.586 144.821 184.647 143.882 184.647 142.722C184.647 141.564 185.586 140.624 186.745 140.624C187.903 140.624 188.842 141.564 188.842 142.722Z" fill="#FF5938"/>
<path d="M195.807 142.722C195.807 143.882 194.868 144.821 193.71 144.821C192.551 144.821 191.612 143.882 191.612 142.722C191.612 141.564 192.551 140.624 193.71 140.624C194.868 140.624 195.807 141.564 195.807 142.722Z" fill="#FF5938"/>
<path d="M192.477 157.259H197.164V175.407H192.477V168.066H185.14V175.407H180.453V157.259H185.14V164.319H192.477V157.259Z" fill="#FF5938"/>
<path d="M204.506 175.407V161.133H199.105V157.259H214.747V161.133H209.346V175.407H204.506Z" fill="#FF5938"/>
<path d="M231.323 157.259H235.042V175.407H230.864L230.839 167.098L227.4 175.407H224.368L220.904 167.2V175.407H216.751V157.259H220.496L225.922 169.646L231.323 157.259Z" fill="#FF5938"/>
<path d="M238.368 175.407V157.259H243.157V171.532H250.825V175.407H238.368Z" fill="#FF5938"/>
<path d="M173.525 147.556H255.772" stroke="#FF5938" stroke-miterlimit="10"/>
<rect x="132.459" y="1.11377" width="84.9026" height="54.4497" rx="1.5" fill="white" stroke="#FF5938"/>
<path d="M142.823 7.12544C142.823 8.52918 141.686 9.66699 140.281 9.66699C138.878 9.66699 137.741 8.52918 137.741 7.12544C137.741 5.72169 138.878 4.5822 140.281 4.5822C141.686 4.5822 142.823 5.72169 142.823 7.12544Z" fill="#FF5938"/>
<path d="M150.676 7.12544C150.676 8.52918 149.539 9.66699 148.134 9.66699C146.731 9.66699 145.594 8.52918 145.594 7.12544C145.594 5.72169 146.731 4.5822 148.134 4.5822C149.539 4.5822 150.676 5.72169 150.676 7.12544Z" fill="#FF5938"/>
<path d="M158.529 7.12544C158.529 8.52918 157.392 9.66699 155.988 9.66699C154.584 9.66699 153.447 8.52918 153.447 7.12544C153.447 5.72169 154.584 4.5822 155.988 4.5822C157.392 4.5822 158.529 5.72169 158.529 7.12544Z" fill="#FF5938"/>
<path d="M156.994 33.6535V42.6667C156.035 43.1043 154.958 43.441 153.764 43.6766C152.586 43.9123 151.375 44.0301 150.13 44.0301C148.179 44.0301 146.48 43.6598 145.033 42.9192C143.603 42.1786 142.501 41.1182 141.727 39.7381C140.953 38.341 140.566 36.6916 140.566 34.7896C140.566 32.9381 140.953 31.3223 141.727 29.9421C142.501 28.5451 143.595 27.4763 145.008 26.7357C146.421 25.9783 148.069 25.5996 149.954 25.5996C151.249 25.5996 152.469 25.7679 153.612 26.1046C154.773 26.4412 155.715 26.904 156.439 27.4932L154.95 30.851C154.126 30.3124 153.327 29.9253 152.553 29.6897C151.796 29.4372 150.98 29.311 150.105 29.311C148.507 29.311 147.312 29.7654 146.522 30.6743C145.748 31.5664 145.361 32.9381 145.361 34.7896C145.361 36.7084 145.765 38.1306 146.572 39.0564C147.396 39.9821 148.658 40.445 150.357 40.445C151.148 40.445 151.939 40.3608 152.729 40.1925V36.8599H149.6V33.6535H156.994Z" fill="#FF5938"/>
<path d="M167.894 44.0301C165.27 44.0301 163.285 43.3737 161.939 42.0608C160.593 40.7311 159.92 38.7871 159.92 36.2287V25.8268H164.538V36.4054C164.538 37.7014 164.824 38.6945 165.396 39.3846C165.985 40.0747 166.818 40.4197 167.894 40.4197C168.954 40.4197 169.77 40.0747 170.342 39.3846C170.914 38.6777 171.2 37.6846 171.2 36.4054V25.8268H175.868V36.2287C175.868 38.7534 175.179 40.689 173.799 42.0356C172.437 43.3652 170.468 44.0301 167.894 44.0301Z" fill="#FF5938"/>
<path d="M178.971 43.8029V25.8268H183.715V39.9653H191.311V43.8029H178.971Z" fill="#FF5938"/>
<path d="M193.584 25.8268H202.139C204.191 25.8268 205.781 26.3234 206.908 27.3164C208.035 28.2926 208.599 29.6223 208.599 31.3055C208.599 32.9718 208.027 34.3015 206.883 35.2945C205.739 36.2876 204.157 36.7841 202.139 36.7841H198.328V43.8029H193.584V25.8268ZM201.508 33.2495C203.291 33.2495 204.183 32.6183 204.183 31.356C204.183 30.7164 203.964 30.2367 203.527 29.9169C203.106 29.5803 202.433 29.4119 201.508 29.4119H198.328V33.2495H201.508Z" fill="#FF5938"/>
<path d="M133.345 12.1035H216.476" stroke="#FF5938" stroke-width="1.47352" stroke-miterlimit="10"/>
<rect x="372.155" y="38.542" width="108.457" height="68.3121" rx="1.5" fill="white" stroke="#FF5938"/>
<path d="M372.155 52.4048V52.791H480.612V52.4048H372.155Z" stroke="#FF5938"/>
<path d="M384.011 46.1087C384.011 47.9386 382.528 49.4224 380.699 49.4224C378.869 49.4224 377.386 47.9386 377.386 46.1087C377.386 44.2776 378.869 42.7938 380.699 42.7938C382.528 42.7938 384.011 44.2776 384.011 46.1087Z" fill="#FF5938"/>
<path d="M393.408 46.1087C393.408 47.9386 391.923 49.4224 390.094 49.4224C388.264 49.4224 386.781 47.9386 386.781 46.1087C386.781 44.2776 388.264 42.7938 390.094 42.7938C391.923 42.7938 393.408 44.2776 393.408 46.1087Z" fill="#FF5938"/>
<path d="M402.803 46.1087C402.803 47.9386 401.32 49.4224 399.491 49.4224C397.661 49.4224 396.178 47.9386 396.178 46.1087C396.178 44.2776 397.661 42.7938 399.491 42.7938C401.32 42.7938 402.803 44.2776 402.803 46.1087Z" fill="#FF5938"/>
<path d="M394.686 88.3367C393.042 88.3367 391.418 88.1209 389.815 87.6891C388.212 87.2573 386.907 86.6713 385.9 85.9311L387.719 81.8293C388.788 82.5078 389.918 83.0321 391.11 83.4022C392.322 83.7517 393.535 83.9265 394.747 83.9265C395.98 83.9265 396.926 83.762 397.583 83.433C398.241 83.0835 398.57 82.6003 398.57 81.9835C398.57 81.4283 398.272 80.976 397.676 80.6265C397.08 80.2564 395.96 79.8966 394.316 79.547C392.24 79.1358 390.627 78.6321 389.476 78.0358C388.325 77.419 387.514 76.6994 387.041 75.8769C386.589 75.0545 386.363 74.0573 386.363 72.8854C386.363 71.5489 386.743 70.3461 387.503 69.277C388.264 68.1872 389.332 67.3442 390.709 66.748C392.086 66.1312 393.658 65.8228 395.425 65.8228C397.008 65.8228 398.539 66.0489 400.018 66.5013C401.518 66.933 402.69 67.5087 403.532 68.2284L401.745 72.3302C400.779 71.6517 399.761 71.1377 398.693 70.7882C397.624 70.4181 396.556 70.233 395.487 70.233C394.439 70.233 393.596 70.4386 392.959 70.8498C392.322 71.2405 392.004 71.7751 392.004 72.4536C392.004 72.8237 392.117 73.1321 392.343 73.3788C392.569 73.6255 392.99 73.8723 393.607 74.119C394.223 74.3452 395.148 74.5919 396.381 74.8592C398.374 75.291 399.936 75.8153 401.066 76.4321C402.217 77.0283 403.029 77.7377 403.502 78.5601C403.974 79.362 404.211 80.3283 404.211 81.4592C404.211 83.5975 403.378 85.2835 401.714 86.5171C400.049 87.7302 397.706 88.3367 394.686 88.3367Z" fill="#FF5938"/>
<path d="M418.109 88.3367C415.828 88.3367 413.834 87.8741 412.129 86.9489C410.444 86.0031 409.139 84.6769 408.214 82.9704C407.31 81.2638 406.858 79.29 406.858 77.0489C406.858 74.8283 407.31 72.8751 408.214 71.1891C409.139 69.4826 410.444 68.1667 412.129 67.2414C413.834 66.2957 415.828 65.8228 418.109 65.8228C419.547 65.8228 420.935 66.0386 422.27 66.4704C423.627 66.9022 424.716 67.4882 425.538 68.2284L423.781 72.3302C421.993 71.0349 420.143 70.3872 418.232 70.3872C416.465 70.3872 415.109 70.9527 414.163 72.0835C413.218 73.1938 412.745 74.8489 412.745 77.0489C412.745 79.2695 413.218 80.9452 414.163 82.076C415.109 83.2068 416.465 83.7723 418.232 83.7723C420.143 83.7723 421.993 83.1246 423.781 81.8293L425.538 85.9311C424.716 86.6713 423.627 87.2573 422.27 87.6891C420.935 88.1209 419.547 88.3367 418.109 88.3367Z" fill="#FF5938"/>
<path d="M436.017 88.3367C434.373 88.3367 432.749 88.1209 431.146 87.6891C429.543 87.2573 428.238 86.6713 427.231 85.9311L429.05 81.8293C430.119 82.5078 431.249 83.0321 432.441 83.4022C433.653 83.7517 434.866 83.9265 436.078 83.9265C437.311 83.9265 438.257 83.762 438.914 83.433C439.572 83.0835 439.901 82.6003 439.901 81.9835C439.901 81.4283 439.603 80.976 439.007 80.6265C438.411 80.2564 437.291 79.8966 435.647 79.547C433.571 79.1358 431.958 78.6321 430.807 78.0358C429.656 77.419 428.845 76.6994 428.372 75.8769C427.92 75.0545 427.694 74.0573 427.694 72.8854C427.694 71.5489 428.074 70.3461 428.834 69.277C429.595 68.1872 430.663 67.3442 432.04 66.748C433.417 66.1312 434.989 65.8228 436.756 65.8228C438.339 65.8228 439.87 66.0489 441.349 66.5013C442.85 66.933 444.021 67.5087 444.863 68.2284L443.076 72.3302C442.11 71.6517 441.093 71.1377 440.024 70.7882C438.955 70.4181 437.887 70.233 436.818 70.233C435.77 70.233 434.927 70.4386 434.29 70.8498C433.653 71.2405 433.335 71.7751 433.335 72.4536C433.335 72.8237 433.448 73.1321 433.674 73.3788C433.9 73.6255 434.321 73.8723 434.938 74.119C435.554 74.3452 436.479 74.5919 437.712 74.8592C439.705 75.291 441.267 75.8153 442.397 76.4321C443.548 77.0283 444.36 77.7377 444.833 78.5601C445.305 79.362 445.542 80.3283 445.542 81.4592C445.542 83.5975 444.709 85.2835 443.045 86.5171C441.38 87.7302 439.037 88.3367 436.017 88.3367Z" fill="#FF5938"/>
<path d="M456.727 88.3367C455.083 88.3367 453.46 88.1209 451.857 87.6891C450.254 87.2573 448.949 86.6713 447.942 85.9311L449.761 81.8293C450.829 82.5078 451.96 83.0321 453.152 83.4022C454.364 83.7517 455.576 83.9265 456.789 83.9265C458.022 83.9265 458.967 83.762 459.625 83.433C460.282 83.0835 460.611 82.6003 460.611 81.9835C460.611 81.4283 460.313 80.976 459.717 80.6265C459.121 80.2564 458.001 79.8966 456.357 79.547C454.282 79.1358 452.669 78.6321 451.518 78.0358C450.367 77.419 449.555 76.6994 449.083 75.8769C448.631 75.0545 448.404 74.0573 448.404 72.8854C448.404 71.5489 448.785 70.3461 449.545 69.277C450.305 68.1872 451.374 67.3442 452.751 66.748C454.128 66.1312 455.7 65.8228 457.467 65.8228C459.049 65.8228 460.58 66.0489 462.06 66.5013C463.56 66.933 464.732 67.5087 465.574 68.2284L463.786 72.3302C462.82 71.6517 461.803 71.1377 460.735 70.7882C459.666 70.4181 458.597 70.233 457.529 70.233C456.481 70.233 455.638 70.4386 455.001 70.8498C454.364 71.2405 454.046 71.7751 454.046 72.4536C454.046 72.8237 454.159 73.1321 454.385 73.3788C454.611 73.6255 455.032 73.8723 455.648 74.119C456.265 74.3452 457.19 74.5919 458.423 74.8592C460.416 75.291 461.978 75.8153 463.108 76.4321C464.259 77.0283 465.071 77.7377 465.543 78.5601C466.016 79.362 466.252 80.3283 466.252 81.4592C466.252 83.5975 465.42 85.2835 463.755 86.5171C462.091 87.7302 459.748 88.3367 456.727 88.3367Z" fill="#FF5938"/>
<rect x="14.6895" y="91.2192" width="90.4447" height="58.6084" rx="1.5" fill="white" stroke="#FF5938"/>
<path d="M16.0752 103.696V104.082H105.134V103.696H16.0752Z" stroke="#FF5938"/>
<path d="M25.216 97.622C25.216 99.1378 23.9876 100.366 22.4737 100.366C20.9587 100.366 19.7314 99.1378 19.7314 97.622C19.7314 96.1062 20.9587 94.8783 22.4737 94.8783C23.9876 94.8783 25.216 96.1062 25.216 97.622Z" fill="#FF5938"/>
<path d="M33.4729 97.622C33.4729 99.1378 32.2444 100.366 30.7306 100.366C29.2156 100.366 27.9883 99.1378 27.9883 97.622C27.9883 96.1062 29.2156 94.8783 30.7306 94.8783C32.2444 94.8783 33.4729 96.1062 33.4729 97.622Z" fill="#FF5938"/>
<path d="M41.7287 97.622C41.7287 99.1378 40.5014 100.366 38.9864 100.366C37.4714 100.366 36.2441 99.1378 36.2441 97.622C36.2441 96.1062 37.4714 94.8783 38.9864 94.8783C40.5014 94.8783 41.7287 96.1062 41.7287 97.622Z" fill="#FF5938"/>
<path d="M39.8197 139.237C37.3548 139.237 35.2009 138.737 33.3578 137.738C31.537 136.716 30.1269 135.283 29.1277 133.439C28.1506 131.595 27.6621 129.462 27.6621 127.04C27.6621 124.641 28.1506 122.53 29.1277 120.708C30.1269 118.864 31.537 117.442 33.3578 116.443C35.2009 115.421 37.3548 114.91 39.8197 114.91C41.374 114.91 42.8729 115.143 44.3163 115.61C45.7818 116.076 46.9587 116.709 47.847 117.509L45.9484 121.941C44.0165 120.542 42.018 119.842 39.9529 119.842C38.0432 119.842 36.5776 120.453 35.5562 121.675C34.5347 122.874 34.024 124.663 34.024 127.04C34.024 129.44 34.5347 131.25 35.5562 132.472C36.5776 133.694 38.0432 134.305 39.9529 134.305C42.018 134.305 44.0165 133.605 45.9484 132.206L47.847 136.638C46.9587 137.438 45.7818 138.071 44.3163 138.538C42.8729 139.004 41.374 139.237 39.8197 139.237Z" fill="#FF5938"/>
<path d="M59.17 139.237C57.3935 139.237 55.6393 139.004 53.9073 138.538C52.1752 138.071 50.7652 137.438 49.6771 136.638L51.6423 132.206C52.797 132.939 54.0183 133.505 55.3062 133.905C56.6163 134.283 57.9265 134.472 59.2366 134.472C60.5689 134.472 61.5904 134.294 62.301 133.939C63.0115 133.561 63.3668 133.039 63.3668 132.372C63.3668 131.772 63.0448 131.284 62.4009 130.906C61.7569 130.506 60.5467 130.117 58.7703 129.74C56.5275 129.295 54.7844 128.751 53.5409 128.107C52.2974 127.44 51.4202 126.662 50.9095 125.774C50.421 124.885 50.1767 123.808 50.1767 122.541C50.1767 121.097 50.5875 119.797 51.4091 118.642C52.2307 117.465 53.3854 116.554 54.8732 115.909C56.361 115.243 58.0597 114.91 59.9694 114.91C61.6792 114.91 63.3335 115.154 64.9323 115.643C66.5533 116.109 67.819 116.731 68.7295 117.509L66.7976 121.941C65.7539 121.208 64.6548 120.653 63.5001 120.275C62.3454 119.875 61.1907 119.675 60.036 119.675C58.9035 119.675 57.9931 119.897 57.3047 120.342C56.6163 120.764 56.2722 121.342 56.2722 122.075C56.2722 122.475 56.3943 122.808 56.6385 123.074C56.8828 123.341 57.338 123.608 58.0042 123.874C58.6704 124.119 59.6696 124.385 61.0019 124.674C63.1559 125.141 64.8435 125.707 66.0648 126.374C67.3083 127.018 68.1854 127.784 68.6962 128.673C69.2069 129.54 69.4623 130.584 69.4623 131.806C69.4623 134.116 68.5629 135.938 66.7643 137.271C64.9656 138.582 62.4342 139.237 59.17 139.237Z" fill="#FF5938"/>
<path d="M81.549 139.237C79.7726 139.237 78.0183 139.004 76.2863 138.538C74.5543 138.071 73.1442 137.438 72.0561 136.638L74.0213 132.206C75.176 132.939 76.3973 133.505 77.6853 133.905C78.9954 134.283 80.3055 134.472 81.6156 134.472C82.948 134.472 83.9694 134.294 84.68 133.939C85.3906 133.561 85.7459 133.039 85.7459 132.372C85.7459 131.772 85.4239 131.284 84.7799 130.906C84.136 130.506 82.9258 130.117 81.1493 129.74C78.9066 129.295 77.1634 128.751 75.9199 128.107C74.6764 127.44 73.7993 126.662 73.2886 125.774C72.8 124.885 72.5558 123.808 72.5558 122.541C72.5558 121.097 72.9666 119.797 73.7882 118.642C74.6098 117.465 75.7645 116.554 77.2522 115.909C78.74 115.243 80.4387 114.91 82.3484 114.91C84.0582 114.91 85.7126 115.154 87.3114 115.643C88.9324 116.109 90.1981 116.731 91.1085 117.509L89.1766 121.941C88.133 121.208 87.0338 120.653 85.8791 120.275C84.7244 119.875 83.5697 119.675 82.415 119.675C81.2826 119.675 80.3721 119.897 79.6838 120.342C78.9954 120.764 78.6512 121.342 78.6512 122.075C78.6512 122.475 78.7733 122.808 79.0176 123.074C79.2618 123.341 79.7171 123.608 80.3832 123.874C81.0494 124.119 82.0486 124.385 83.381 124.674C85.5349 125.141 87.2225 125.707 88.4438 126.374C89.6874 127.018 90.5645 127.784 91.0752 128.673C91.5859 129.54 91.8413 130.584 91.8413 131.806C91.8413 134.116 90.942 135.938 89.1433 137.271C87.3447 138.582 84.8132 139.237 81.549 139.237Z" fill="#FF5938"/>
<path d="M0 365.051H505" stroke="#383955" stroke-width="1.33333" stroke-miterlimit="10"/>
<path d="M192.909 205.726C190.632 202.053 189.113 194.967 189.873 188.131C190.632 181.293 190.885 170.911 182.279 170.405C173.676 169.899 170.764 187.243 170.259 190.916C169.753 194.587 154.442 196.866 142.167 193.043C129.892 189.218 106.989 184.838 96.8992 187.371C86.8091 189.902 90.5538 198.713 90.5538 198.713L90.5721 198.723C83.6124 203.621 91.2548 209.822 91.2548 209.822C84.1684 216.236 92.0425 223.012 97.0476 223.676C96.9106 224.312 96.8615 224.977 96.9917 225.691C98.3412 233.117 129.048 230.416 146.596 238.181C164.143 245.946 176.29 278.696 176.29 278.696L212.904 234.721C212.904 234.721 195.187 209.4 192.909 205.726Z" fill="white"/>
<path d="M133.436 206.445C133.436 206.445 98.3421 203.407 91.2558 209.822C84.1694 216.236 92.0435 223.012 97.0486 223.675" stroke="#383955" stroke-width="1.33333" stroke-miterlimit="10"/>
<path d="M133.436 198.681C133.436 198.681 106.947 191.591 93.7865 196.992C81.5751 202.005 91.2554 209.823 91.2554 209.823" stroke="#383955" stroke-width="1.33333" stroke-miterlimit="10"/>
<path d="M90.5543 198.713C90.5543 198.713 86.8108 189.903 96.8997 187.37C106.99 184.838 129.893 189.217 142.167 193.042C154.441 196.866 169.753 194.587 170.259 190.916C170.766 187.243 173.676 169.898 182.281 170.405C190.886 170.911 190.632 181.293 189.873 188.13C189.114 194.967 190.632 202.053 192.91 205.726C195.188 209.399 212.904 234.72 212.904 234.72L176.292 278.695C176.292 278.695 164.143 245.947 146.596 238.182C129.049 230.416 98.3428 233.117 96.9922 225.69C95.6427 218.262 109.14 214.886 129.724 217.25" stroke="#383955" stroke-width="1.33333" stroke-miterlimit="10"/>
<path d="M161.758 263.184L216.931 231.364C216.931 231.364 264.73 317.744 326.368 340.007L252.947 367.739L194.026 363.956C194.026 363.956 170.596 314.506 161.758 263.184Z" fill="#FF5938"/>
<path opacity="0.300003" d="M161.758 263.184L216.931 231.364C216.931 231.364 264.73 317.744 326.368 340.007L252.947 367.739L194.026 363.956C194.026 363.956 170.596 314.506 161.758 263.184Z" fill="white"/>
<path d="M325.843 339.808C325.462 339.669 325.081 339.521 324.701 339.376V340.636L325.843 340.206V339.808Z" fill="#FAFAFA"/>
<path d="M279.104 354.298H257.446V331.571H279.104V354.298ZM256.305 330.428H234.649V307.7H256.305V330.428ZM256.305 354.298H234.649V331.571H256.305V354.298ZM233.506 282.685H211.848V259.957H233.506V282.685ZM233.506 306.556H211.848V283.827H233.506V306.556ZM233.506 330.428H211.848V307.7H233.506V330.428ZM233.506 354.298H211.848V331.571H233.506V354.298ZM210.707 282.685H189.049V259.957H210.707V282.685ZM210.707 306.556H189.049V283.827H210.707V306.556ZM210.707 330.428H189.049V307.7H210.707V330.428ZM301.904 331.571V349.247L303.045 348.818V331.571H308.371C307.715 331.195 307.058 330.817 306.405 330.428H303.045V328.356C302.664 328.115 302.283 327.873 301.904 327.627V330.428H280.246V311.005C279.864 310.666 279.483 310.326 279.104 309.984V330.428H257.447V307.698H276.602C276.193 307.319 275.784 306.938 275.379 306.556H257.447V287.926C257.065 287.492 256.682 287.058 256.305 286.624V306.556H234.648V283.827H253.906C253.582 283.446 253.263 283.065 252.943 282.685H234.648V259.957H235.369C234.732 259.063 234.114 258.186 233.506 257.319V258.815H211.848V236.085H219.682C219.438 235.679 219.214 235.303 219.002 234.943H211.848V234.297L208.745 236.085H210.707V258.815H189.05V247.444L187.909 248.103V258.815H169.335L167.355 259.957H187.909V282.685H166.251V260.594L165.109 261.252V279.793C165.479 281.406 165.859 283.012 166.251 284.609V283.827H187.909V306.556H172.311C172.427 306.938 172.545 307.319 172.662 307.698H187.909V330.428H180.329C180.468 330.812 180.609 331.192 180.748 331.571H187.909V349.92C188.304 350.875 188.684 351.786 189.05 352.656V331.571H210.707V354.298H189.744C189.911 354.69 190.074 355.071 190.234 355.44H210.707V365.026L211.848 365.099V355.44H233.506V366.491L234.648 366.565V355.44H256.305V366.471L257.447 366.041V355.44H279.104V357.86L280.246 357.429V355.44H285.508L288.532 354.298H280.246V331.571H301.904Z" fill="#FAFAFA"/>
<path d="M161.758 263.184L216.931 231.364C216.931 231.364 264.73 317.744 326.368 340.007L252.947 367.739L194.026 363.956C194.026 363.956 170.596 314.506 161.758 263.184Z" stroke="#383955" stroke-width="1.33333" stroke-miterlimit="10"/>
<path d="M166.629 285.316L229.44 252.156" stroke="#383955" stroke-width="1.33333" stroke-miterlimit="10"/>
<path d="M219.144 247.031C219.144 249.629 217.039 251.735 214.443 251.735C211.846 251.735 209.741 249.629 209.741 247.031C209.741 244.434 211.846 242.327 214.443 242.327C217.039 242.327 219.144 244.434 219.144 247.031Z" fill="#383955"/>
<path d="M395.226 281.91C395.226 281.91 409.944 320.745 355.93 334.49C301.918 348.233 238.334 345.836 238.334 345.836C238.334 345.836 231.874 345.924 232.262 328.985C232.649 312.045 231.883 278.584 253.635 241.611C275.386 204.638 288.918 191.111 299.945 186.894C303.781 185.426 330.408 183.206 345.118 191.727C372.689 207.698 393.975 245.181 395.226 281.91Z" fill="#FF5938"/>
<path opacity="0.300003" d="M395.226 281.91C395.226 281.91 409.944 320.745 355.93 334.49C301.918 348.233 238.334 345.836 238.334 345.836C238.334 345.836 231.874 345.924 232.262 328.985C232.649 312.045 231.883 278.584 253.635 241.611C275.386 204.638 288.918 191.111 299.945 186.894C303.781 185.426 330.408 183.206 345.118 191.727C372.689 207.698 393.975 245.181 395.226 281.91Z" fill="white"/>
<path d="M377.212 254.283H355.555V231.555H377.212V254.283ZM377.212 278.154H355.555V255.425H377.212V278.154ZM377.212 302.026H355.555V279.297H377.212V302.026ZM377.212 325.896H355.555V303.168H377.212V325.896ZM354.413 230.412H332.756V207.683H354.413V230.412ZM354.413 254.283H332.756V231.555H354.413V254.283ZM354.413 278.154H332.756V255.425H354.413V278.154ZM354.413 302.026H332.756V279.297H354.413V302.026ZM354.413 325.896H332.756V303.168H354.413V325.896ZM331.614 230.412H309.956V207.683H331.614V230.412ZM331.614 254.283H309.956V231.555H331.614V254.283ZM331.614 278.154H309.956V255.425H331.614V278.154ZM331.614 302.026H309.956V279.297H331.614V302.026ZM331.614 325.896H309.956V303.168H331.614V325.896ZM308.816 230.412H287.158V207.683H308.816V230.412ZM308.816 254.283H287.158V231.555H308.816V254.283ZM308.816 278.154H287.158V255.425H308.816V278.154ZM308.816 302.026H287.158V279.297H308.816V302.026ZM308.816 325.896H287.158V303.168H308.816V325.896ZM286.017 254.283H264.358V231.555H286.017V254.283ZM286.017 278.154H264.358V255.425H286.017V278.154ZM286.017 302.026H264.358V279.297H286.017V302.026ZM286.017 325.896H264.358V303.168H286.017V325.896ZM263.216 302.026H241.56V279.297H263.216V302.026ZM263.216 325.896H241.56V303.168H263.216V325.896ZM378.354 303.168H395.797C395.902 302.785 396 302.404 396.089 302.026H378.354V279.296H395.092C395.07 278.916 395.051 278.534 395.024 278.154H378.354V255.425H390.981C390.874 255.045 390.77 254.662 390.657 254.283H378.354V231.554H381.405C381.201 231.17 380.993 230.792 380.787 230.412H378.354V226.116C377.982 225.491 377.595 224.877 377.212 224.262V230.412H355.555V207.683H364.665C364.308 207.297 363.946 206.92 363.584 206.541H355.555V199.037C355.177 198.724 354.795 198.42 354.413 198.116V206.541H332.756V187.252C332.377 187.17 331.995 187.094 331.614 187.018V206.541H309.958V185.61C309.569 185.628 309.188 185.647 308.816 185.67V206.541H287.158V195.393C286.782 195.743 286.401 196.1 286.017 196.472V206.541H276.996C276.695 206.915 276.394 207.294 276.09 207.683H286.017V230.412H264.358V224.24C263.979 224.821 263.601 225.398 263.216 225.994V230.412H260.419C260.181 230.793 259.945 231.167 259.705 231.554H263.216V254.283H246.962C246.784 254.663 246.598 255.046 246.425 255.425H263.216V278.154H241.56V267.405C241.163 268.52 240.781 269.627 240.418 270.728V278.154H238.174C238.069 278.537 237.974 278.914 237.873 279.296H240.418V302.026H233.639C233.596 302.407 233.551 302.79 233.511 303.168H240.418V325.896H232.32C232.313 326.284 232.307 326.664 232.3 327.038H240.418V345.894C240.758 345.902 241.142 345.912 241.56 345.918V327.038H263.216V345.824C263.592 345.816 263.976 345.804 264.358 345.794V327.038H286.017V344.788C286.396 344.764 286.777 344.737 287.158 344.711V327.038H308.816V342.768C309.196 342.726 309.576 342.682 309.958 342.639V327.038H331.614V339.579C331.994 339.514 332.375 339.451 332.756 339.386V327.038H354.413V334.867C354.793 334.773 355.175 334.679 355.555 334.583V327.038H375.484C376.483 326.486 377.442 325.923 378.354 325.347V303.168Z" fill="#FAFAFA"/>
<path d="M295.988 186.895C295.988 186.895 221.682 249.941 233.546 343.235" stroke="#383955" stroke-width="1.33333" stroke-miterlimit="10"/>
<path d="M347.061 322.363L351.297 381.472L280.935 374.439C280.935 374.439 274.136 372.338 268.786 377.584C263.437 382.83 263.535 385.65 263.113 387.445C262.693 389.238 261.118 395.914 257.999 399.419C254.882 402.925 252.286 402.797 250.046 400.519L247.807 398.24C247.807 398.24 246.926 397.785 245.727 398.96C244.529 400.134 241.434 401.507 239.731 399.166C238.026 396.824 237.958 397.095 237.958 397.095C237.958 397.095 237.422 396.103 236.451 397.064C235.478 398.024 231.209 399.664 228.999 397.024C226.79 394.386 225.907 392.623 225.907 392.623C225.907 392.623 225.256 392.4 223.936 392.92C222.616 393.437 217.191 394.743 214.216 388.321C211.24 381.899 213.037 372.161 214.216 365.773C215.393 359.384 220.856 345.531 225.812 339.929C230.768 334.327 240.133 327.84 249.925 326.215C259.717 324.589 286.968 323.493 298.463 323.215C309.959 322.938 347.061 322.363 347.061 322.363Z" fill="white"/>
<path d="M258.011 357.055C258.011 357.055 247.696 375.255 245.824 385.253C243.953 395.25 249.6 402.415 252.863 402.199C256.127 401.981 260.736 398.614 262.761 388.912C264.788 379.209 271.368 374.24 276.195 374.139C281.02 374.037 354.941 381.856 354.941 381.856" stroke="#383955" stroke-width="1.33333" stroke-miterlimit="10"/>
<path d="M245.111 354.648C245.111 354.648 236.605 374.148 235.778 384.347C234.951 394.545 239.599 400.171 241.835 400.495C244.07 400.82 247.418 397.555 247.418 397.555" stroke="#383955" stroke-width="1.33333" stroke-miterlimit="10"/>
<path d="M233.82 347.454C233.82 347.454 224.549 365.855 223.954 376.495C223.358 387.134 225.447 394.671 229.515 397.409C233.584 400.148 237.659 396.124 237.659 396.124" stroke="#383955" stroke-width="1.33333" stroke-miterlimit="10"/>
<path d="M348.965 322.346C348.965 322.346 278.689 322.883 255.936 325.291C233.184 327.699 223.417 340.166 218.259 352.831C213.102 365.499 211.371 382.172 214.386 387.916C219.56 397.77 225.44 391.858 225.44 391.858" stroke="#383955" stroke-width="1.33333" stroke-miterlimit="10"/>
<path d="M354.519 242.326C354.519 242.326 394.059 277.072 388.535 299.552C383.013 322.031 292.744 319.861 292.744 319.861V383.783C292.744 383.783 332.34 382.896 366.272 387.375C405.959 392.614 468.433 377.875 474.739 330.837C481.044 283.799 442.493 198.643 338.146 184.567L354.519 242.326Z" fill="#FF5938"/>
<path opacity="0.300003" d="M354.519 242.326C354.519 242.326 394.059 277.072 388.535 299.552C383.013 322.031 292.744 319.861 292.744 319.861V383.783C292.744 383.783 332.34 382.896 366.272 387.375C405.959 392.614 468.433 377.875 474.739 330.837C481.044 283.799 442.493 198.643 338.146 184.567L354.519 242.326Z" fill="white"/>
<path d="M468.41 325.895H446.753V303.168H468.41V325.895ZM468.41 349.768H446.753V327.039H468.41V349.768ZM445.611 278.153H423.952V255.425H445.611V278.153ZM445.611 302.026H423.952V279.297H445.611V302.026ZM445.611 325.895H423.952V303.168H445.611V325.895ZM445.611 349.768H423.952V327.039H445.611V349.768ZM422.811 254.282H401.153V231.555H422.811V254.282ZM422.811 278.153H401.153V255.425H422.811V278.153ZM422.811 302.026H401.153V279.297H422.811V302.026ZM422.811 325.895H401.153V303.168H422.811V325.895ZM422.811 349.768H401.153V327.039H422.811V349.768ZM422.811 373.639H401.153V350.91H422.811V373.639ZM400.012 230.411H378.355V207.683H400.012V230.411ZM400.012 254.282H378.355V231.555H400.012V254.282ZM400.012 349.768H378.355V327.039H400.012V349.768ZM400.012 373.639H378.355V350.91H400.012V373.639ZM377.213 349.768H355.556V327.039H377.213V349.768ZM377.213 373.639H355.556V350.91H377.213V373.639ZM354.414 349.768H332.756V327.039H354.414V349.768ZM354.414 373.639H332.756V350.91H354.414V373.639ZM331.615 349.768H309.957V327.039H331.615V349.768ZM331.615 373.639H309.957V350.91H331.615V373.639ZM377.213 230.411H355.556V207.683H377.213V230.411ZM469.552 325.895V303.168H473.8C473.733 302.789 473.662 302.407 473.591 302.026H469.552V286.353C469.189 285.245 468.807 284.135 468.41 283.022V302.026H446.753V279.296H467.02C466.87 278.915 466.716 278.534 466.564 278.153H446.753V255.425H454.911C454.67 255.043 454.428 254.663 454.183 254.282H446.753V243.814C446.374 243.327 445.998 242.839 445.611 242.355V254.282H423.952V231.554H436.078C435.707 231.171 435.33 230.791 434.952 230.411H423.952V220.405C423.573 220.093 423.194 219.783 422.811 219.473V230.411H401.154V207.683H405.946C405.312 207.3 404.682 206.916 404.038 206.54H401.154V204.893C400.777 204.683 400.393 204.479 400.012 204.272V206.54H378.355V194.43C377.978 194.291 377.592 194.16 377.213 194.023V206.54H355.556V187.704C355.177 187.618 354.795 187.535 354.414 187.452V206.54H344.375L344.698 207.683H354.414V230.411H351.142L351.465 231.554H354.414V241.957L354.519 242.326C354.519 242.326 354.892 242.654 355.556 243.262V231.554H377.213V254.282H366.533C366.876 254.657 367.222 255.036 367.572 255.425H377.213V267.245C377.598 267.774 377.979 268.308 378.355 268.845V255.425H400.012V278.153H384.086C384.286 278.534 384.481 278.914 384.671 279.296H400.012V302.026H387.523C387.301 302.414 387.053 302.795 386.777 303.168H400.012V325.895H378.355V309.434C377.982 309.612 377.603 309.79 377.213 309.961V325.895H355.556V315.897C355.177 315.963 354.795 316.026 354.414 316.09V325.895H332.756V318.647C332.376 318.677 331.995 318.707 331.615 318.737V325.895H309.958V319.787C309.574 319.796 309.192 319.804 308.817 319.813V325.895H292.744V327.038H308.817V349.768H292.744V350.91H308.817V373.639H292.744V374.781H308.817V383.757C309.192 383.761 309.574 383.767 309.958 383.772V374.781H331.615V384.428C331.994 384.447 332.376 384.467 332.756 384.486V374.781H354.414V386.037C354.794 386.073 355.175 386.11 355.556 386.148V374.781H377.213V388.281C377.593 388.296 377.972 388.31 378.355 388.321V374.781H400.012V387.246C400.393 387.198 400.773 387.153 401.154 387.101V374.781H422.811V382.391C423.193 382.274 423.572 382.15 423.952 382.029V374.781H441.34C442.039 374.409 442.732 374.027 443.417 373.639H423.952V350.91H445.611V372.351C445.993 372.119 446.375 371.885 446.753 371.648V350.91H467.761C468.394 349.851 468.991 348.766 469.552 347.658V327.038H475.136C475.167 326.658 475.196 326.279 475.221 325.895H469.552Z" fill="#FAFAFA"/>
<path d="M354.519 242.326C354.519 242.326 394.059 277.072 388.535 299.552C383.013 322.031 292.744 319.861 292.744 319.861V383.783C292.744 383.783 332.34 382.896 366.272 387.375C405.959 392.614 468.433 377.875 474.739 330.837C481.044 283.799 442.493 198.643 338.146 184.567" stroke="#383955" stroke-width="1.33333" stroke-miterlimit="10"/>
<path d="M309.359 371.658C309.359 374.252 307.256 376.355 304.664 376.355C302.07 376.355 299.967 374.252 299.967 371.658C299.967 369.064 302.07 366.96 304.664 366.96C307.256 366.96 309.359 369.064 309.359 371.658Z" fill="#383955"/>
<path d="M315.8 319.611V383.774" stroke="#383955" stroke-width="1.33333" stroke-miterlimit="10"/>
<path d="M351.819 132.326C351.819 139.82 345.698 145.895 338.145 145.895C330.594 145.895 324.473 139.82 324.473 132.326C324.473 124.832 330.594 118.758 338.145 118.758C345.698 118.758 351.819 124.832 351.819 132.326Z" stroke="black" stroke-width="2.66667" stroke-miterlimit="10"/>
<path d="M292.251 90.2234H309.426C320.843 90.2234 330.186 100.865 330.186 113.872V140.507C330.186 141.259 330.146 141.999 330.086 142.732C330.271 143.518 330.379 144.332 330.379 145.172V161.386V162.29V178.504C330.379 184.388 325.569 189.202 319.687 189.202H312.873C306.994 189.202 302.182 184.388 302.182 178.504V164.155H292.251C280.834 164.155 271.491 153.514 271.491 140.507V113.872C271.491 100.865 280.834 90.2234 292.251 90.2234Z" fill="white"/>
<path d="M292.251 90.2234H309.426C320.843 90.2234 330.186 100.865 330.186 113.872V140.507C330.186 141.259 330.146 141.999 330.086 142.732C330.271 143.518 330.379 144.332 330.379 145.172V161.386V162.29V178.504C330.379 184.388 325.569 189.202 319.687 189.202H312.873C306.994 189.202 302.182 184.388 302.182 178.504V164.155H292.251C280.834 164.155 271.491 153.514 271.491 140.507V113.872C271.491 100.865 280.834 90.2234 292.251 90.2234Z" stroke="#383955" stroke-width="1.33333" stroke-miterlimit="10"/>
<path d="M325.685 131.889L322.516 111.026C322.516 111.026 264.823 118.262 246.121 90.223C227.418 62.1839 247.072 51.0834 256.582 52.6688C266.091 54.2554 277.21 67.8929 277.21 67.8929C277.21 67.8929 268.358 55.8409 277.21 53.9379C286.061 52.0349 295.838 61.2324 300.935 70.7474C300.935 70.7474 338.964 67.1996 351.82 90.223C364.675 113.246 354.256 129.58 330.744 153.366L329.173 140.061L325.685 131.889Z" fill="#383955"/>
<path d="M320.509 135.987C320.509 141.435 316.095 145.853 310.65 145.853C305.204 145.853 300.79 141.435 300.79 135.987C300.79 130.538 305.204 126.122 310.65 126.122C316.095 126.122 320.509 130.538 320.509 135.987Z" fill="#FF8B74"/>
<path d="M273.898 128.098C273.298 128.098 272.717 128.176 272.158 128.309V138.54C272.158 140.07 271.996 141.559 272.305 142.999C272.717 143.068 273.466 143.115 273.898 143.115C278.042 143.115 281.402 139.754 281.402 135.606C281.402 131.46 278.042 128.098 273.898 128.098Z" fill="#FF8B74"/>
<path d="M302.712 122.21C302.712 124.147 301.142 125.719 299.205 125.719C297.267 125.719 295.697 124.147 295.697 122.21C295.697 120.271 297.267 118.701 299.205 118.701C301.142 118.701 302.712 120.271 302.712 122.21Z" fill="#383955"/>
<path d="M279.752 121.695C279.752 123.349 278.411 124.69 276.758 124.69C275.105 124.69 273.765 123.349 273.765 121.695C273.765 120.041 275.105 118.7 276.758 118.7C278.411 118.7 279.752 120.041 279.752 121.695Z" fill="#383955"/>
<path d="M283.101 136.051C283.101 136.051 284.862 141.19 288.589 141.542C292.314 141.895 295.234 137.765 295.436 134.54L283.101 136.051Z" fill="white"/>
<path d="M282.731 136.153C283.338 137.911 284.437 139.68 285.913 140.825C288.527 142.854 291.856 141.817 293.814 139.403C294.934 138.023 295.686 136.321 295.818 134.54C295.833 134.351 295.631 134.134 295.436 134.158C291.835 134.599 288.234 135.039 284.633 135.482C284.123 135.544 283.611 135.606 283.1 135.669C282.617 135.728 282.612 136.494 283.1 136.434C286.701 135.993 290.301 135.552 293.901 135.11C294.413 135.049 294.924 134.986 295.436 134.923C295.309 134.796 295.18 134.668 295.053 134.54C294.85 137.267 292.891 140.314 290.147 141.035C287.518 141.726 285.481 139.786 284.277 137.671C283.965 137.123 283.675 136.547 283.469 135.95C283.309 135.487 282.569 135.686 282.731 136.153Z" fill="#383955"/>
<path d="M316.958 120.155C316.958 127.717 311.477 133.847 304.716 133.847C297.954 133.847 292.474 127.717 292.474 120.155C292.474 112.594 297.954 106.464 304.716 106.464C311.477 106.464 316.958 112.594 316.958 120.155Z" stroke="#25263D" stroke-width="1.33333" stroke-miterlimit="10"/>
<path d="M284.285 118.44C284.285 125.202 279.772 130.684 274.205 130.684C268.638 130.684 264.125 125.202 264.125 118.44C264.125 111.677 268.638 106.196 274.205 106.196C279.772 106.196 284.285 111.677 284.285 118.44Z" stroke="#25263D" stroke-width="1.33333" stroke-miterlimit="10"/>
<path d="M287.848 118.745V130.636L281.618 126.838L287.848 118.745Z" fill="#FF8B74"/>
<path d="M283.967 122.101C283.967 122.101 289.179 120.127 292.754 123.083" stroke="#25263D" stroke-width="1.33333" stroke-miterlimit="10"/>
<path d="M316.941 120.657L333.548 124.131" stroke="#25263D" stroke-width="1.33333" stroke-miterlimit="10"/>
<path d="M351.819 132.326C351.819 139.82 345.698 145.895 338.145 145.895C330.594 145.895 324.473 139.82 324.473 132.326C324.473 124.832 330.594 118.758 338.145 118.758C345.698 118.758 351.819 124.832 351.819 132.326Z" fill="white"/>
<path d="M331.222 134.118C331.048 131.378 332.231 128.212 334.898 126.962C336.356 126.278 338.035 126.234 339.608 126.398C340.211 126.46 340.207 125.517 339.608 125.455C336.906 125.173 333.984 125.685 332.182 127.894C331.023 129.313 330.469 131.109 330.312 132.914C330.277 133.313 330.253 133.718 330.28 134.118C330.317 134.721 331.26 134.726 331.222 134.118Z" fill="#383955"/>
<path d="M341.885 194.963H292.623C290.836 194.963 289.39 193.513 289.39 191.727V183.272C289.39 181.484 290.836 180.036 292.623 180.036H341.885C343.669 180.036 345.118 181.484 345.118 183.272V191.727C345.118 193.513 343.669 194.963 341.885 194.963Z" fill="#FF5938"/>
<path opacity="0.300003" d="M341.885 194.963H292.623C290.836 194.963 289.39 193.513 289.39 191.727V183.272C289.39 181.484 290.836 180.036 292.623 180.036H341.885C343.669 180.036 345.118 181.484 345.118 183.272V191.727C345.118 193.513 343.669 194.963 341.885 194.963Z" fill="white"/>
<path d="M300.934 187.187C300.934 188.634 299.763 189.807 298.316 189.807C296.869 189.807 295.697 188.634 295.697 187.187C295.697 185.74 296.869 184.566 298.316 184.566C299.763 184.566 300.934 185.74 300.934 187.187Z" fill="#383955"/>
<path d="M332.757 194.963V183.812H345.118V183.272C345.118 183.065 345.095 182.865 345.058 182.67H332.757V180.036H331.616V182.67H309.958V180.036H308.816V182.67H289.449C289.412 182.865 289.39 183.065 289.39 183.272V183.812H308.816V194.963H309.958V183.812H331.616V194.963H332.757Z" fill="#FAFAFA"/>
<path d="M341.885 194.963H292.623C290.836 194.963 289.39 193.513 289.39 191.727V183.272C289.39 181.484 290.836 180.036 292.623 180.036H341.885C343.669 180.036 345.118 181.484 345.118 183.272V191.727C345.118 193.513 343.669 194.963 341.885 194.963Z" stroke="#383955" stroke-width="1.33333" stroke-miterlimit="10"/>
<path d="M457.605 382.816C450.295 382.816 444.368 376.888 444.368 369.573C444.368 362.259 450.295 356.33 457.605 356.33C464.915 356.33 470.841 362.259 470.841 369.573C470.841 376.888 464.915 382.816 457.605 382.816ZM457.605 348.615C446.036 348.615 436.657 357.998 436.657 369.573C436.657 381.147 446.036 390.531 457.605 390.531C469.173 390.531 478.552 381.147 478.552 369.573C478.552 357.998 469.173 348.615 457.605 348.615Z" fill="white"/>
<path d="M457.605 382.816C450.295 382.816 444.368 376.888 444.368 369.573C444.368 362.259 450.295 356.33 457.605 356.33C464.915 356.33 470.841 362.259 470.841 369.573C470.841 376.888 464.915 382.816 457.605 382.816ZM457.605 348.615C446.036 348.615 436.657 357.998 436.657 369.573C436.657 381.147 446.036 390.531 457.605 390.531C469.173 390.531 478.552 381.147 478.552 369.573C478.552 357.998 469.173 348.615 457.605 348.615Z" stroke="#383955" stroke-width="1.33333" stroke-miterlimit="10"/>
<path d="M451.782 403.208H407.461C403.758 403.208 400.757 400.205 400.757 396.499V343.385C400.757 339.679 403.758 336.676 407.461 336.676H451.782C455.485 336.676 458.487 339.679 458.487 343.385V396.499C458.487 400.205 455.485 403.208 451.782 403.208Z" fill="white"/>
<path d="M451.782 403.208H407.461C403.758 403.208 400.757 400.205 400.757 396.499V343.385C400.757 339.679 403.758 336.676 407.461 336.676H451.782C455.485 336.676 458.487 339.679 458.487 343.385V396.499C458.487 400.205 455.485 403.208 451.782 403.208Z" stroke="#383955" stroke-width="1.33333" stroke-miterlimit="10"/>
<path d="M434.703 388.969H424.542C419.469 388.969 415.357 384.855 415.357 379.78V378.762C415.357 373.687 419.469 369.574 424.542 369.574H434.703C439.776 369.574 443.888 373.687 443.888 378.762V379.78C443.888 384.855 439.776 388.969 434.703 388.969Z" fill="#FF5938"/>
<path d="M420.469 393.944H419.46C417.89 393.944 416.617 392.671 416.617 391.1V384.805C416.617 383.234 417.89 381.961 419.46 381.961H420.469C422.039 381.961 423.312 383.234 423.312 384.805V391.1C423.312 392.671 422.039 393.944 420.469 393.944Z" fill="#FF5938"/>
<path d="M439.744 394.312H438.734C437.165 394.312 435.892 393.04 435.892 391.468V385.174C435.892 383.603 437.165 382.33 438.734 382.33H439.744C441.313 382.33 442.586 383.603 442.586 385.174V391.468C442.586 393.04 441.313 394.312 439.744 394.312Z" fill="#FF5938"/>
<path d="M422.151 374.91C421.231 370.757 420.45 366.524 420.123 362.28C419.519 354.446 423.401 350.779 431.575 351.921C435.886 352.522 437.751 345.919 433.398 345.312C425.255 344.175 415.559 346.12 413.47 355.412C411.971 362.084 414.095 370.185 415.545 376.732C416.498 381.036 423.104 379.215 422.151 374.91Z" fill="#FF5938"/>
<path d="M438.002 375.603C438.267 375.272 439.644 375.752 440.048 375.882C442.777 376.769 453.352 379.184 452.602 388.321C452.102 394.406 448.756 396.783 445.841 397.753C444.785 398.104 444.01 396.794 444.823 396.034C445.855 395.069 446.875 393.855 447.487 392.443C449.032 388.877 445.833 386.054 437.249 381.96C436.664 381.681 437.07 377.785 437.473 377.28L438.002 375.603Z" fill="#FF5938"/>
<path d="M431.109 347.088C431.109 347.499 430.776 347.832 430.365 347.832C429.954 347.832 429.621 347.499 429.621 347.088C429.621 346.678 429.954 346.344 430.365 346.344C430.776 346.344 431.109 346.678 431.109 347.088Z" fill="#383955"/>
<path d="M430.283 349.79C430.345 350.025 430.482 350.25 430.625 350.442C430.984 350.924 431.497 351.262 432.061 351.463C432.554 351.639 433.08 351.71 433.602 351.722C433.713 351.725 433.713 351.554 433.602 351.551C432.414 351.522 431.071 351.109 430.528 349.951C430.497 349.885 430.467 349.815 430.449 349.745C430.42 349.638 430.256 349.683 430.283 349.79Z" fill="#383955"/>
<path d="M428.334 373.929C428.334 374.597 427.456 375.139 426.376 375.139C425.295 375.139 424.418 374.597 424.418 373.929C424.418 373.261 425.295 372.719 426.376 372.719C427.456 372.719 428.334 373.261 428.334 373.929Z" fill="#FF5938"/>
<path d="M431.868 376.183C431.868 376.565 431.365 376.875 430.745 376.875C430.127 376.875 429.623 376.565 429.623 376.183C429.623 375.799 430.127 375.49 430.745 375.49C431.365 375.49 431.868 375.799 431.868 376.183Z" fill="#FF5938"/>
<path d="M435.462 372.285C435.462 372.799 434.489 373.214 433.292 373.214C432.094 373.214 431.122 372.799 431.122 372.285C431.122 371.772 432.094 371.355 433.292 371.355C434.489 371.355 435.462 371.772 435.462 372.285Z" fill="#FF5938"/>
<path d="M438.685 374.88C438.685 375.217 438.232 375.489 437.671 375.489C437.112 375.489 436.657 375.217 436.657 374.88C436.657 374.543 437.112 374.271 437.671 374.271C438.232 374.271 438.685 374.543 438.685 374.88Z" fill="#FF5938"/>
<path opacity="0.600006" d="M428.334 373.929C428.334 374.597 427.456 375.139 426.376 375.139C425.295 375.139 424.418 374.597 424.418 373.929C424.418 373.261 425.295 372.719 426.376 372.719C427.456 372.719 428.334 373.261 428.334 373.929Z" fill="white"/>
<path opacity="0.600006" d="M431.868 376.183C431.868 376.565 431.365 376.875 430.745 376.875C430.127 376.875 429.623 376.565 429.623 376.183C429.623 375.799 430.127 375.49 430.745 375.49C431.365 375.49 431.868 375.799 431.868 376.183Z" fill="white"/>
<path opacity="0.600006" d="M435.462 372.285C435.462 372.799 434.489 373.214 433.292 373.214C432.094 373.214 431.122 372.799 431.122 372.285C431.122 371.772 432.094 371.355 433.292 371.355C434.489 371.355 435.462 371.772 435.462 372.285Z" fill="white"/>
<path opacity="0.600006" d="M438.685 374.879C438.685 375.216 438.232 375.488 437.671 375.488C437.112 375.488 436.657 375.216 436.657 374.879C436.657 374.542 437.112 374.27 437.671 374.27C438.232 374.27 438.685 374.542 438.685 374.879Z" fill="white"/>
<path d="M80.277 403.624L201.223 403.846C213.778 403.869 220.269 394.122 215.722 382.074L184.018 298.087C179.47 286.041 165.606 276.255 153.051 276.233L32.1053 276.012C19.5503 275.989 13.0587 285.737 17.606 297.784L49.3091 381.769C53.8564 393.817 67.7221 403.601 80.277 403.624Z" fill="#383955"/>
<path d="M98.5317 333.272C99.9496 338.605 105.418 342.937 110.746 342.946C116.073 342.956 119.244 338.639 117.826 333.306C116.408 327.973 110.939 323.642 105.611 323.632C100.283 323.623 97.1137 327.938 98.5317 333.272Z" fill="white"/>
<path d="M164.136 403.778L285.985 404C287.585 404.003 288.883 402.709 288.886 401.11L288.909 388.803C288.913 387.203 287.619 385.904 286.021 385.902L164.166 385.678C162.568 385.675 161.27 386.97 161.268 388.57L161.246 400.877C161.244 402.476 162.537 403.775 164.136 403.778Z" fill="#383955"/>
</svg>
