<svg width="12" height="12" viewBox="0 0 12 12" fill="none" xmlns="http://www.w3.org/2000/svg">
<path d="M4.12649 1.49805C5.22193 0.622139 6.77807 0.622139 7.87351 1.49805L8.01373 1.61017C8.24989 1.799 8.51323 1.95104 8.79484 2.06114L8.96205 2.12652C10.2683 2.63724 11.0464 3.98489 10.8356 5.37153L10.8086 5.54903C10.7631 5.84796 10.7631 6.15204 10.8086 6.45097L10.8356 6.62847C11.0464 8.0151 10.2683 9.36276 8.96205 9.87348L8.79484 9.93886C8.51323 10.049 8.24989 10.201 8.01373 10.3898L7.87351 10.502C6.77807 11.3779 5.22193 11.3779 4.12649 10.502L3.98627 10.3898C3.75011 10.201 3.48677 10.049 3.20516 9.93886L3.03795 9.87348C1.73167 9.36276 0.953602 8.0151 1.16444 6.62847L1.19143 6.45097C1.23688 6.15204 1.23688 5.84796 1.19143 5.54903L1.16444 5.37153C0.953602 3.9849 1.73167 2.63724 3.03795 2.12652L3.20516 2.06114C3.48677 1.95104 3.75011 1.799 3.98627 1.61017L4.12649 1.49805Z" fill="#17C5EB"/>
<path d="M8 4.5L5.25 7.25L4 6" stroke="white" stroke-linecap="round" stroke-linejoin="round"/>
</svg>
